<?xml version="1.0" standalone="no"?>
<!DOCTYPE svg PUBLIC "-//W3C//DTD SVG 20010904//EN"
 "http://www.w3.org/TR/2001/REC-SVG-20010904/DTD/svg10.dtd">
<svg version="1.0" xmlns="http://www.w3.org/2000/svg"
 width="2048.000000pt" height="2048.000000pt" viewBox="0 0 2048.000000 2048.000000"
 preserveAspectRatio="xMidYMid meet">

<g transform="translate(0.000000,2048.000000) scale(0.100000,-0.100000)"
fill="#000000" stroke="none">
<path d="M9887 16433 c-4 -3 -36 -7 -72 -8 -37 -1 -72 -8 -82 -16 -14 -12 -16
-12 -8 0 6 10 4 12 -6 6 -7 -5 -36 -10 -64 -10 -59 -2 -95 -12 -95 -27 0 -6
-6 -6 -15 2 -11 9 -15 9 -15 1 0 -7 -4 -10 -8 -7 -7 4 -60 -8 -194 -46 -21 -6
-38 -14 -38 -19 0 -5 -7 -6 -15 -3 -8 4 -15 1 -15 -5 0 -6 -8 -11 -18 -11 -22
0 -57 -24 -57 -39 0 -6 -4 -10 -10 -8 -5 1 -9 5 -8 8 4 11 -41 -3 -58 -18 -14
-12 -18 -12 -22 -1 -4 11 -6 11 -6 0 -1 -7 -5 -11 -10 -8 -4 3 -16 -3 -26 -14
-10 -11 -22 -20 -27 -20 -9 0 -24 -11 -63 -48 -14 -13 -25 -20 -25 -17 0 3
-14 -2 -30 -12 -17 -10 -28 -23 -26 -30 3 -7 2 -12 -2 -10 -10 3 -62 -39 -56
-46 3 -3 -4 -8 -15 -12 -12 -3 -21 -11 -21 -16 0 -6 -4 -7 -10 -4 -5 3 -10 3
-10 -2 0 -13 -76 -93 -88 -93 -6 0 -12 -4 -14 -9 -1 -5 -20 -30 -41 -55 -21
-25 -37 -47 -35 -49 2 -2 -5 -11 -15 -21 -9 -10 -14 -22 -11 -28 4 -7 2 -8 -4
-4 -7 4 -12 1 -12 -8 0 -10 -6 -13 -15 -10 -8 4 -15 1 -15 -5 0 -6 -8 -19 -17
-30 -29 -30 -53 -64 -53 -74 0 -5 -6 -15 -12 -22 -30 -34 -38 -45 -38 -55 0
-6 -11 -26 -25 -44 -14 -18 -25 -36 -25 -40 0 -4 -9 -16 -20 -28 -11 -12 -20
-33 -20 -46 0 -15 -7 -26 -20 -29 -11 -3 -20 -13 -20 -23 0 -10 -7 -23 -15
-30 -8 -7 -15 -17 -15 -22 0 -5 -11 -24 -25 -42 -14 -18 -22 -36 -18 -39 3 -4
0 -7 -7 -7 -7 0 -10 -3 -7 -7 4 -3 2 -12 -4 -19 -6 -8 -9 -20 -6 -29 4 -8 0
-20 -7 -27 -26 -26 -45 -64 -51 -103 -4 -22 -8 -45 -9 -51 -1 -5 -11 -22 -21
-36 -24 -29 -62 -30 -154 -2 -64 20 -82 21 -130 10 -63 -15 -70 -42 -23 -82
13 -12 21 -27 18 -33 -4 -6 -2 -11 3 -11 16 0 53 -39 47 -49 -3 -4 5 -14 18
-20 22 -12 62 -77 58 -94 -1 -4 6 -4 15 2 19 9 37 -3 39 -26 2 -30 5 -34 14
-28 6 3 10 -1 10 -9 0 -9 4 -16 10 -16 5 0 21 -18 34 -39 14 -22 35 -42 47
-46 14 -5 19 -13 16 -26 -3 -10 -1 -19 4 -19 5 0 9 6 9 12 0 7 11 -4 26 -25
14 -21 28 -35 33 -33 4 3 20 -21 36 -53 28 -54 32 -58 62 -55 20 1 42 12 56
28 14 14 31 26 38 26 8 0 31 9 51 19 19 11 39 17 42 14 3 -4 6 -1 6 5 0 6 15
18 34 27 19 9 42 25 52 36 9 10 22 19 29 19 7 0 20 9 31 21 25 28 151 119 156
113 3 -2 11 7 18 21 7 14 19 25 25 25 10 0 22 8 71 49 6 5 24 16 40 24 16 8
45 28 65 44 20 15 45 33 55 40 17 10 16 12 -16 26 -25 11 -39 12 -48 5 -7 -6
-15 -8 -19 -4 -3 3 -1 6 5 6 7 0 12 3 12 8 0 4 -35 7 -78 6 -42 0 -85 3 -94 8
-10 5 -19 4 -23 -2 -4 -6 -12 -7 -22 -1 -9 4 -31 5 -49 1 -18 -4 -36 -5 -39
-2 -3 4 -16 7 -28 7 -18 0 -22 6 -21 30 2 61 24 155 36 155 5 0 7 4 4 8 -8 13
16 82 26 76 4 -3 8 2 8 10 0 9 5 16 10 16 6 0 10 9 10 19 0 11 6 26 14 34 11
11 12 17 3 27 -7 8 -7 10 -1 7 9 -5 54 42 54 58 0 3 20 26 43 50 33 33 41 47
33 56 -8 9 -8 10 0 6 6 -4 32 15 57 41 24 26 51 48 58 50 8 2 31 22 52 44 20
23 37 39 37 35 0 -4 17 5 37 19 20 13 41 23 47 21 5 -2 17 4 26 12 47 44 83
71 96 71 8 0 51 18 96 40 46 22 89 40 96 40 7 0 10 5 6 12 -4 7 -3 8 4 4 6 -4
19 -3 29 2 38 19 120 44 158 49 22 2 46 10 53 16 8 6 21 12 31 13 9 2 32 6 51
10 19 4 49 8 65 9 51 4 55 5 54 13 -4 23 2 42 12 37 6 -4 8 -14 5 -22 -5 -12
9 -13 88 -9 51 3 97 6 102 7 5 1 11 0 14 -1 3 -1 48 -4 100 -6 139 -8 148 -8
145 -14 -2 -3 22 -7 53 -8 85 -3 111 -6 106 -14 -4 -7 101 -24 124 -20 6 2 12
-1 12 -6 0 -5 38 -19 85 -33 47 -13 85 -27 85 -31 0 -4 8 -8 18 -8 9 0 28 -9
42 -20 14 -11 32 -20 41 -20 9 0 22 -7 29 -15 7 -8 16 -13 20 -10 5 3 11 1 15
-5 3 -5 15 -10 26 -10 22 0 59 -19 75 -39 7 -9 16 -11 25 -6 8 5 11 5 7 0 -11
-12 11 -35 28 -28 7 3 17 -2 20 -11 3 -9 10 -13 15 -10 5 3 9 1 9 -5 0 -6 7
-8 15 -5 8 4 15 1 15 -5 0 -13 70 -58 83 -53 5 1 6 -2 2 -8 -3 -5 -2 -10 3
-10 5 0 26 -16 46 -36 20 -20 43 -37 51 -38 7 -1 28 -14 46 -29 18 -15 36 -27
41 -27 4 0 8 -5 8 -11 0 -6 11 -20 25 -31 14 -11 25 -26 25 -33 0 -8 9 -19 20
-25 11 -6 20 -17 20 -25 0 -8 16 -30 36 -49 61 -60 127 -57 196 7 15 14 29 23
32 20 2 -2 17 4 32 14 16 10 28 16 29 14 1 -11 45 13 45 25 0 8 5 14 10 14 6
0 10 -4 10 -9 0 -14 98 30 126 56 13 12 24 18 24 12 0 -6 7 -6 20 1 11 6 20
18 20 28 0 12 3 14 8 4 6 -9 15 -5 33 14 22 25 22 27 4 21 -18 -6 -17 -5 3 9
23 17 32 50 10 39 -7 -4 -6 -1 2 7 21 19 22 33 2 51 -51 48 -61 55 -68 49 -4
-4 -4 -1 0 6 9 15 -29 62 -50 62 -7 0 -20 7 -28 16 -9 8 -16 13 -16 10 0 -4
-14 7 -32 24 -17 17 -33 28 -36 26 -2 -3 -16 6 -31 20 -14 13 -39 37 -55 52
-16 15 -24 19 -17 10 8 -10 9 -18 4 -18 -11 0 -43 37 -37 44 2 3 1 4 -3 1 -3
-3 -15 3 -26 12 -13 12 -17 13 -12 4 5 -8 -10 0 -33 19 -23 18 -42 37 -42 42
0 4 -7 8 -15 8 -9 0 -18 6 -21 14 -3 8 -12 12 -20 9 -8 -3 -14 1 -14 10 0 9
-5 19 -12 23 -7 4 -8 3 -4 -5 4 -6 -9 0 -30 14 -24 16 -45 23 -58 20 -15 -5
-17 -4 -7 3 10 7 6 13 -17 23 -17 7 -29 16 -26 20 2 4 -7 10 -21 13 -14 4 -25
11 -25 17 0 6 -4 7 -10 4 -5 -3 -10 -2 -10 2 0 5 -10 10 -22 10 -13 1 -28 10
-35 19 -7 10 -13 14 -13 8 0 -5 -5 -2 -10 8 -7 10 -18 14 -32 11 -13 -3 -20
-2 -16 2 9 9 -20 34 -40 35 -7 0 -10 -6 -7 -12 4 -7 0 -5 -8 5 -9 10 -21 20
-29 21 -26 5 -88 35 -88 43 0 4 -14 9 -32 9 -17 1 -36 8 -42 15 -6 8 -23 14
-38 14 -15 -1 -24 3 -22 7 3 4 -11 8 -30 8 -23 0 -39 6 -45 18 -6 9 -11 12
-11 5 0 -12 -40 -6 -40 7 0 10 -20 8 -40 -4 -8 -5 -12 -5 -7 -1 4 5 -7 14 -25
20 -43 16 -65 23 -55 18 4 -3 7 -10 7 -16 -1 -7 -10 -1 -20 12 -12 14 -20 18
-20 10 0 -12 -2 -12 -9 -1 -4 8 -27 15 -50 15 -22 1 -41 4 -41 7 0 3 -10 6
-22 6 -24 2 -63 11 -63 15 0 1 -22 3 -50 4 -27 1 -66 6 -85 10 -19 5 -38 10
-42 11 -5 1 -9 2 -10 3 -2 1 -31 4 -65 6 -44 3 -63 0 -63 -8 0 -9 -3 -8 -8 1
-6 9 -46 13 -148 13 -76 1 -146 0 -154 -2 -8 -1 -24 1 -36 5 -11 3 -23 3 -27
-1z m328 -126 c11 -1 25 -5 30 -8 6 -4 43 -10 83 -13 40 -4 79 -9 88 -13 9 -3
20 0 25 8 6 10 9 10 9 2 0 -7 7 -13 15 -13 8 0 15 -5 15 -11 0 -7 11 -8 29 -4
17 3 39 2 50 -4 11 -6 46 -15 78 -21 101 -16 128 -22 138 -30 6 -4 46 -15 90
-24 44 -10 106 -27 138 -37 31 -11 62 -17 69 -13 7 4 8 3 4 -4 -4 -7 -2 -13 3
-13 6 -1 14 -3 19 -4 34 -12 48 -16 55 -15 4 0 15 -6 23 -15 9 -8 21 -15 28
-15 7 0 25 -9 40 -21 14 -11 37 -22 51 -23 14 -2 31 -8 37 -14 7 -7 18 -12 25
-12 7 0 22 -9 34 -21 11 -11 25 -19 31 -17 6 2 23 -7 37 -20 14 -13 33 -30 42
-38 9 -8 21 -14 28 -14 14 0 95 -50 99 -62 2 -4 8 -6 13 -2 5 3 9 0 9 -7 0 -7
3 -10 6 -6 3 3 17 -6 30 -20 25 -27 56 -48 87 -59 9 -3 17 -10 17 -15 0 -4 18
-18 40 -30 21 -12 37 -26 34 -31 -3 -4 -1 -8 4 -8 5 0 21 -11 35 -25 14 -14
34 -27 45 -30 23 -4 66 -45 76 -71 5 -14 9 -15 15 -5 6 9 10 7 14 -9 4 -14 10
-19 18 -14 7 4 10 3 5 -4 -3 -5 0 -13 6 -15 12 -5 -25 -11 -44 -8 -5 0 -8 -3
-8 -9 0 -5 -18 -13 -40 -16 -22 -4 -37 -10 -34 -15 3 -5 -6 -9 -20 -9 -14 0
-26 -5 -26 -11 0 -6 -7 -9 -15 -5 -9 3 -15 0 -15 -9 0 -8 -10 -13 -27 -13 -16
0 -52 -9 -81 -21 -29 -11 -62 -21 -74 -21 -25 0 -71 47 -62 63 4 7 4 9 0 5 -5
-4 -25 14 -46 40 -70 85 -99 111 -190 172 -36 24 -73 51 -83 62 -10 10 -26 18
-36 18 -10 0 -28 9 -41 20 -13 11 -32 20 -42 20 -11 0 -16 5 -13 10 6 10 -29
28 -69 36 -11 2 -22 7 -25 11 -7 10 -62 37 -77 38 -6 0 -19 6 -28 14 -9 8 -19
11 -22 8 -3 -3 -23 3 -45 15 -21 11 -50 21 -63 22 -14 2 -32 8 -39 15 -8 6
-17 8 -20 5 -3 -4 -21 2 -39 13 -18 11 -43 19 -55 18 -12 -1 -20 2 -17 7 4 6
-6 8 -22 7 -16 -2 -34 0 -40 3 -5 4 -19 5 -30 4 -10 -2 -25 1 -31 7 -9 6 -13
6 -13 -3 0 -9 -4 -9 -12 -3 -13 10 -52 22 -93 29 -127 20 -223 25 -228 10 -3
-7 -9 -6 -18 3 -12 12 -12 13 0 6 9 -5 12 -4 8 2 -6 10 -104 9 -114 -1 -3 -2
-18 0 -34 6 -21 7 -36 6 -59 -5 -17 -9 -28 -12 -25 -7 3 4 -2 10 -10 14 -8 3
-17 1 -21 -5 -3 -6 -12 -8 -20 -5 -7 3 -16 1 -19 -5 -4 -5 -10 -7 -15 -4 -12
8 -41 -6 -34 -16 3 -5 -1 -9 -10 -9 -8 0 -16 4 -18 10 -2 6 -18 5 -43 -1 -22
-6 -48 -10 -57 -10 -10 0 -20 -5 -24 -10 -4 -6 -11 -6 -20 2 -11 9 -15 8 -19
-3 -3 -8 -19 -15 -35 -16 -16 0 -44 -7 -62 -16 -18 -8 -59 -22 -90 -32 -32
-10 -58 -21 -58 -26 0 -4 -8 -8 -17 -8 -24 0 -86 -23 -102 -38 -7 -7 -26 -16
-42 -19 -16 -3 -34 -12 -40 -19 -6 -8 -18 -14 -25 -14 -8 0 -14 -4 -14 -8 0
-5 -18 -17 -40 -27 -22 -10 -40 -22 -40 -27 0 -4 -7 -8 -15 -8 -8 0 -15 -5
-15 -11 0 -5 -4 -8 -9 -4 -5 3 -22 -6 -37 -20 -15 -14 -30 -25 -33 -25 -12 0
-60 -47 -54 -54 3 -3 1 -7 -5 -7 -25 -3 -29 -5 -45 -21 -10 -9 -26 -20 -37
-23 -11 -4 -18 -10 -15 -15 3 -5 -1 -10 -7 -13 -10 -4 -11 -7 0 -18 6 -7 12
-18 12 -23 0 -6 -5 -3 -11 7 -11 18 -12 18 -29 -1 -11 -11 -23 -22 -27 -23
-13 -6 -73 -86 -73 -97 0 -5 -7 -15 -15 -22 -8 -7 -12 -16 -9 -21 3 -5 1 -9
-4 -9 -11 0 -89 -138 -94 -165 -2 -11 -9 -25 -17 -31 -8 -7 -12 -21 -9 -37 3
-15 2 -27 -2 -27 -10 0 -32 -57 -36 -94 -1 -16 -6 -41 -9 -55 -4 -14 -8 -42
-10 -61 -1 -19 -5 -44 -7 -55 -7 -27 18 -42 65 -40 20 1 37 -1 37 -4 0 -3 35
-6 78 -6 42 1 85 -1 95 -3 22 -6 17 -24 -8 -28 -10 -2 -22 -10 -27 -18 -5 -8
-14 -13 -21 -10 -7 2 -24 -7 -36 -20 -13 -14 -28 -23 -33 -20 -5 3 -23 -5 -41
-18 -18 -12 -50 -32 -72 -43 -49 -24 -88 -62 -78 -78 3 -7 -3 -4 -14 6 -20 18
-22 18 -45 -5 -34 -33 -131 -83 -136 -69 -2 6 -8 9 -13 5 -5 -3 -8 -2 -7 3 5
16 -54 94 -85 113 -18 11 -28 20 -24 20 5 0 -46 54 -113 119 l-121 119 66 7
c37 4 88 4 113 1 45 -7 91 -12 157 -18 32 -3 31 -6 21 60 -1 8 -9 18 -17 23
-11 7 -11 9 4 9 9 0 17 6 18 13 0 6 2 26 3 42 1 17 11 50 23 75 11 25 33 73
49 108 15 34 31 62 36 62 4 0 7 3 6 8 -4 20 18 69 39 86 15 11 22 24 18 34 -3
8 6 32 20 53 14 21 25 43 25 49 0 5 5 10 11 10 5 0 7 5 4 10 -3 6 -2 10 2 10
5 0 9 8 10 19 1 10 12 30 25 44 13 14 34 40 48 57 14 17 38 44 54 60 17 17 25
33 21 41 -5 8 -4 10 3 5 7 -4 12 -2 12 3 0 6 -5 11 -11 11 -8 0 -9 4 0 13 6 8
8 16 6 19 -3 3 7 11 22 17 16 6 37 25 48 41 11 17 26 28 34 25 8 -3 11 0 8 9
-3 7 7 23 24 35 16 12 29 27 29 34 0 7 22 28 47 47 26 19 60 49 76 67 16 17
39 34 53 37 13 4 28 15 34 26 6 11 19 20 29 20 10 0 29 8 42 18 13 10 31 22
39 25 8 4 35 18 59 32 24 14 50 25 58 25 7 0 13 5 13 10 0 6 9 10 20 10 11 0
28 4 38 9 9 5 31 13 47 18 17 5 29 14 28 19 0 5 22 10 49 12 28 1 57 7 64 13
8 6 21 9 29 5 8 -3 15 0 15 6 0 6 3 9 6 5 3 -3 24 1 47 9 22 8 69 15 104 17
35 1 63 6 63 10 0 7 369 2 435 -6z m-585 -446 c0 -6 -4 -12 -8 -15 -5 -3 -9 1
-9 9 0 8 4 15 9 15 4 0 8 -4 8 -9z m-43 -23 c-3 -8 -6 -5 -6 6 -1 11 2 17 5
13 3 -3 4 -12 1 -19z m-1067 -1308 c0 -5 -5 -10 -11 -10 -5 0 -7 5 -4 10 3 6
8 10 11 10 2 0 4 -4 4 -10z"/>
<path d="M9770 13812 c0 -8 -56 -34 -75 -36 -5 -1 -17 -6 -25 -11 -8 -5 -22
-11 -31 -12 -9 -1 -29 -8 -45 -14 -32 -13 -33 -13 -124 -28 -132 -21 -164 -30
-176 -46 -9 -12 -13 -13 -17 -3 -4 10 -8 10 -14 2 -4 -7 -20 -11 -35 -9 -15 2
-32 -3 -38 -10 -6 -8 -24 -12 -40 -10 -17 2 -36 -2 -45 -11 -8 -8 -37 -18 -65
-21 -28 -3 -53 -10 -56 -14 -3 -5 -16 -9 -29 -9 -14 0 -48 -10 -77 -23 -29
-13 -65 -27 -80 -30 -15 -4 -40 -12 -55 -19 -15 -6 -39 -13 -52 -14 -13 -2
-28 -9 -32 -16 -5 -7 -9 -9 -9 -4 0 6 -5 5 -12 -2 -7 -7 -27 -12 -44 -12 -18
0 -40 -7 -48 -16 -9 -8 -16 -13 -16 -10 0 6 -70 -20 -79 -30 -3 -3 1 -10 9
-15 12 -8 10 -10 -7 -6 -13 3 -23 2 -23 -2 0 -4 -7 -8 -15 -8 -8 0 -11 5 -8
10 7 12 -87 3 -96 -9 -3 -5 -15 -10 -26 -12 -11 -2 -27 -6 -35 -9 -8 -3 -25
-8 -37 -10 -12 -2 -38 -10 -59 -19 -33 -14 -35 -16 -19 -28 17 -12 17 -13 0
-19 -12 -5 -18 -1 -22 13 -6 24 -16 25 -33 5 -7 -9 -15 -13 -18 -10 -3 3 -10
1 -16 -4 -16 -12 -89 -35 -103 -33 -7 2 -13 -1 -13 -6 0 -4 -37 -19 -82 -32
-46 -13 -87 -26 -93 -31 -5 -4 -36 -15 -67 -24 -32 -9 -58 -21 -58 -26 0 -6
-4 -8 -8 -5 -4 2 -28 -5 -52 -16 -25 -12 -51 -20 -59 -19 -8 1 -17 -1 -20 -6
-10 -13 -109 -63 -127 -63 -9 0 -12 -5 -8 -12 5 -8 2 -9 -9 -5 -10 3 -17 2
-17 -3 0 -6 -7 -10 -15 -10 -9 0 -12 -6 -9 -15 4 -8 1 -15 -6 -15 -6 0 -9 -4
-5 -10 3 -5 -7 -8 -25 -5 -26 3 -30 1 -30 -21 0 -18 -4 -23 -12 -18 -10 6 -10
5 -2 -7 11 -12 11 -63 1 -124 -2 -11 1 -26 6 -32 6 -8 6 -13 -1 -13 -6 0 -9
-29 -8 -70 1 -38 -1 -70 -5 -70 -4 0 -7 -46 -7 -102 0 -57 -1 -125 -1 -153 0
-27 0 -84 0 -125 1 -41 -2 -83 -6 -92 -5 -13 -2 -15 15 -11 11 3 20 2 19 -3
-5 -27 1 -34 20 -24 13 7 22 7 26 0 3 -5 2 -10 -4 -10 -6 0 -8 -8 -5 -17 5
-16 4 -16 -8 -3 -16 19 -51 23 -44 5 2 -7 0 -17 -5 -22 -5 -5 -5 -22 0 -41 5
-17 6 -34 1 -37 -5 -3 -6 -22 -4 -43 3 -20 7 -66 9 -102 8 -114 14 -195 16
-200 1 -3 3 -27 4 -55 2 -27 5 -66 6 -85 2 -20 0 -41 -4 -47 -4 -6 -3 -14 2
-17 4 -3 9 -29 10 -58 0 -29 3 -64 6 -78 3 -14 7 -72 11 -130 4 -94 10 -145
14 -145 1 0 3 -22 5 -50 4 -71 13 -144 19 -153 2 -4 1 -23 -3 -42 -5 -24 -3
-44 6 -63 8 -16 13 -41 12 -55 -1 -15 1 -40 4 -57 4 -16 9 -65 11 -109 3 -46
9 -82 16 -86 9 -5 9 -9 1 -14 -7 -5 -8 -13 -1 -25 5 -10 6 -22 2 -26 -4 -3 1
-13 12 -20 10 -8 15 -18 11 -24 -3 -6 0 -11 9 -11 8 0 16 -5 18 -11 2 -5 21
-11 43 -12 22 -1 45 -8 51 -16 7 -9 21 -12 38 -9 14 3 29 2 31 -2 3 -4 28 -8
57 -9 28 0 54 -5 58 -10 3 -5 17 -11 30 -13 14 -2 30 -6 35 -8 6 -3 43 -5 82
-5 40 0 73 -3 73 -6 0 -7 43 -17 107 -26 24 -3 41 -8 38 -12 -2 -4 15 -9 38
-9 23 -1 53 -4 67 -7 14 -3 42 -8 63 -11 48 -7 72 -12 72 -14 0 -4 66 -17 102
-19 6 -1 18 -7 25 -14 7 -7 33 -13 58 -14 65 -2 126 -11 198 -29 34 -9 69 -13
77 -10 7 2 15 1 17 -4 4 -10 68 -23 125 -24 24 -1 43 -4 43 -8 0 -5 3 -7 8 -7
4 1 9 1 12 0 3 -1 29 -4 59 -7 29 -2 58 -7 65 -11 6 -4 24 -8 40 -9 16 -2 41
-6 55 -9 14 -4 42 -8 61 -10 39 -3 60 -7 75 -17 6 -3 42 -9 80 -12 68 -7 110
-13 110 -16 0 -3 71 -13 100 -14 17 -1 34 -5 38 -11 6 -6 10 -5 14 4 5 11 7
11 14 0 9 -15 35 -20 112 -22 26 0 47 -5 47 -10 0 -6 16 -7 38 -4 24 4 32 3
22 -3 -19 -12 -5 -16 75 -24 33 -3 77 -9 98 -12 33 -6 37 -5 31 12 -5 17 -4
16 13 -2 19 -23 70 -37 140 -38 22 -1 39 -4 36 -8 -2 -5 14 -8 36 -8 21 0 41
-5 43 -12 3 -8 12 -9 35 0 25 8 34 8 42 -2 6 -7 23 -12 37 -10 13 1 39 -2 56
-7 21 -6 36 -5 45 2 9 9 13 8 13 0 0 -7 10 -11 23 -10 12 1 34 -3 50 -9 15 -6
67 -13 115 -15 49 -2 94 -7 101 -11 15 -10 83 -10 112 -1 14 5 19 3 15 -3 -4
-7 4 -10 21 -8 16 1 52 -3 81 -10 38 -8 52 -8 52 0 0 6 4 5 9 -3 5 -8 16 -11
25 -8 8 3 17 3 20 -1 7 -12 104 -13 112 -1 5 8 9 7 14 -1 5 -8 15 -10 26 -5
11 5 24 7 29 6 6 -2 7 1 3 5 -13 12 40 53 77 60 19 3 32 10 29 15 -3 5 2 6 10
3 9 -3 16 -1 16 5 0 6 6 11 13 11 7 0 45 22 85 49 39 27 73 47 75 45 2 -2 15
7 30 20 16 15 29 20 35 14 13 -13 42 19 36 40 -4 11 -3 13 3 5 6 -8 28 1 78
32 39 24 94 56 123 71 28 15 52 34 52 41 0 8 5 11 10 8 6 -3 10 -1 10 4 0 6 4
10 9 8 5 -1 26 14 48 34 22 20 57 43 78 50 21 8 40 22 43 31 2 10 8 15 13 12
5 -3 9 -1 9 5 0 5 10 13 23 16 12 4 45 24 72 44 28 20 71 50 97 66 27 17 48
33 48 38 0 4 7 7 15 7 9 0 28 11 43 25 15 14 46 35 70 46 23 11 42 26 42 32 0
5 3 8 6 4 4 -3 33 14 65 39 33 25 59 43 59 39 0 -9 54 28 68 47 7 10 18 18 24
18 5 0 23 9 38 20 16 11 42 23 59 26 17 4 31 12 31 19 0 7 8 12 17 11 21 -1
30 33 11 45 -11 7 -11 9 1 9 9 0 12 8 9 25 -3 13 0 26 5 28 6 2 11 24 11 49 1
26 4 50 8 53 4 4 3 15 -2 24 -5 10 -7 36 -5 59 2 23 -1 45 -6 48 -5 3 -7 10
-4 15 4 5 -2 9 -12 9 -16 1 -16 2 -3 13 11 9 15 30 14 77 -1 36 3 71 9 78 6 8
6 12 -1 12 -5 0 -12 11 -14 25 -3 14 -2 25 2 25 6 0 6 35 -3 225 -2 39 -7 78
-11 88 -5 9 -5 25 0 35 4 9 6 28 5 42 -1 14 -2 72 -4 130 -1 58 -7 111 -11
119 -6 9 -5 12 1 8 6 -4 10 6 9 23 -1 17 -5 30 -9 30 -5 0 -5 5 -1 11 7 12 7
68 0 134 -3 22 -1 58 4 80 6 25 5 44 -1 52 -6 6 -12 99 -14 215 -3 112 -7 282
-9 378 -3 96 -5 184 -5 195 0 11 1 29 0 40 0 11 0 67 0 124 0 63 -5 109 -12
117 -9 11 -9 14 0 14 7 0 9 5 6 10 -4 6 -2 16 3 23 23 29 3 75 -43 96 -37 17
-145 30 -145 19 0 -5 -5 -6 -10 -3 -6 4 -17 1 -25 -5 -12 -10 -15 -9 -15 4 0
11 -10 17 -32 18 -92 5 -117 7 -168 13 -30 3 -84 10 -120 15 -36 5 -83 11
-105 14 -22 2 -51 8 -64 12 -23 7 -24 5 -18 -24 5 -25 3 -30 -8 -25 -8 3 -15
0 -15 -6 0 -6 -5 -11 -12 -11 -6 0 -3 10 8 21 19 22 19 22 -2 11 -24 -13 -35
-7 -27 15 5 12 7 12 14 1 6 -9 9 -9 9 -1 0 14 -34 35 -43 27 -3 -3 -15 0 -27
6 -12 7 -67 14 -122 16 -55 2 -105 7 -110 10 -6 4 -58 10 -117 15 -58 5 -142
13 -186 19 -44 6 -105 12 -135 15 -113 9 -145 13 -162 19 -10 3 -25 8 -33 11
-8 2 -26 0 -40 -5 -15 -6 -26 -6 -30 0 -9 14 -49 12 -63 -2 -9 -9 -16 -7 -31
6 -14 13 -30 16 -64 13 -25 -3 -48 -3 -51 1 -10 9 -125 23 -231 26 -38 2 -80
6 -93 10 -14 5 -29 3 -39 -6 -12 -9 -15 -9 -9 0 5 8 0 12 -13 12 -12 0 -21 -5
-21 -11 0 -6 -7 -3 -16 5 -15 15 -37 21 -59 16 -9 -2 -72 -1 -102 2 -7 1 -13
6 -13 11 0 5 -11 7 -25 5 -14 -3 -28 -2 -30 2 -7 12 -49 -1 -59 -18 -7 -13
-11 -11 -26 8 -15 19 -27 23 -97 25 -44 1 -85 5 -89 8 -5 3 -40 5 -78 4 -37
-1 -70 2 -73 6 -3 5 -27 6 -54 2 -35 -5 -49 -3 -49 5 0 7 -6 10 -14 7 -7 -3
-18 -1 -23 4 -12 12 -53 20 -53 11z m660 -96 c0 -3 -4 -8 -10 -11 -5 -3 -10
-1 -10 4 0 6 5 11 10 11 6 0 10 -2 10 -4z m-530 -26 c0 -5 -4 -10 -10 -10 -5
0 -10 5 -10 10 0 6 5 10 10 10 6 0 10 -4 10 -10z m-126 -17 c7 -7 34 -10 164
-16 17 -1 32 -5 32 -8 0 -3 33 -7 73 -8 165 -7 161 -7 167 14 9 33 47 31 65
-4 14 -27 20 -30 60 -29 25 0 48 4 51 9 9 15 26 10 20 -6 -4 -12 3 -15 32 -16
60 -1 133 -8 197 -19 114 -18 183 -22 190 -10 4 7 11 8 18 2 7 -5 34 -12 61
-15 27 -4 51 -9 54 -12 7 -7 -2 -16 -20 -19 -7 -2 -26 -8 -41 -14 -16 -7 -30
-12 -33 -12 -4 0 -74 -30 -134 -59 -19 -9 -36 -19 -38 -23 -2 -4 -10 -4 -18
-1 -8 3 -14 0 -14 -7 0 -6 -5 -8 -11 -4 -6 3 -24 -3 -40 -15 -16 -12 -33 -20
-38 -17 -5 3 -20 -5 -35 -19 -14 -13 -26 -20 -26 -15 0 9 -47 -5 -90 -27 -14
-7 -30 -13 -37 -13 -6 0 -24 -7 -40 -15 -15 -8 -61 -26 -101 -41 -40 -14 -78
-31 -85 -37 -6 -7 -25 -13 -41 -15 -34 -4 -126 -43 -126 -54 0 -4 -7 -5 -15
-2 -8 4 -15 2 -15 -3 0 -5 -6 -10 -12 -10 -7 0 -61 -23 -120 -51 -59 -29 -110
-52 -112 -52 -12 0 -182 -85 -188 -94 -4 -6 -10 -7 -14 -3 -4 4 -13 2 -21 -4
-7 -6 -13 -9 -13 -5 0 3 -27 -7 -60 -24 -33 -17 -60 -27 -60 -23 -1 5 -9 -2
-19 -15 -12 -13 -25 -20 -35 -16 -9 3 -16 1 -16 -5 0 -6 -9 -11 -19 -11 -11 0
-26 -7 -35 -15 -8 -8 -23 -15 -34 -15 -11 0 -25 -7 -32 -15 -7 -8 -20 -15 -30
-15 -9 0 -20 -3 -24 -7 -4 -5 -11 -9 -14 -9 -27 -5 -72 -31 -72 -42 0 -7 -5
-10 -10 -7 -6 4 -17 1 -25 -5 -9 -7 -23 -9 -37 -4 -38 13 -48 13 -48 1 0 -8
-4 -7 -9 2 -5 7 -14 11 -19 7 -6 -4 -27 0 -47 8 -19 8 -35 13 -35 10 0 -3 -9
0 -20 6 -14 8 -20 8 -20 0 0 -6 -5 -8 -12 -4 -12 7 -26 10 -118 19 -30 3 -79
10 -108 16 -28 6 -62 9 -75 8 -12 -2 -28 0 -34 4 -18 11 -51 18 -108 20 -27 2
-84 11 -125 20 -41 9 -88 16 -105 16 -72 -1 -194 10 -211 18 -29 14 -91 16
-99 3 -5 -8 -10 -9 -14 -2 -3 6 -22 12 -41 14 -19 1 -38 7 -41 12 -4 5 -49 10
-100 13 -124 6 -119 5 -119 13 0 3 -24 13 -52 20 l-53 14 45 8 c92 15 111 21
124 40 8 11 19 17 25 14 5 -4 27 1 48 10 21 10 49 19 62 20 13 2 29 8 35 14 5
5 20 10 33 10 13 0 42 9 66 19 47 21 152 58 188 65 53 11 66 15 106 31 24 9
41 21 38 25 -9 15 15 22 30 10 11 -9 15 -9 15 -1 0 6 3 10 8 9 12 -3 115 24
144 38 14 8 42 16 61 18 19 2 43 9 53 14 25 14 55 25 74 28 8 1 29 7 45 12 17
6 48 15 70 22 49 14 88 32 97 45 5 6 8 6 8 -1 0 -12 111 14 126 29 4 4 16 7
26 7 10 0 18 3 18 8 0 4 12 8 28 9 39 2 123 28 117 36 -2 4 0 3 6 -2 13 -11
61 7 54 20 -3 4 -1 10 4 13 5 4 12 2 15 -3 4 -6 18 -6 39 0 17 6 75 21 127 35
52 14 104 29 115 34 18 8 126 37 165 45 55 10 80 19 80 26 0 5 10 9 23 10 12
0 38 6 57 13 45 17 45 17 54 9z m1776 -53 c0 -5 -4 -10 -10 -10 -5 0 -10 5
-10 10 0 6 5 10 10 10 6 0 10 -4 10 -10z m-203 -34 c-13 -13 -16 -13 -20 -1
-4 8 1 15 11 18 24 5 27 0 9 -17z m313 14 c-8 -5 -19 -10 -25 -10 -5 0 -3 5 5
10 8 5 20 10 25 10 6 0 3 -5 -5 -10z m-2670 -40 c0 -5 -5 -10 -11 -10 -5 0 -7
5 -4 10 3 6 8 10 11 10 2 0 4 -4 4 -10z m2273 -38 c33 -7 47 -6 47 2 0 7 3 7
8 -1 9 -14 60 -24 142 -28 30 -1 75 -6 100 -10 25 -4 54 -8 65 -9 11 -1 25 -5
32 -9 6 -4 34 -7 61 -6 27 1 54 -1 60 -5 6 -3 16 2 21 11 10 16 12 16 23 3 24
-29 65 -40 113 -31 25 5 45 5 45 0 0 -4 22 -8 49 -7 27 0 57 -4 67 -10 27 -13
104 -22 104 -11 0 5 5 9 11 9 5 0 8 -4 5 -8 -2 -4 3 -8 12 -9 42 -3 89 -3 112
0 14 1 27 -1 31 -5 3 -4 39 -10 80 -14 40 -3 89 -9 107 -14 17 -5 32 -5 32 -2
0 8 76 6 128 -2 18 -3 30 -1 27 3 -2 5 12 4 33 -1 20 -5 54 -10 75 -10 47 1
40 -11 -26 -44 -29 -14 -62 -31 -75 -37 -12 -7 -20 -17 -18 -23 3 -7 -9 -14
-27 -17 -59 -9 -73 -15 -106 -46 -19 -18 -59 -44 -90 -58 -31 -15 -65 -35 -75
-45 -11 -10 -25 -18 -30 -18 -10 0 -36 -15 -105 -62 -33 -22 -74 -42 -83 -40
-5 1 -8 -3 -8 -8 0 -5 -3 -9 -7 -8 -10 2 -108 -45 -127 -62 -9 -7 -14 -16 -11
-20 3 -5 1 -11 -4 -15 -6 -3 -8 3 -6 15 3 17 1 19 -16 10 -10 -6 -19 -15 -19
-20 0 -6 -6 -10 -14 -10 -8 0 -22 -7 -30 -16 -9 -8 -16 -12 -16 -8 0 4 -8 -2
-18 -14 -10 -11 -29 -23 -43 -27 -14 -3 -38 -17 -54 -31 -15 -13 -32 -24 -38
-24 -5 0 -4 -6 2 -14 10 -12 9 -13 -8 -9 -13 3 -23 -2 -30 -16 -7 -12 -17 -21
-24 -21 -18 0 -97 -56 -90 -64 4 -3 0 -6 -7 -6 -22 0 -100 -43 -94 -52 3 -4
-6 -8 -19 -8 -25 0 -81 -43 -70 -54 4 -3 -2 -7 -13 -8 -10 0 -24 -2 -29 -2 -6
-1 -21 -9 -35 -19 -13 -9 -34 -17 -45 -17 -15 0 -16 -3 -7 -9 10 -6 5 -10 -16
-14 -16 -3 -36 -13 -45 -21 -8 -8 -17 -13 -20 -9 -3 3 -21 -9 -39 -26 -35 -33
-55 -34 -137 -9 -26 8 -36 7 -43 -3 -8 -11 -9 -10 -4 4 3 9 4 17 3 18 -1 0
-29 3 -61 5 -33 2 -64 8 -70 13 -23 17 -66 19 -76 2 -7 -11 -9 -12 -10 -2 0 7
-6 11 -14 8 -7 -3 -18 -1 -23 4 -5 5 -27 11 -49 14 -21 2 -40 4 -41 4 -2 1 -4
0 -5 -1 -2 -1 -14 4 -27 11 -14 8 -21 9 -17 2 4 -6 2 -11 -3 -11 -6 0 -11 4
-11 9 0 5 -12 9 -27 9 -16 1 -50 6 -78 12 -27 6 -88 17 -135 25 -47 8 -93 16
-102 19 -10 2 -18 -1 -18 -7 0 -9 -2 -9 -8 -1 -4 6 -38 14 -77 18 -118 12
-142 15 -168 25 -18 7 -32 5 -56 -10 -17 -10 -31 -15 -31 -10 0 4 10 13 23 19
21 10 21 11 -8 12 -16 1 -39 4 -50 6 -11 3 -32 5 -47 5 -15 -1 -45 3 -67 8
-28 6 -41 5 -44 -2 -2 -8 -12 -6 -29 5 -13 9 -47 19 -74 23 -27 4 -60 9 -74
11 -55 10 -120 10 -120 -1 0 -5 -5 -3 -10 5 -5 8 -10 11 -10 6 0 -5 -6 -3 -13
3 -8 6 -45 15 -83 21 -98 15 -174 28 -212 37 l-33 8 36 19 c19 11 35 23 35 28
0 5 4 7 9 3 6 -3 14 2 19 11 5 9 12 15 16 14 4 -1 26 7 49 18 23 11 57 25 74
32 18 7 30 17 26 23 -3 5 -1 7 5 3 6 -3 23 -1 39 5 15 6 37 15 48 20 11 4 50
22 87 39 37 17 86 37 109 46 24 8 63 26 87 39 25 14 48 25 53 25 5 0 33 11 63
25 30 14 61 25 70 25 8 0 18 4 21 10 4 6 -1 7 -12 3 -11 -4 -15 -2 -10 3 5 5
16 9 25 10 10 1 29 2 44 3 15 0 34 8 42 17 9 8 16 12 16 7 0 -4 4 -3 8 2 4 6
39 21 79 34 39 12 80 29 90 37 10 7 26 14 36 14 10 0 17 8 17 20 0 11 5 20 10
20 6 0 10 -6 10 -14 0 -11 8 -11 48 2 54 17 74 30 66 43 -3 5 1 6 8 4 20 -8
93 21 90 35 -2 8 3 10 13 6 9 -3 25 -1 36 5 11 5 34 12 51 14 17 2 36 11 40
20 5 8 16 15 24 15 8 0 22 4 32 9 9 5 37 17 62 27 25 10 50 23 55 29 6 6 17
10 25 9 8 0 25 5 37 13 12 7 31 13 43 13 11 0 20 4 20 8 0 5 18 14 40 21 22 6
40 16 40 22 0 6 4 7 10 4 5 -3 20 1 32 9 24 17 120 16 211 -2z m184 -18 c-3
-3 -12 -4 -19 -1 -8 3 -5 6 6 6 11 1 17 -2 13 -5z m1258 -62 c-3 -3 -11 0 -18
7 -9 10 -8 11 6 5 10 -3 15 -9 12 -12z m-275 -32 c0 -5 -4 -12 -10 -15 -5 -3
-10 -4 -10 -1 0 2 -3 12 -6 20 -5 12 -2 15 10 10 9 -3 16 -10 16 -14z m489
-157 c-1 -82 6 -243 10 -243 4 0 6 -17 7 -37 0 -21 4 -99 9 -173 4 -74 7 -139
6 -145 0 -5 -3 -164 -5 -352 -2 -188 -8 -348 -12 -354 -5 -8 -2 -10 8 -7 8 4
15 0 15 -8 0 -7 -4 -11 -8 -9 -10 7 -16 -58 -7 -90 4 -15 3 -37 -2 -50 -5 -13
-6 -50 -3 -82 9 -96 9 -98 -6 -95 -12 3 -12 1 -1 -13 10 -12 10 -19 2 -27 -8
-8 -7 -19 4 -39 9 -19 11 -29 4 -29 -6 0 -9 -4 -6 -9 4 -5 0 -12 -6 -15 -8 -4
-9 -8 -3 -11 11 -5 11 -87 1 -174 -5 -48 -4 -53 11 -47 17 6 17 5 1 -7 -10 -8
-15 -17 -12 -20 3 -3 7 -105 9 -228 3 -212 -2 -259 -27 -259 -4 0 -37 -21 -73
-47 -37 -27 -84 -58 -106 -69 -22 -12 -48 -29 -57 -38 -10 -9 -22 -16 -26 -16
-5 0 -30 -16 -56 -35 -26 -19 -53 -35 -59 -35 -6 0 -11 -4 -11 -10 0 -5 -4
-10 -10 -10 -12 0 -100 -60 -122 -83 -9 -11 -22 -16 -27 -13 -16 10 -51 -31
-45 -51 4 -13 3 -14 -3 -5 -8 10 -15 8 -35 -8 -15 -11 -31 -20 -37 -20 -5 0
-16 -9 -24 -20 -8 -11 -28 -25 -45 -31 -18 -6 -32 -15 -32 -21 0 -5 -4 -7 -9
-4 -5 4 -24 -10 -42 -29 -19 -19 -37 -35 -42 -35 -13 0 -125 -73 -158 -102
-14 -13 -38 -30 -53 -38 -16 -8 -31 -23 -35 -33 -4 -10 -9 -18 -11 -18 -14 1
-50 -12 -50 -19 0 -4 -20 -16 -44 -26 -24 -10 -52 -31 -62 -45 -10 -15 -21
-27 -24 -27 -23 2 -45 -10 -115 -61 -43 -33 -83 -57 -88 -54 -4 2 -4 10 0 16
5 7 7 23 6 37 -7 61 -8 152 -1 156 7 4 5 15 -9 52 -11 30 -13 47 -7 62 4 8 5
38 4 65 -2 28 -3 62 -3 77 0 15 -3 25 -8 23 -4 -3 -4 8 1 25 5 16 6 30 2 30
-4 0 -13 9 -20 21 -8 12 -9 18 -3 15 16 -10 23 31 22 118 -2 122 -7 181 -16
196 -6 10 -4 12 8 7 14 -5 15 -2 6 19 -5 14 -9 49 -9 77 0 67 -5 115 -13 123
-4 4 -2 13 4 21 6 7 8 13 3 13 -5 0 -9 29 -8 65 0 36 -2 65 -5 65 -3 0 -7 37
-8 82 -2 53 -7 84 -15 90 -7 4 -10 8 -6 8 4 0 3 12 -2 26 -7 16 -7 23 0 19 6
-4 8 5 5 22 -5 34 -16 143 -20 198 -2 22 -6 76 -10 120 -3 44 -7 106 -8 137
-1 32 -4 58 -7 58 -3 0 -3 26 0 58 3 31 3 74 -1 94 -3 21 -2 35 2 33 4 -3 9
13 11 35 2 22 0 40 -4 40 -4 0 -5 6 -3 13 3 6 7 27 9 45 3 27 1 32 -12 27 -13
-5 -12 -2 2 14 13 14 18 34 17 63 -2 24 -2 51 -2 61 0 10 -5 15 -12 11 -7 -4
-6 -1 2 7 11 11 14 11 18 1 4 -9 26 -1 78 28 41 22 81 40 89 40 10 0 13 6 9
18 -6 15 -5 16 12 2 11 -9 16 -10 11 -2 -4 7 -1 12 8 12 8 0 23 8 33 19 10 10
30 21 45 25 15 3 36 16 47 27 12 13 24 18 32 14 7 -5 10 -4 5 3 -3 6 6 13 24
17 16 4 30 11 30 16 0 6 4 8 9 4 5 -3 16 3 23 12 7 10 22 20 33 21 11 2 27 10
36 18 8 8 20 14 24 14 5 0 19 11 30 24 11 12 35 31 53 40 17 9 32 21 32 26 0
6 16 18 35 27 19 9 35 23 35 30 0 12 40 34 58 32 23 -4 34 3 28 17 -3 8 -2 12
4 9 14 -9 129 47 129 63 1 6 6 12 12 12 5 0 7 -6 3 -12 -6 -10 -4 -10 7 0 7 6
21 12 32 12 10 0 15 5 12 10 -3 6 -2 10 3 10 5 0 29 16 54 35 25 19 48 31 52
28 3 -4 6 2 6 13 0 15 2 16 10 4 7 -12 12 -11 31 5 13 11 36 31 52 45 16 14
40 35 53 46 12 12 25 19 28 16 3 -3 6 0 6 5 0 6 23 23 52 37 29 14 48 26 43
26 -9 0 49 46 69 54 7 3 6 8 -4 15 -8 6 -10 11 -4 11 5 0 16 -6 22 -12 10 -10
14 -8 18 10 4 12 10 19 15 16 5 -2 14 4 21 16 7 11 18 20 25 20 7 0 13 5 13
10 0 6 4 10 9 10 6 0 10 -8 10 -17z m-279 -67 c0 -3 -4 -8 -10 -11 -5 -3 -10
-1 -10 4 0 6 5 11 10 11 6 0 10 -2 10 -4z m-5117 -341 c-5 -13 -23 -22 -23
-11 0 15 14 35 21 31 4 -3 6 -12 2 -20z m-31 -53 c7 10 11 10 21 -2 14 -18
107 -26 107 -10 0 7 9 5 22 -4 12 -9 32 -16 45 -16 12 0 24 -3 27 -8 2 -4 35
-9 72 -10 38 -2 71 -5 75 -8 4 -2 20 1 35 6 22 9 25 8 16 -3 -10 -12 -4 -13
33 -7 26 4 46 3 48 -3 1 -5 39 -10 82 -11 44 0 83 -5 86 -9 3 -5 22 -9 41 -10
20 -1 34 -5 31 -9 -2 -5 8 -8 24 -9 63 -2 177 -17 218 -29 17 -5 53 -11 80
-14 28 -3 91 -12 140 -21 50 -10 104 -18 120 -19 17 0 36 -6 42 -13 7 -6 17
-13 22 -15 5 -1 12 -75 15 -163 13 -314 17 -378 28 -398 5 -11 6 -22 2 -26
-20 -14 -15 -69 7 -90 13 -12 18 -21 11 -21 -6 0 -17 -10 -23 -22 -9 -17 -9
-24 5 -33 19 -14 21 -26 4 -23 -7 2 -12 -3 -10 -10 4 -21 13 -239 12 -309 -1
-35 3 -63 9 -63 8 0 8 -23 0 -40 -6 -14 -3 -70 4 -70 9 0 5 -40 -6 -57 -5 -7
-5 -13 0 -13 4 0 7 -18 7 -40 -2 -33 1 -40 17 -40 24 0 24 -4 -3 -41 -19 -26
-20 -31 -8 -39 12 -8 12 -10 -4 -10 -16 0 -16 -2 -5 -16 14 -17 19 -63 7 -70
-13 -8 -9 -44 5 -44 8 0 9 -3 1 -8 -16 -10 -11 -122 5 -132 9 -5 10 -10 3 -14
-17 -10 -11 -304 6 -311 7 -3 10 -9 7 -15 -4 -6 -10 -8 -15 -5 -7 4 -6 -53 1
-91 1 -5 1 -71 0 -146 -1 -137 -1 -137 -23 -131 -13 3 -34 7 -48 8 -14 1 -32
5 -40 8 -8 4 -35 9 -59 11 -24 3 -47 9 -50 13 -6 7 -61 15 -121 17 -14 0 -28
4 -31 8 -3 5 -34 11 -69 14 -35 2 -68 8 -74 11 -6 4 -23 6 -38 4 -15 -1 -37 3
-48 9 -12 7 -41 13 -64 15 -22 1 -59 7 -81 13 -22 6 -60 14 -85 17 -82 11
-105 16 -138 26 -18 6 -39 8 -47 5 -8 -3 -36 1 -62 9 -26 7 -61 16 -78 19 -16
3 -43 8 -60 11 -16 4 -39 8 -50 10 -11 2 -35 6 -52 10 -25 6 -33 4 -33 -6 0
-10 -3 -11 -8 -3 -4 7 -23 14 -43 17 -48 6 -59 13 -54 37 3 15 -2 20 -16 20
-11 0 -17 5 -14 10 4 6 11 8 16 5 10 -7 2 43 -17 98 -7 21 -9 35 -5 32 5 -3 8
25 6 63 -2 37 -4 91 -4 120 -1 40 -4 51 -13 46 -7 -4 -10 -4 -6 0 3 4 3 20 -2
35 -4 15 -3 35 2 44 5 11 4 32 -3 59 -7 24 -14 61 -16 83 -3 38 -3 51 -3 104
0 14 -4 27 -8 30 -4 3 -8 20 -8 36 0 94 -5 166 -11 162 -5 -3 -8 11 -9 31 0
21 -4 66 -8 102 -4 36 -10 90 -12 120 -2 30 -6 80 -8 110 -3 30 -6 65 -6 77 0
12 -4 24 -9 28 -5 3 -7 15 -3 27 4 16 2 19 -8 13 -10 -6 -11 -4 -5 11 11 24
11 59 0 204 -5 63 -9 142 -10 175 0 41 -5 64 -15 72 -8 7 -10 13 -4 13 6 0 11
17 12 39 2 32 -2 40 -20 45 -22 5 -22 6 -4 19 22 16 25 95 4 108 -10 7 -10 9
0 9 7 0 12 14 12 35 0 19 -3 35 -7 35 -6 0 -10 215 -4 242 0 4 42 -4 93 -18
72 -19 93 -22 100 -12z m4269 -145 c-1 -12 -15 -9 -19 4 -3 6 1 10 8 8 6 -3
11 -8 11 -12z m-2686 -102 c49 -3 99 -10 113 -14 1 -1 3 -1 5 0 1 0 15 -4 30
-10 21 -8 26 -8 21 1 -4 6 -3 8 3 5 11 -7 62 -16 119 -21 17 -1 36 -6 43 -10
25 -16 151 -27 151 -13 0 6 5 6 13 0 19 -16 104 -22 118 -9 9 8 10 8 6 0 -7
-13 50 -25 128 -27 28 -1 53 -6 57 -12 5 -6 8 -5 8 3 0 7 5 10 11 7 35 -23
193 -48 291 -48 29 0 45 -4 41 -10 -4 -6 -1 -7 7 -2 7 4 16 2 21 -6 6 -11 11
-11 20 -2 8 8 18 9 30 2 10 -5 56 -14 101 -21 108 -14 109 -14 139 -22 15 -4
44 -9 65 -11 22 -2 64 -8 94 -13 30 -5 59 -8 65 -6 6 3 26 -2 44 -9 21 -9 45
-12 65 -7 17 4 52 5 79 4 28 -2 45 1 42 7 -4 5 -2 9 4 9 5 0 11 -6 13 -12 3
-7 18 -14 34 -16 55 -4 64 -6 64 -13 0 -4 8 -5 19 -2 27 7 35 -13 37 -92 1
-39 5 -99 8 -135 4 -36 9 -108 11 -160 2 -52 7 -140 11 -195 16 -232 22 -665
10 -657 -5 3 -6 0 -2 -6 4 -6 14 -9 24 -6 14 5 14 3 -2 -10 -11 -9 -15 -16 -9
-16 6 0 9 -12 7 -27 -1 -15 2 -33 8 -40 6 -8 8 -16 4 -20 -3 -3 -7 0 -7 8 -1
8 -5 -4 -9 -26 -5 -22 -6 -78 -3 -125 3 -47 5 -108 5 -137 -1 -29 3 -55 9 -59
6 -4 7 -10 0 -17 -6 -7 -6 -30 -1 -57 5 -25 8 -79 8 -120 -1 -47 3 -75 11 -78
7 -2 6 -8 -3 -18 -8 -8 -13 -24 -10 -37 3 -12 6 -33 7 -47 1 -14 6 -30 10 -37
4 -6 1 -13 -5 -16 -10 -3 -10 -7 0 -19 10 -12 10 -18 2 -23 -7 -4 -10 -18 -7
-31 2 -13 1 -24 -3 -24 -8 0 -6 -36 4 -67 3 -10 1 -25 -4 -32 -5 -10 -4 -26 4
-45 7 -17 12 -57 12 -89 -1 -31 4 -59 9 -61 6 -2 8 -6 5 -9 -3 -3 -39 -1 -80
4 -96 12 -147 17 -239 24 -41 4 -78 8 -82 10 -3 3 -31 5 -60 6 -30 1 -58 4
-64 8 -12 6 -22 8 -95 16 -30 4 -63 9 -73 11 -9 3 -51 7 -92 9 -41 2 -82 6
-92 9 -10 3 -34 8 -53 10 -19 3 -46 7 -60 10 -14 2 -50 7 -80 10 -30 2 -62 7
-70 10 -8 3 -53 7 -100 10 -47 2 -105 12 -130 21 -25 9 -72 17 -105 17 -34 1
-67 7 -76 15 -9 7 -27 13 -40 13 -57 1 -135 8 -152 15 -10 4 -21 5 -24 1 -4
-3 -14 1 -23 9 -11 10 -42 15 -96 16 -43 1 -82 7 -85 12 -4 5 -26 11 -50 14
-24 2 -62 9 -84 16 -22 6 -43 10 -48 9 -4 -1 -23 4 -42 12 -19 8 -35 13 -35
10 0 -3 -5 -2 -11 2 -8 5 -8 8 0 14 9 5 9 19 1 54 -6 26 -8 52 -5 57 4 5 -2 9
-12 9 -14 0 -15 2 -5 9 15 9 13 52 -3 63 -6 5 -6 8 2 8 15 0 8 192 -8 222 -7
12 -7 18 -1 14 6 -4 12 18 14 56 1 35 1 64 -2 65 -3 2 -3 26 -2 53 5 65 -3 87
-23 70 -8 -7 -15 -8 -15 -4 0 5 8 14 19 21 10 6 21 21 24 32 3 12 2 19 -1 17
-4 -2 -7 71 -6 162 0 92 -2 171 -5 176 -2 6 -4 30 -3 55 3 49 -4 64 -28 74
-11 4 -10 6 5 6 17 1 20 7 17 43 -1 24 -2 65 -2 91 0 27 -4 46 -9 43 -5 -3
-12 1 -15 10 -3 8 -2 12 3 9 14 -8 25 35 13 47 -6 6 -7 19 -2 33 4 12 5 27 1
34 -5 7 -6 23 -3 37 3 19 1 23 -12 18 -9 -3 -16 -1 -16 5 0 6 6 11 14 11 12 0
14 36 14 215 0 139 -4 215 -10 215 -7 0 -6 5 1 13 11 14 10 46 -6 222 -4 44
-6 97 -5 117 1 22 -4 43 -14 52 -8 9 -11 16 -5 16 6 0 11 7 11 15 0 10 8 13
28 9 15 -2 54 -7 87 -9z m-1785 -75 c0 -5 -5 -10 -11 -10 -5 0 -7 5 -4 10 3 6
8 10 11 10 2 0 4 -4 4 -10z m3100 -40 c0 -5 -5 -10 -11 -10 -5 0 -7 5 -4 10 3
6 8 10 11 10 2 0 4 -4 4 -10z m-1416 -346 c3 -8 2 -12 -4 -9 -6 3 -10 10 -10
16 0 14 7 11 14 -7z m-1658 -262 c-4 -3 -14 2 -24 12 -16 18 -16 18 6 6 13 -6
21 -14 18 -18z m1664 12 c0 -8 -4 -12 -10 -9 -5 3 -10 10 -10 16 0 5 5 9 10 9
6 0 10 -7 10 -16z m-43 -96 c-3 -8 -6 -5 -6 6 -1 11 2 17 5 13 3 -3 4 -12 1
-19z m-1622 -428 c3 -5 -1 -10 -9 -10 -9 0 -16 5 -16 10 0 6 4 10 9 10 6 0 13
-4 16 -10z m5635 -40 c0 -5 -5 -10 -11 -10 -5 0 -7 5 -4 10 3 6 8 10 11 10 2
0 4 -4 4 -10z m105 -150 c3 -5 1 -10 -4 -10 -6 0 -11 5 -11 10 0 6 2 10 4 10
3 0 8 -4 11 -10z m-4055 -291 c0 -5 -9 -9 -20 -9 -13 0 -18 5 -14 14 6 15 34
11 34 -5z m-1580 -238 c0 -5 -7 -11 -15 -15 -9 -3 -15 0 -15 9 0 8 7 15 15 15
8 0 15 -4 15 -9z m5020 -241 c0 -5 -2 -10 -4 -10 -3 0 -8 5 -11 10 -3 6 -1 10
4 10 6 0 11 -4 11 -10z m-4685 -150 c-3 -5 -10 -10 -16 -10 -5 0 -9 5 -9 10 0
6 7 10 16 10 8 0 12 -4 9 -10z m4195 -204 c0 -3 -4 -8 -10 -11 -5 -3 -10 -1
-10 4 0 6 5 11 10 11 6 0 10 -2 10 -4z m-1740 -212 c0 -8 -5 -12 -10 -9 -6 4
-8 11 -5 16 9 14 15 11 15 -7z m1170 1 c-7 -8 -17 -15 -23 -15 -6 0 -2 7 9 15
25 19 30 19 14 0z m-465 -105 c3 -5 -1 -10 -10 -10 -9 0 -13 5 -10 10 3 6 8
10 10 10 2 0 7 -4 10 -10z"/>
<path d="M10306 13745 c4 -8 8 -15 10 -15 2 0 4 7 4 15 0 8 -4 15 -10 15 -5 0
-7 -7 -4 -15z"/>
<path d="M18953 11403 c-7 -2 -13 -11 -13 -19 0 -9 -4 -13 -10 -9 -5 3 -23 -9
-40 -26 -17 -18 -39 -37 -49 -43 -49 -29 -101 -73 -107 -89 -3 -10 -12 -16
-19 -13 -8 3 -29 -12 -48 -33 -18 -20 -39 -35 -45 -33 -7 2 -12 -1 -12 -7 0
-6 -14 -18 -30 -26 -17 -9 -43 -29 -59 -45 -15 -17 -33 -30 -39 -30 -6 0 -15
-6 -19 -13 -12 -19 -78 -64 -69 -46 4 7 0 5 -8 -5 -9 -11 -16 -23 -16 -28 0
-4 -11 -10 -24 -14 -13 -3 -43 -25 -67 -50 -24 -24 -49 -44 -56 -44 -6 0 -17
-8 -22 -17 -6 -10 -11 -14 -11 -8 0 5 -13 -4 -28 -20 -33 -35 -51 -49 -112
-90 -25 -16 -59 -41 -76 -55 -17 -14 -41 -33 -54 -44 -13 -10 -51 -37 -86 -61
-35 -23 -61 -45 -57 -49 3 -3 -1 -6 -10 -6 -10 0 -17 -5 -17 -10 0 -6 -6 -10
-12 -8 -15 2 -60 -12 -68 -21 -16 -20 -177 -85 -240 -97 -14 -3 -49 -11 -78
-19 -50 -13 -57 -12 -137 14 -62 21 -87 25 -96 17 -9 -8 -10 -8 -5 2 5 8 0 12
-14 12 -11 0 -23 6 -26 13 -2 7 -13 13 -24 14 -11 1 -54 18 -94 37 -41 20 -82
36 -90 36 -15 0 -68 24 -151 67 -70 36 -141 76 -151 84 -6 5 -14 6 -17 2 -4
-3 -7 -1 -7 6 0 7 -13 17 -30 22 -16 6 -30 16 -30 22 0 7 -11 17 -25 24 -17 8
-25 8 -25 0 0 -6 -10 -1 -22 11 -13 11 -54 35 -93 53 -38 18 -91 45 -117 61
-27 15 -48 25 -48 23 0 -2 -21 7 -47 21 -26 13 -52 23 -59 20 -6 -2 -20 4 -31
13 -28 26 -121 51 -153 42 -3 -1 -54 -3 -115 -5 -123 -4 -205 -13 -238 -25
-12 -5 -36 -6 -53 -4 -18 3 -35 0 -38 -6 -4 -6 -20 -11 -37 -11 -21 0 -29 -5
-29 -17 0 -12 -3 -14 -8 -6 -8 12 -40 12 -78 -1 -12 -3 -45 -8 -74 -10 -37 -2
-57 -8 -66 -21 -12 -17 -14 -17 -14 -2 0 10 -5 14 -15 11 -8 -4 -12 -10 -9
-15 3 -5 -4 -9 -15 -9 -10 0 -21 4 -23 8 -1 5 -61 5 -133 1 -128 -9 -238 -6
-342 6 -41 5 -53 4 -53 -7 0 -8 -3 -9 -8 -2 -19 28 -117 49 -224 47 l-107 -1
-47 -46 c-46 -46 -47 -47 -41 -96 7 -60 32 -110 55 -110 13 0 14 -2 3 -9 -10
-7 -9 -11 6 -22 10 -8 26 -25 34 -39 9 -14 29 -39 45 -56 16 -17 44 -48 62
-69 17 -21 32 -34 32 -30 0 5 5 4 12 -3 7 -7 21 -12 33 -12 14 0 16 -3 7 -9
-10 -6 -3 -13 23 -25 20 -10 39 -15 42 -12 3 3 12 -2 20 -10 10 -10 19 -12 27
-5 8 7 16 4 24 -10 7 -11 18 -19 25 -18 7 2 31 -3 55 -10 49 -14 344 -19 382
-7 31 10 111 8 125 -4 6 -5 24 -8 40 -8 47 1 105 -27 105 -51 0 -12 4 -21 10
-21 15 0 60 -76 66 -113 4 -23 3 -28 -4 -18 -8 11 -11 3 -12 -30 -3 -88 -5
-109 -12 -109 -13 0 -37 -65 -42 -110 -2 -27 -14 -61 -30 -84 -14 -21 -26 -44
-26 -50 0 -9 -41 -67 -81 -114 -6 -7 -16 -23 -22 -35 -21 -41 -202 -227 -221
-227 -6 0 -4 -5 4 -10 13 -8 12 -10 -3 -10 -10 0 -20 -7 -23 -15 -4 -8 -10
-12 -16 -9 -5 3 -12 -3 -15 -15 -3 -12 -10 -21 -15 -21 -5 0 -20 -12 -33 -26
-14 -15 -25 -23 -25 -19 0 5 -9 -1 -20 -12 -10 -12 -28 -24 -40 -28 -11 -3
-20 -11 -20 -16 0 -5 -6 -9 -14 -9 -8 0 -16 -7 -20 -15 -3 -8 -12 -15 -21 -15
-8 0 -15 -5 -15 -11 0 -5 -5 -7 -10 -4 -6 3 -13 -1 -16 -9 -3 -9 -10 -13 -15
-10 -5 3 -9 1 -9 -3 0 -5 -19 -17 -41 -27 -48 -22 -77 -47 -71 -64 2 -8 -6
-10 -26 -6 -18 4 -34 1 -43 -8 -8 -7 -31 -22 -52 -32 -20 -11 -37 -23 -37 -29
0 -5 -6 -7 -14 -4 -7 3 -22 0 -32 -7 -11 -7 -41 -18 -69 -25 -27 -6 -65 -19
-83 -27 -18 -9 -40 -13 -47 -10 -8 3 -15 1 -17 -5 -2 -5 -14 -11 -27 -14 -12
-2 -29 -9 -37 -16 -8 -6 -14 -8 -14 -4 0 4 -6 2 -13 -4 -8 -6 -16 -8 -19 -5
-4 3 -26 -4 -50 -16 -41 -20 -52 -24 -97 -34 -10 -3 -33 -12 -50 -20 -17 -9
-32 -16 -33 -15 -7 5 -48 -13 -48 -21 0 -5 -16 -14 -35 -20 -20 -7 -46 -22
-58 -33 -13 -12 -38 -34 -57 -49 -18 -16 -29 -28 -23 -28 6 0 13 -7 17 -15 4
-13 2 -13 -14 -5 -10 5 -20 10 -22 10 -2 0 -28 -33 -58 -74 -30 -41 -57 -73
-61 -70 -9 5 -18 -55 -18 -120 0 -45 3 -52 45 -93 25 -23 55 -43 67 -44 12 0
31 -3 42 -5 11 -3 51 -9 89 -14 38 -6 75 -15 82 -21 8 -6 14 -8 14 -3 0 4 6 1
13 -7 14 -17 154 -75 162 -67 3 3 31 -1 62 -8 31 -7 60 -11 64 -8 4 2 9 -1 11
-6 2 -6 14 -12 28 -14 14 -2 43 -8 65 -14 22 -6 56 -13 75 -16 34 -4 49 -8 88
-23 9 -3 28 -7 42 -9 14 -1 48 -5 75 -8 125 -15 311 -23 380 -17 22 2 220 -6
220 -9 0 -1 35 -4 79 -6 43 -2 93 -7 110 -12 36 -10 121 -8 154 2 13 4 22 3
22 -3 0 -6 7 -8 15 -5 8 4 13 9 11 13 -6 9 231 7 240 -2 4 -4 14 -1 22 6 13
10 14 9 7 -2 -6 -10 -4 -12 4 -6 7 4 27 9 44 11 54 6 64 9 82 24 11 9 19 10
23 4 15 -23 114 0 125 28 4 10 7 10 15 -1 8 -11 14 -12 24 -4 14 11 68 27 81
24 5 -1 5 4 1 10 -5 8 -2 10 8 6 9 -3 19 -3 23 1 4 4 10 7 13 7 23 1 102 40
102 50 0 7 14 10 40 8 31 -2 60 7 128 39 48 23 90 47 94 52 4 6 10 7 14 4 9
-10 74 19 89 39 11 15 15 15 29 4 14 -12 16 -12 11 2 -4 9 2 21 14 29 12 8 18
19 14 24 -4 5 -1 3 7 -3 19 -17 40 -16 40 1 0 15 46 53 65 55 6 0 17 7 25 14
59 50 92 69 111 64 14 -4 19 -2 16 7 -3 8 6 19 21 27 15 7 51 28 80 46 29 18
57 33 62 33 17 0 80 42 75 50 -3 5 3 7 13 5 20 -4 43 7 45 21 1 5 7 8 14 6 7
-2 29 8 49 22 20 13 42 22 49 20 7 -3 15 2 18 10 4 9 13 16 20 16 8 0 22 9 32
20 18 20 18 21 -1 14 -29 -11 -6 10 41 36 22 13 59 34 83 47 42 24 57 22 25
-4 -10 -7 3 -3 30 9 26 12 47 26 47 31 0 4 -5 5 -12 1 -7 -5 -8 -3 -3 5 5 9
11 9 17 3 13 -13 49 0 86 28 13 11 35 20 48 20 21 0 29 9 25 32 0 4 12 5 27 4
16 -2 39 6 57 19 47 33 151 85 159 78 3 -3 6 -1 6 6 0 7 5 9 12 5 7 -4 8 -3 4
4 -3 6 3 16 14 22 11 6 20 8 20 5 0 -4 12 2 28 13 35 24 186 107 190 104 5 -5
132 70 132 79 0 4 7 6 15 3 8 -4 15 -2 15 4 0 6 17 16 38 23 20 7 42 18 47 25
6 7 19 14 30 16 11 2 22 5 25 8 13 13 87 58 106 64 12 4 29 15 39 26 10 11 23
20 29 20 12 0 36 12 101 50 72 43 109 60 125 60 9 0 25 8 36 18 11 11 49 34
84 53 36 19 67 37 70 40 3 3 20 11 38 18 17 8 32 18 32 24 0 6 3 7 6 4 4 -4
20 5 36 18 16 14 35 25 42 25 7 0 21 8 32 18 10 9 38 26 62 36 23 11 42 23 42
27 0 5 11 11 24 15 13 3 34 17 47 30 12 13 27 24 33 24 15 1 66 47 66 60 0 5
7 10 15 10 9 0 26 10 38 21 12 12 16 19 10 15 -7 -4 -13 -2 -13 3 0 6 4 11 10
11 18 0 51 43 40 54 -5 5 -10 36 -10 68 0 39 -7 72 -20 98 -11 21 -17 45 -14
53 2 8 -2 19 -10 26 -9 7 -18 29 -22 48 -4 19 -13 37 -20 40 -8 3 -14 11 -14
19 0 7 -16 47 -35 88 -19 41 -35 80 -35 85 0 6 -9 26 -20 46 -11 20 -20 40
-20 45 0 5 -14 32 -30 60 -17 28 -32 59 -34 68 -4 22 -77 169 -121 247 -19 33
-42 74 -50 92 -8 17 -18 33 -23 35 -17 7 -102 153 -97 166 4 10 0 12 -11 8
-11 -4 -18 1 -21 14 -3 11 -9 17 -14 14 -5 -3 -9 1 -9 8 -1 11 -55 79 -62 77
-2 0 -9 -3 -15 -6z m113 -254 c9 -21 21 -36 25 -33 5 3 9 -3 9 -14 0 -11 12
-37 26 -58 34 -49 114 -217 114 -237 0 -15 54 -146 90 -220 10 -20 14 -35 9
-31 -5 3 2 -16 16 -41 13 -26 27 -62 31 -81 3 -19 10 -34 14 -34 4 0 11 -16
14 -36 4 -19 22 -74 40 -122 55 -143 57 -154 43 -171 -9 -11 -9 -13 0 -8 7 5
16 -1 23 -13 7 -13 7 -20 1 -20 -6 0 -8 -7 -5 -15 7 -18 -14 -47 -27 -39 -5 3
-17 -8 -27 -25 -9 -17 -24 -31 -32 -31 -8 0 -23 -6 -32 -14 -14 -10 -15 -15
-5 -25 7 -7 8 -12 2 -11 -23 5 -36 -1 -29 -12 4 -7 3 -10 -1 -6 -5 5 -28 -4
-53 -18 -25 -15 -42 -22 -39 -17 3 5 -3 9 -14 9 -21 0 -26 -12 -6 -19 7 -3 1
-9 -13 -15 -14 -5 -32 -17 -39 -26 -7 -9 -22 -16 -33 -16 -10 0 -21 -7 -24
-15 -4 -8 -11 -15 -18 -15 -6 0 -35 -16 -63 -35 -29 -19 -59 -35 -68 -35 -8 0
-15 -4 -15 -8 0 -10 -143 -82 -163 -82 -9 0 -22 -8 -29 -18 -7 -10 -31 -23
-54 -30 -22 -6 -49 -21 -59 -32 -10 -11 -22 -17 -27 -14 -5 3 -30 -10 -55 -30
-26 -20 -57 -36 -70 -36 -12 0 -23 -4 -23 -9 0 -5 -10 -13 -22 -17 -13 -4 -25
-9 -28 -13 -5 -5 -32 -21 -112 -60 -28 -14 -38 -31 -18 -31 6 0 10 -8 10 -17
0 -16 -1 -16 -13 1 -12 16 -15 15 -59 -8 -25 -13 -48 -22 -51 -20 -2 3 -12 -7
-21 -21 -9 -14 -23 -25 -31 -25 -14 0 -78 -29 -125 -56 -14 -9 -33 -18 -42
-21 -10 -3 -18 -10 -18 -15 0 -5 -4 -7 -9 -4 -4 3 -29 -8 -55 -24 -26 -17 -51
-30 -56 -30 -6 0 -27 -9 -47 -20 -21 -11 -43 -20 -50 -20 -7 0 -13 -4 -13 -10
0 -5 -6 -10 -12 -10 -7 0 -33 -10 -58 -22 -44 -21 -67 -30 -103 -42 -10 -3
-16 -9 -13 -14 2 -4 -5 -9 -16 -9 -12 -1 -24 -7 -28 -13 -4 -7 -11 -11 -16
-10 -5 0 -18 -1 -29 -4 -11 -3 -22 -5 -23 -5 -2 1 -16 -10 -30 -24 -15 -14
-43 -33 -62 -42 -19 -10 -37 -21 -40 -24 -3 -3 -21 -15 -40 -25 -104 -57 -138
-78 -169 -106 -18 -16 -39 -30 -46 -30 -6 0 -22 -11 -35 -25 -13 -14 -29 -25
-36 -25 -7 0 -30 -16 -51 -35 -21 -20 -48 -38 -60 -41 -12 -3 -25 -14 -28 -24
-3 -11 -12 -17 -19 -14 -7 3 -19 -2 -26 -11 -7 -8 -18 -15 -25 -15 -7 0 -15
-9 -18 -21 -3 -12 -10 -18 -15 -15 -6 3 -23 -4 -39 -16 -39 -32 -60 -44 -115
-70 -27 -12 -48 -25 -48 -30 0 -4 -7 -5 -15 -2 -8 4 -15 2 -15 -4 0 -5 -20
-15 -45 -22 -25 -7 -45 -17 -45 -22 0 -5 -4 -6 -10 -3 -5 3 -10 1 -10 -5 0 -6
-4 -9 -9 -5 -6 3 -26 -4 -45 -15 -20 -11 -36 -16 -36 -12 0 4 -4 1 -9 -6 -4
-7 -14 -14 -22 -15 -8 -2 -20 -6 -27 -10 -7 -5 -25 -11 -40 -13 -15 -3 -28 -9
-30 -14 -2 -4 -11 -6 -21 -3 -10 2 -25 -3 -35 -12 -9 -9 -16 -14 -16 -12 0 3
-22 -1 -50 -8 -27 -7 -50 -11 -50 -9 0 2 -9 -5 -21 -17 -13 -13 -27 -18 -39
-14 -11 3 -28 1 -40 -5 -11 -6 -46 -12 -78 -14 -31 -2 -51 -2 -44 1 6 3 9 10
6 15 -4 7 -2 8 4 4 6 -3 14 0 19 8 4 8 11 15 16 15 10 1 53 30 87 61 76 68 90
80 90 75 0 -2 18 13 40 35 22 21 46 42 54 47 8 4 32 24 53 43 21 19 52 43 68
52 17 10 29 22 28 28 -2 5 0 9 5 9 19 -3 33 2 27 11 -3 6 3 10 15 10 12 0 18
5 15 10 -3 6 1 10 9 10 8 0 18 5 21 11 5 7 -3 9 -21 6 -42 -7 -64 -18 -64 -30
0 -6 -3 -8 -6 -4 -9 9 -53 -16 -90 -50 -17 -16 -36 -27 -41 -26 -6 2 -25 -11
-44 -29 -18 -18 -39 -32 -46 -30 -7 2 -17 -8 -23 -22 -6 -18 -14 -24 -25 -20
-19 8 -57 -24 -48 -40 4 -6 -1 -5 -10 3 -15 12 -17 12 -12 -1 4 -11 -2 -18
-20 -22 -14 -4 -23 -11 -20 -16 3 -5 -5 -12 -17 -16 -34 -11 -78 -46 -79 -63
0 -10 -2 -11 -6 -4 -5 13 -41 -3 -101 -45 -17 -13 -32 -20 -32 -16 0 4 -8 0
-17 -8 -28 -24 -183 -74 -183 -59 0 3 -15 7 -32 7 -78 3 -120 9 -124 16 -3 4
-15 3 -27 -4 -33 -18 -45 -17 -136 11 -20 6 -37 5 -55 -4 -33 -18 -33 -7 1 25
15 14 23 18 18 10 -8 -13 -7 -13 11 0 10 8 26 23 35 32 9 10 18 15 21 13 3 -3
24 13 47 36 22 23 41 38 41 33 0 -5 7 2 16 14 8 12 21 22 29 22 16 0 86 58 82
68 -1 4 3 8 8 10 18 5 58 34 135 96 90 74 188 146 195 146 3 0 13 8 23 18 10
10 29 26 42 35 31 22 18 34 -14 13 -14 -9 -32 -16 -40 -16 -8 0 -22 -7 -30
-16 -9 -8 -16 -13 -16 -9 0 3 -14 -4 -32 -17 -38 -27 -130 -81 -175 -102 -17
-8 -36 -24 -43 -35 -6 -12 -16 -21 -23 -21 -7 0 -59 -34 -116 -75 -57 -41
-107 -75 -111 -75 -4 0 -20 -11 -36 -25 -16 -14 -24 -25 -19 -25 6 0 -9 -9
-32 -21 -30 -15 -40 -25 -36 -37 4 -15 3 -15 -6 -2 -10 13 -14 12 -31 -8 -10
-13 -23 -23 -27 -24 -29 -4 -43 -13 -48 -29 -4 -11 -10 -17 -15 -14 -5 3 -15
-1 -22 -9 -22 -22 -45 -25 -191 -31 -76 -3 -144 -8 -150 -12 -20 -12 -37 -12
-37 0 0 7 -5 5 -10 -3 -5 -8 -10 -10 -10 -5 0 6 -26 11 -57 12 -32 2 -71 8
-88 13 -17 6 -53 12 -79 14 -27 2 -51 8 -55 13 -3 5 -18 10 -33 10 -16 1 -30
2 -33 3 -3 1 -9 4 -15 5 -5 1 -11 4 -12 5 -2 1 -19 4 -38 6 -70 6 -80 8 -80
16 0 4 -20 8 -44 8 -25 0 -46 5 -48 12 -2 6 -25 12 -51 12 -26 1 -47 5 -47 10
0 4 -9 6 -20 3 -11 -3 -20 -1 -20 4 0 5 -5 9 -11 9 -6 0 -22 8 -35 19 l-24 19
28 11 c15 6 42 12 61 13 18 1 36 9 39 16 2 8 8 9 11 4 6 -8 44 -4 246 28 98
16 228 32 254 31 14 -1 27 2 30 6 11 15 82 43 109 43 40 0 113 33 107 48 -3 7
0 10 6 7 9 -6 63 28 100 64 26 25 59 51 65 51 2 0 17 11 32 25 15 14 30 25 35
25 4 0 20 11 35 25 15 14 32 25 39 25 7 0 13 5 13 10 0 6 7 10 15 10 8 0 23 9
32 20 10 11 21 20 26 20 5 0 24 12 42 28 56 47 75 62 80 62 3 0 45 27 93 61
48 33 115 78 150 100 34 23 60 45 56 50 -8 13 -40 11 -56 -3 -7 -7 -20 -14
-28 -16 -24 -5 -124 -55 -138 -69 -7 -7 -21 -13 -31 -13 -9 0 -26 -8 -37 -18
-18 -17 -85 -52 -98 -52 -11 0 -44 -38 -38 -44 3 -3 -4 -6 -16 -6 -11 0 -24
-4 -27 -10 -3 -5 -23 -17 -43 -26 -20 -10 -45 -27 -54 -38 -9 -12 -20 -21 -25
-22 -16 -1 -63 -27 -63 -35 0 -4 -8 -10 -17 -13 -10 -3 -35 -21 -55 -40 -20
-19 -39 -32 -41 -29 -3 2 -8 -4 -11 -15 -4 -11 -19 -25 -34 -31 -32 -13 -86
-43 -107 -61 -9 -7 -18 -10 -22 -7 -3 4 -12 2 -18 -3 -7 -6 -25 -11 -41 -12
-16 -1 -33 -5 -39 -9 -21 -14 -166 -40 -250 -44 -77 -4 -124 -16 -135 -34 -6
-11 -9 -12 -10 -3 0 13 -23 13 -140 -3 -19 -2 -51 -6 -70 -8 -19 -1 -41 -6
-47 -10 -7 -5 -13 -4 -13 2 0 6 -7 8 -15 5 -8 -4 -13 -9 -11 -13 2 -3 -19 -7
-47 -8 -51 -2 -68 -4 -97 -16 -32 -13 -118 -14 -146 -2 -36 15 -74 55 -53 55
14 0 65 86 61 103 -1 4 3 7 9 7 6 0 9 5 7 12 -4 11 24 39 64 63 9 6 51 34 93
63 42 28 88 52 101 52 13 0 29 9 36 20 9 14 19 18 37 13 18 -4 22 -3 16 7 -5
8 -4 11 2 7 10 -6 35 -1 148 31 39 11 82 23 98 26 15 4 27 13 27 21 0 11 7 14
25 9 15 -4 44 3 81 20 31 14 65 26 75 26 10 0 21 5 24 10 3 6 27 20 53 31 26
12 66 35 89 52 24 17 46 28 49 24 11 -10 65 23 58 35 -4 7 -3 8 5 4 6 -4 24 0
39 10 15 10 36 23 47 29 26 14 167 107 181 120 92 80 150 133 163 146 9 9 41
41 71 73 30 31 65 67 78 79 12 12 22 26 22 31 0 5 19 27 41 47 23 20 38 42 35
48 -4 6 -1 11 8 11 8 0 20 13 27 29 7 16 17 27 21 25 4 -3 8 2 8 10 0 8 10 24
22 36 12 11 18 20 14 20 -4 0 1 12 11 28 10 15 28 47 40 72 11 25 28 60 37 79
21 44 20 50 -4 44 -29 -8 -24 6 6 18 15 5 24 12 21 16 -4 3 0 15 8 27 18 24
20 97 3 114 -8 8 -8 15 2 27 17 21 19 137 3 142 -7 3 -13 14 -13 26 -1 25 -22
57 -38 57 -6 0 -18 12 -26 28 -8 15 -15 23 -16 18 0 -5 -7 -3 -15 4 -8 7 -22
10 -30 6 -9 -3 -13 -2 -10 4 3 5 -3 14 -14 20 -14 7 -22 7 -26 0 -4 -7 -11 -7
-18 -2 -7 5 -46 8 -87 7 -41 -1 -80 2 -86 7 -16 12 -54 20 -84 19 -111 -6
-220 -5 -223 2 -1 4 -15 3 -30 -2 -16 -6 -26 -7 -22 -2 3 6 -3 10 -12 10 -10
0 -31 3 -48 6 -16 4 -41 8 -55 11 -103 17 -146 28 -153 40 -4 8 -17 14 -27 14
-11 0 -20 7 -20 15 0 9 -6 18 -14 21 -21 8 -96 82 -96 94 0 6 -6 8 -12 4 -7
-4 -10 -4 -7 0 3 3 -4 37 -17 74 l-24 67 23 17 c20 16 48 23 72 18 6 -1 30 -4
55 -6 25 -2 61 -6 80 -9 125 -19 569 -18 760 1 95 9 112 12 140 19 14 3 43 8
65 10 45 3 93 13 115 22 8 3 23 5 32 4 9 -1 36 3 59 9 77 21 195 36 222 29 18
-5 27 -3 27 4 0 8 3 7 9 -1 4 -8 27 -15 50 -15 22 -1 41 -6 41 -10 0 -5 5 -5
10 -2 6 4 17 1 25 -5 8 -7 15 -9 15 -6 0 4 10 0 22 -8 12 -9 31 -16 41 -16 9
0 20 -7 23 -15 4 -9 19 -15 35 -15 16 0 29 -5 29 -10 0 -6 20 -20 45 -32 25
-12 45 -26 45 -31 0 -4 4 -6 8 -3 5 3 20 -1 35 -9 15 -8 27 -11 27 -8 0 3 8
-1 18 -9 9 -9 28 -19 42 -23 14 -4 48 -20 75 -35 28 -15 56 -25 63 -23 6 3 12
0 12 -5 0 -5 37 -29 83 -52 45 -24 85 -48 88 -53 4 -5 12 -6 19 -2 9 5 11 4 6
-3 -6 -11 5 -16 25 -14 4 1 19 -10 34 -24 15 -14 41 -27 58 -29 17 -2 35 -11
39 -20 5 -8 17 -15 27 -15 10 0 24 -7 31 -15 7 -8 18 -15 25 -15 6 0 34 -11
61 -25 27 -14 59 -26 72 -27 12 -1 22 -6 22 -11 0 -4 4 -6 8 -3 5 3 25 -3 44
-14 20 -10 39 -16 42 -13 3 4 6 1 6 -5 0 -8 17 -11 48 -10 26 1 69 -2 96 -6
29 -4 46 -4 42 2 -3 5 11 8 32 7 20 -2 58 5 84 15 26 10 49 15 52 12 4 -3 6 0
6 6 0 7 4 12 9 12 12 0 95 49 174 102 31 22 57 37 57 33 0 -3 10 4 23 15 12
12 36 27 52 35 17 7 44 24 60 39 17 14 42 32 58 39 15 6 27 18 27 24 0 7 3 12
8 11 10 -4 82 41 117 74 55 50 78 68 91 68 7 0 24 14 37 30 14 17 31 30 37 30
6 0 8 5 5 10 -4 6 6 16 22 23 38 17 123 79 123 90 0 4 4 6 9 2 5 -3 17 5 25
17 9 12 16 19 16 15 0 -9 66 38 95 68 11 11 34 26 51 34 18 7 42 22 54 33 12
11 27 21 34 22 15 2 66 41 66 51 0 10 24 30 38 31 28 2 31 5 26 19 -4 10 -2
13 8 10 8 -3 34 10 59 29 l44 34 37 -41 c20 -22 44 -57 54 -78z m-4561 -799
c3 -5 1 -10 -4 -10 -6 0 -11 5 -11 10 0 6 2 10 4 10 3 0 8 -4 11 -10z m5132
-295 c0 -8 -4 -12 -9 -9 -5 3 -6 10 -3 15 9 13 12 11 12 -6z m-2362 -1435 c-7
-12 -84 -50 -99 -50 -6 1 8 10 31 20 23 11 45 25 48 30 3 6 11 10 16 10 6 0 7
-5 4 -10z m-1055 -530 c0 -5 -2 -10 -4 -10 -3 0 -8 5 -11 10 -3 6 -1 10 4 10
6 0 11 -4 11 -10z m-199 -63 c-16 -16 -26 0 -10 19 9 11 15 12 17 4 2 -6 -1
-17 -7 -23z"/>
<path d="M1488 11335 c-16 -18 -28 -38 -28 -44 0 -7 -4 -10 -9 -7 -5 3 -11 -3
-14 -14 -3 -13 -10 -18 -21 -14 -11 4 -15 2 -11 -8 5 -13 -80 -159 -97 -166
-5 -2 -15 -18 -23 -35 -8 -18 -31 -59 -50 -92 -44 -78 -117 -225 -121 -247 -2
-9 -17 -40 -34 -68 -16 -28 -30 -55 -30 -60 0 -5 -9 -25 -20 -45 -11 -20 -20
-40 -20 -46 0 -5 -16 -44 -35 -85 -19 -41 -35 -81 -35 -88 0 -8 -6 -16 -14
-19 -7 -3 -16 -21 -20 -40 -4 -19 -13 -41 -22 -48 -8 -7 -12 -18 -10 -26 3 -8
-3 -32 -14 -53 -13 -26 -20 -59 -20 -98 0 -32 -5 -63 -10 -68 -11 -11 22 -54
40 -54 6 0 10 -5 10 -11 0 -5 -6 -7 -12 -3 -7 4 -3 -3 9 -15 12 -11 29 -21 38
-21 8 0 15 -5 15 -10 0 -13 51 -59 66 -60 6 0 21 -11 33 -24 13 -13 34 -27 47
-30 13 -4 24 -10 24 -15 0 -4 19 -16 43 -27 23 -10 51 -27 61 -36 11 -10 25
-18 32 -18 7 0 26 -11 42 -25 16 -13 32 -22 36 -18 3 3 6 2 6 -4 0 -6 15 -16
33 -24 17 -7 34 -15 37 -18 3 -3 34 -21 70 -40 35 -19 73 -42 84 -53 11 -10
27 -18 36 -18 16 0 53 -17 125 -60 65 -38 89 -50 101 -50 6 0 19 -9 29 -20 10
-11 27 -22 39 -26 19 -6 93 -51 106 -64 3 -3 14 -6 25 -8 11 -2 25 -9 30 -16
6 -7 27 -18 48 -25 20 -7 37 -17 37 -23 0 -6 7 -8 15 -4 8 3 15 1 15 -3 0 -9
127 -84 132 -79 4 3 155 -80 191 -104 15 -11 27 -17 27 -13 0 3 9 1 20 -5 11
-6 17 -16 14 -22 -4 -7 -3 -8 4 -4 7 4 12 2 12 -5 0 -7 3 -9 6 -6 8 7 112 -45
159 -78 18 -13 41 -21 57 -19 15 1 27 0 27 -4 -4 -23 4 -32 25 -32 13 0 35 -9
48 -20 37 -28 73 -41 86 -28 6 6 12 6 17 -3 5 -8 4 -10 -3 -5 -7 4 -12 3 -12
-1 0 -5 21 -19 48 -31 26 -12 39 -16 30 -9 -33 26 -18 28 25 4 23 -13 60 -34
82 -47 47 -26 70 -47 41 -36 -19 7 -19 6 -1 -14 10 -11 24 -20 32 -20 7 0 16
-7 20 -16 3 -8 11 -13 18 -10 7 2 29 -7 49 -20 20 -14 42 -24 49 -22 7 2 13
-1 14 -6 2 -14 25 -25 45 -21 10 2 16 0 13 -5 -5 -8 58 -50 75 -50 5 0 33 -15
62 -33 29 -18 65 -39 80 -46 15 -8 24 -19 21 -27 -3 -9 2 -11 16 -7 19 5 52
-14 114 -67 10 -8 19 -13 20 -10 4 10 67 -42 67 -56 0 -17 21 -18 40 -1 8 6
11 8 7 3 -4 -5 2 -16 14 -24 12 -8 18 -20 14 -29 -5 -14 -3 -14 11 -2 14 11
18 11 29 -4 15 -20 80 -49 89 -39 4 3 10 2 14 -4 4 -5 46 -29 94 -52 68 -32
97 -41 128 -39 26 2 40 -1 40 -8 0 -10 79 -49 102 -50 3 0 9 -3 13 -7 4 -4 14
-4 23 -1 10 4 13 2 8 -6 -4 -6 -4 -11 1 -10 13 3 67 -13 81 -24 10 -8 16 -7
24 4 8 11 11 11 15 1 11 -28 110 -51 125 -28 4 6 12 5 23 -4 18 -15 28 -18 82
-24 17 -2 37 -7 44 -11 8 -6 10 -4 4 6 -7 11 -6 12 7 2 8 -7 18 -10 22 -6 9 9
246 11 240 2 -2 -4 3 -9 11 -13 8 -3 15 -1 15 5 0 6 9 7 23 3 32 -10 117 -12
153 -2 17 5 67 10 110 12 44 2 79 5 79 6 0 3 198 11 220 9 69 -6 255 2 380 17
28 3 61 7 75 8 14 2 32 5 40 8 39 15 58 20 90 24 19 3 53 10 75 16 22 6 51 12
65 14 14 2 26 8 28 14 2 5 7 8 11 6 4 -3 33 1 64 8 31 7 59 11 62 8 8 -8 148
50 163 67 6 8 12 11 12 7 0 -5 6 -3 14 3 7 6 44 15 82 21 38 5 78 11 89 14 11
2 30 5 42 5 12 1 42 21 67 44 42 41 45 48 45 93 0 65 -9 125 -18 120 -4 -3
-31 29 -61 70 -30 41 -56 74 -58 74 -2 0 -12 -5 -22 -10 -16 -8 -18 -8 -14 5
4 8 11 15 17 15 6 0 -5 12 -23 28 -19 15 -44 37 -57 49 -12 11 -38 26 -58 33
-19 6 -35 15 -35 20 0 8 -41 26 -48 21 -1 -1 -16 6 -33 15 -17 8 -40 17 -50
20 -45 10 -56 14 -97 34 -24 12 -46 19 -50 16 -3 -3 -11 -1 -19 5 -7 6 -13 8
-13 4 0 -4 -6 -2 -14 4 -8 7 -25 14 -37 16 -13 3 -25 9 -27 14 -2 6 -9 8 -17
5 -7 -3 -29 1 -47 10 -18 8 -55 21 -83 27 -27 7 -58 18 -69 25 -10 7 -25 10
-32 7 -8 -3 -14 -1 -14 4 0 6 -17 18 -37 29 -21 10 -44 25 -52 32 -9 9 -25 12
-43 8 -20 -4 -28 -2 -26 6 6 17 -23 42 -71 64 -22 10 -41 22 -41 27 0 4 -4 6
-9 3 -5 -3 -12 1 -15 10 -3 8 -10 12 -16 9 -5 -3 -10 -1 -10 4 0 6 -7 11 -15
11 -9 0 -18 7 -21 15 -4 8 -12 15 -20 15 -8 0 -14 4 -14 9 0 5 -9 13 -20 16
-12 4 -30 16 -40 28 -11 11 -20 17 -20 12 0 -4 -11 4 -25 19 -13 14 -28 26
-33 26 -5 0 -12 9 -15 21 -3 12 -10 18 -15 15 -6 -3 -12 1 -16 9 -3 8 -13 15
-23 15 -15 0 -16 2 -3 10 8 5 10 10 4 10 -19 0 -200 186 -221 227 -6 12 -16
28 -22 35 -40 47 -81 105 -81 114 0 6 -12 29 -26 50 -16 23 -28 57 -30 84 -5
45 -29 110 -42 110 -7 0 -9 21 -12 109 -1 33 -4 41 -12 30 -7 -10 -8 -5 -4 18
6 37 51 113 66 113 6 0 10 9 10 21 0 24 58 52 105 51 16 0 34 3 40 8 14 12 94
14 125 4 38 -12 333 -7 382 7 24 7 48 12 55 10 7 -1 18 7 25 18 8 14 16 17 24
10 8 -7 17 -5 27 5 8 8 17 13 20 10 3 -3 22 2 42 12 26 12 33 19 23 25 -9 6
-7 9 7 9 12 0 26 5 33 12 7 7 12 8 12 3 0 -4 15 9 33 30 17 21 45 52 61 69 16
17 36 42 45 56 8 14 24 31 34 39 15 11 16 15 6 22 -11 7 -10 9 3 9 23 0 48 50
55 110 6 49 5 50 -41 96 l-47 46 -107 1 c-107 2 -205 -19 -224 -47 -5 -7 -8
-6 -8 2 0 11 -12 12 -52 7 -105 -12 -215 -15 -343 -6 -71 4 -131 4 -133 -1 -2
-4 -13 -8 -23 -8 -11 0 -18 4 -15 9 3 5 -1 11 -9 15 -10 3 -15 -1 -15 -11 0
-15 -2 -15 -14 2 -9 13 -29 19 -66 21 -29 2 -62 7 -74 10 -38 13 -70 13 -78 1
-5 -8 -8 -6 -8 6 0 12 -8 17 -29 17 -17 0 -33 5 -37 11 -3 6 -20 9 -38 6 -17
-2 -41 -1 -53 4 -33 12 -115 21 -238 25 -60 2 -112 4 -115 5 -32 9 -125 -16
-153 -42 -11 -9 -25 -15 -31 -13 -7 3 -33 -7 -59 -20 -26 -14 -47 -23 -47 -21
0 2 -21 -8 -47 -23 -27 -16 -79 -43 -118 -61 -38 -18 -80 -42 -92 -53 -13 -12
-23 -17 -23 -11 0 8 -8 8 -25 0 -14 -7 -25 -17 -25 -24 0 -6 -13 -16 -30 -22
-16 -5 -30 -15 -30 -22 0 -7 -3 -9 -7 -6 -3 4 -11 3 -17 -2 -10 -8 -81 -48
-151 -84 -83 -43 -136 -67 -151 -67 -8 0 -49 -16 -90 -36 -40 -19 -83 -36 -94
-37 -11 -1 -22 -7 -24 -14 -3 -7 -15 -13 -26 -13 -14 0 -19 -4 -14 -12 5 -10
4 -10 -5 -2 -9 8 -34 4 -96 -17 -80 -26 -87 -27 -137 -14 -29 8 -64 16 -78 19
-63 12 -224 77 -240 97 -8 9 -53 23 -67 21 -7 -2 -13 2 -13 8 0 5 -7 10 -17
10 -9 0 -13 3 -10 6 4 4 -22 26 -57 49 -35 24 -73 51 -86 61 -13 11 -37 30
-54 44 -17 14 -51 39 -76 55 -61 41 -79 55 -112 90 -15 16 -28 25 -28 20 0 -6
-5 -2 -11 8 -5 9 -16 17 -22 17 -7 0 -32 20 -56 44 -24 25 -54 47 -67 50 -13
4 -24 10 -24 14 0 5 -7 17 -16 28 -8 10 -12 12 -8 5 9 -18 -57 27 -69 46 -4 7
-13 13 -19 13 -6 0 -24 13 -39 30 -16 16 -42 36 -59 45 -16 8 -30 20 -30 26 0
6 -5 9 -12 7 -6 -2 -27 13 -45 33 -19 21 -40 36 -48 33 -7 -3 -16 3 -19 13 -6
16 -58 60 -107 89 -10 6 -32 25 -49 43 -17 17 -35 29 -40 26 -6 -4 -10 0 -10
8 0 8 -7 18 -16 21 -19 7 -14 11 -46 -29z m130 -170 c10 3 12 0 8 -10 -5 -14
-2 -17 27 -19 13 -1 37 -21 37 -31 0 -10 51 -49 66 -51 7 -1 22 -11 34 -22 12
-11 36 -26 54 -33 17 -8 40 -23 51 -34 29 -30 95 -77 95 -68 0 4 7 -3 16 -15
8 -12 20 -20 25 -17 5 4 9 2 9 -2 0 -11 85 -73 123 -90 16 -7 26 -17 22 -23
-3 -5 -1 -10 5 -10 6 0 23 -13 37 -30 13 -16 30 -30 37 -30 13 0 36 -18 91
-68 35 -33 107 -78 118 -74 4 1 7 -4 7 -11 0 -6 12 -18 28 -24 15 -7 41 -25
57 -39 17 -15 44 -32 60 -39 17 -8 40 -23 53 -35 12 -11 22 -18 22 -15 0 4 26
-11 58 -33 78 -53 161 -102 173 -102 5 0 9 -5 9 -12 0 -6 2 -9 6 -6 3 3 26 -2
52 -12 26 -10 64 -17 84 -15 21 1 35 -2 32 -7 -4 -6 13 -6 42 -2 27 4 70 7 97
6 30 -1 47 2 47 10 0 6 3 9 6 5 3 -3 22 3 42 13 19 11 39 17 44 14 4 -3 8 -1
8 3 0 5 10 10 23 11 12 1 44 13 71 27 27 14 55 25 61 25 7 0 18 7 25 15 7 8
21 15 31 15 10 0 22 7 27 15 4 9 22 18 39 20 17 2 43 15 58 29 15 14 30 25 34
24 20 -2 31 3 25 14 -5 7 -3 8 6 3 7 -4 15 -3 19 2 3 5 43 29 89 53 45 23 82
47 82 52 0 5 6 8 13 5 6 -2 35 8 62 23 28 15 61 31 75 35 14 4 33 14 43 23 9
8 17 12 17 9 0 -3 12 0 27 8 15 8 30 12 35 9 4 -3 8 -1 8 3 0 5 20 19 45 31
25 12 45 26 45 32 0 5 13 10 29 10 16 0 31 6 35 15 3 8 14 15 23 15 10 0 29 7
41 16 12 8 22 12 22 8 0 -3 7 -1 15 6 8 6 19 9 25 5 5 -3 10 -3 10 2 0 4 19 9
41 10 23 0 46 7 50 15 6 8 9 9 9 1 0 -7 9 -9 27 -4 27 7 145 -8 222 -29 23 -6
50 -10 59 -9 9 1 24 -1 32 -4 22 -9 70 -19 115 -22 22 -2 51 -7 65 -10 28 -7
45 -10 140 -19 191 -19 635 -20 760 -1 19 3 55 7 80 9 25 2 50 5 55 6 24 5 52
-2 72 -18 l23 -17 -24 -67 c-13 -37 -20 -71 -17 -74 3 -4 0 -4 -6 0 -7 4 -13
2 -13 -4 0 -12 -75 -86 -96 -94 -8 -3 -14 -12 -14 -21 0 -8 -9 -15 -20 -15
-10 0 -23 -6 -27 -14 -7 -12 -50 -23 -153 -40 -14 -3 -38 -7 -55 -11 -16 -3
-38 -6 -48 -6 -9 0 -15 -4 -12 -10 4 -5 -6 -4 -22 2 -15 5 -29 6 -30 2 -3 -7
-112 -8 -223 -2 -30 1 -68 -7 -84 -19 -6 -5 -45 -8 -86 -7 -41 1 -80 -2 -87
-7 -7 -5 -14 -5 -18 2 -4 7 -12 7 -26 0 -11 -6 -17 -15 -14 -20 3 -6 -1 -7
-10 -4 -8 4 -22 1 -30 -6 -8 -7 -15 -9 -15 -4 -1 5 -8 -3 -16 -18 -8 -16 -20
-28 -26 -28 -16 0 -37 -32 -38 -57 0 -12 -6 -23 -12 -26 -17 -5 -15 -121 2
-142 10 -12 10 -19 2 -27 -17 -17 -15 -90 3 -114 8 -12 12 -24 8 -27 -3 -4 6
-11 21 -16 30 -12 35 -26 6 -18 -24 6 -25 0 -4 -44 9 -19 26 -54 37 -79 12
-25 30 -57 40 -72 10 -16 15 -28 11 -28 -4 0 2 -9 14 -20 12 -12 22 -28 22
-36 0 -8 4 -13 8 -10 4 2 14 -9 21 -25 7 -16 19 -29 27 -29 9 0 12 -5 8 -11
-3 -6 12 -28 35 -48 22 -20 41 -42 41 -47 0 -5 10 -19 23 -31 12 -12 47 -48
77 -79 30 -32 62 -64 71 -73 13 -13 71 -66 163 -146 14 -13 155 -106 181 -120
11 -6 32 -19 47 -29 15 -10 33 -14 39 -10 8 4 9 3 5 -4 -7 -12 47 -45 58 -35
3 4 25 -7 49 -24 23 -17 63 -40 89 -52 26 -11 50 -25 53 -31 3 -5 14 -10 24
-10 10 0 44 -12 75 -26 37 -17 66 -24 81 -20 18 5 25 2 25 -9 0 -8 12 -17 28
-21 15 -3 59 -15 97 -26 113 -32 138 -37 148 -31 6 4 7 1 2 -7 -6 -10 -2 -11
16 -7 18 5 28 1 37 -13 7 -11 23 -20 36 -20 13 0 59 -24 101 -52 42 -29 84
-57 93 -63 40 -24 68 -52 64 -63 -2 -7 1 -12 7 -12 6 0 10 -3 9 -7 -4 -17 47
-103 61 -103 21 0 -17 -40 -53 -55 -28 -12 -114 -11 -146 2 -29 12 -46 14 -97
16 -28 1 -49 5 -47 8 2 4 -3 9 -11 13 -8 3 -15 1 -15 -5 0 -6 -6 -7 -12 -2 -7
4 -29 9 -48 10 -19 2 -51 6 -70 8 -117 16 -140 16 -140 3 -1 -9 -4 -8 -10 3
-11 18 -58 30 -135 34 -84 4 -229 30 -250 44 -5 4 -23 8 -39 9 -16 1 -34 6
-41 12 -6 5 -15 7 -18 3 -4 -3 -13 0 -22 7 -21 18 -75 48 -107 61 -15 6 -30
20 -34 31 -3 11 -8 17 -11 15 -2 -3 -21 10 -41 29 -20 19 -45 37 -54 40 -10 3
-18 9 -18 13 0 8 -47 34 -63 35 -5 1 -16 10 -25 22 -9 11 -34 28 -54 38 -20 9
-40 21 -43 26 -3 6 -16 10 -27 10 -12 0 -19 3 -16 6 6 6 -27 44 -38 44 -13 0
-80 35 -98 52 -11 10 -28 18 -37 18 -10 0 -24 6 -31 13 -14 14 -114 64 -138
69 -8 2 -21 9 -28 16 -16 14 -48 16 -56 3 -4 -5 22 -27 56 -50 35 -22 102 -67
150 -100 48 -34 90 -61 93 -61 5 0 24 -15 80 -62 18 -16 37 -28 42 -28 5 0 16
-9 26 -20 9 -11 24 -20 32 -20 8 0 15 -4 15 -10 0 -5 6 -10 13 -10 7 0 24 -11
39 -25 15 -14 31 -25 35 -25 5 0 20 -11 35 -25 15 -14 30 -25 32 -25 6 0 39
-26 65 -51 37 -36 91 -70 100 -64 6 3 9 0 6 -7 -6 -15 67 -48 107 -48 27 0 98
-28 109 -43 3 -4 16 -7 30 -6 26 1 156 -15 254 -31 202 -32 240 -36 246 -28 3
5 9 4 11 -4 3 -7 21 -15 39 -16 19 -1 46 -7 61 -13 l28 -11 -24 -19 c-13 -11
-29 -19 -35 -19 -6 0 -11 -4 -11 -9 0 -5 -9 -7 -20 -4 -11 3 -20 1 -20 -3 0
-5 -21 -9 -47 -10 -26 0 -49 -6 -51 -12 -2 -7 -23 -12 -48 -12 -24 0 -44 -4
-44 -8 0 -8 -10 -10 -80 -16 -19 -2 -36 -5 -37 -6 -2 -1 -7 -4 -13 -5 -5 -1
-12 -4 -15 -5 -3 -1 -17 -2 -32 -3 -16 0 -31 -5 -34 -10 -4 -5 -28 -11 -55
-13 -26 -2 -62 -8 -79 -14 -17 -5 -56 -11 -88 -13 -31 -1 -57 -6 -57 -12 0 -5
-5 -3 -10 5 -5 8 -10 10 -10 3 0 -12 -17 -12 -37 0 -6 4 -74 9 -150 12 -146 6
-169 9 -191 31 -7 8 -17 12 -22 9 -5 -3 -11 3 -15 14 -5 16 -19 25 -48 29 -4
1 -17 11 -27 24 -17 20 -21 21 -31 8 -9 -13 -10 -13 -6 2 4 12 -6 22 -36 37
-23 12 -37 21 -32 21 6 0 -3 11 -19 25 -16 14 -32 25 -36 25 -4 0 -54 34 -111
75 -57 41 -109 75 -116 75 -7 0 -17 9 -23 21 -7 11 -26 27 -43 35 -45 21 -137
75 -175 102 -18 13 -32 20 -32 17 0 -4 -7 1 -16 9 -8 9 -22 16 -30 16 -8 0
-26 7 -40 16 -32 21 -45 9 -14 -13 13 -9 32 -25 42 -35 10 -10 20 -18 23 -18
7 0 105 -72 195 -146 77 -62 117 -91 135 -96 5 -2 9 -6 8 -10 -4 -10 66 -68
82 -68 8 0 21 -10 29 -22 9 -12 16 -19 16 -14 0 5 19 -10 41 -33 23 -23 44
-39 47 -36 3 2 12 -3 21 -13 9 -9 25 -24 35 -32 18 -13 19 -13 11 0 -5 8 3 4
18 -10 34 -32 34 -43 1 -25 -18 9 -35 10 -55 4 -91 -28 -103 -29 -136 -11 -12
7 -24 8 -27 4 -4 -7 -46 -13 -123 -16 -18 0 -33 -4 -33 -7 0 -15 -155 35 -182
59 -10 8 -18 12 -18 8 0 -4 -15 3 -32 16 -60 42 -96 58 -101 45 -4 -7 -6 -6
-6 4 -1 17 -45 52 -79 63 -12 4 -20 11 -17 16 3 5 -6 12 -20 16 -18 4 -24 11
-20 22 5 13 3 13 -12 1 -9 -8 -14 -9 -10 -3 9 16 -29 48 -48 40 -11 -4 -19 2
-25 20 -6 14 -16 24 -23 22 -7 -2 -28 12 -46 30 -19 18 -38 31 -44 29 -5 -1
-24 10 -41 26 -37 34 -81 59 -90 50 -3 -4 -6 -2 -6 4 0 12 -22 23 -64 30 -18
3 -26 1 -21 -6 3 -6 13 -11 21 -11 8 0 12 -4 9 -10 -3 -5 3 -10 15 -10 12 0
18 -4 15 -10 -6 -9 8 -14 27 -11 5 0 7 -4 5 -9 -1 -6 11 -18 28 -28 16 -9 47
-33 68 -52 21 -19 45 -39 53 -43 8 -5 32 -26 54 -47 22 -22 40 -37 40 -35 0 5
14 -7 90 -75 34 -31 77 -60 87 -61 5 0 12 -7 16 -15 5 -8 13 -11 19 -8 6 4 8
3 4 -4 -3 -5 0 -12 6 -15 7 -3 -13 -3 -44 -1 -32 2 -67 8 -78 14 -12 6 -29 8
-40 5 -12 -4 -26 1 -39 14 -12 12 -21 19 -21 17 0 -2 -22 2 -50 9 -27 7 -50
11 -50 8 0 -2 -7 3 -16 12 -10 9 -25 14 -35 12 -10 -3 -19 -1 -21 3 -2 5 -15
11 -30 14 -15 2 -33 8 -40 13 -7 4 -19 8 -27 10 -8 1 -18 8 -22 15 -5 7 -9 10
-9 6 0 -4 -16 1 -36 12 -19 11 -39 18 -45 15 -5 -4 -9 -1 -9 5 0 6 -5 8 -10 5
-5 -3 -10 -2 -10 3 0 5 -20 15 -45 22 -25 7 -45 17 -45 22 0 6 -7 8 -15 4 -8
-3 -15 -2 -15 2 0 5 -21 18 -47 30 -56 26 -77 38 -116 70 -16 12 -33 19 -39
16 -5 -3 -12 3 -15 15 -3 12 -11 21 -18 21 -7 0 -18 7 -25 15 -7 9 -19 14 -26
11 -7 -3 -16 3 -19 14 -3 10 -16 21 -28 24 -12 3 -39 21 -60 41 -21 19 -44 35
-51 35 -7 0 -23 11 -36 25 -13 14 -29 25 -35 25 -7 0 -28 14 -46 30 -31 28
-65 49 -169 106 -19 10 -37 22 -40 25 -3 3 -21 14 -40 24 -19 9 -47 28 -62 42
-14 14 -28 25 -30 24 -1 0 -14 3 -28 6 -14 4 -27 5 -29 4 -2 -2 -7 2 -11 9 -4
6 -16 12 -28 13 -11 0 -18 5 -16 9 3 5 -3 11 -13 14 -36 12 -59 21 -103 42
-25 12 -51 22 -57 22 -7 0 -13 5 -13 10 0 6 -6 10 -13 10 -7 0 -29 9 -50 20
-20 11 -41 20 -47 20 -5 0 -30 13 -56 30 -26 16 -51 27 -55 24 -5 -3 -9 -1 -9
4 0 5 -8 12 -17 15 -10 3 -29 12 -43 21 -47 27 -111 56 -125 56 -8 0 -22 11
-31 25 -9 14 -19 24 -21 21 -3 -2 -26 7 -51 20 -44 23 -47 24 -59 8 -12 -17
-13 -17 -13 -1 0 9 5 17 10 17 20 0 10 17 -18 31 -80 39 -107 55 -112 60 -3 4
-15 9 -27 13 -13 4 -23 12 -23 17 0 5 -11 9 -23 9 -13 0 -44 16 -70 36 -25 20
-50 33 -55 30 -5 -3 -17 3 -27 14 -10 11 -37 26 -59 32 -23 7 -47 20 -54 30
-7 10 -20 18 -29 18 -20 0 -163 72 -163 82 0 4 -7 8 -15 8 -9 0 -39 16 -68 35
-28 19 -57 35 -63 35 -7 0 -14 7 -18 15 -3 8 -14 15 -24 15 -11 0 -26 7 -33
16 -7 9 -25 21 -39 26 -14 6 -20 12 -12 15 19 7 14 19 -7 19 -11 0 -17 -4 -14
-9 3 -5 -14 2 -39 17 -25 14 -48 23 -53 18 -4 -4 -5 -1 -1 6 7 11 -6 17 -29
12 -5 -1 -5 4 2 11 10 10 9 15 -5 25 -9 8 -24 14 -32 14 -8 0 -23 14 -32 31
-10 17 -22 28 -27 25 -13 -8 -34 21 -27 39 3 8 1 15 -5 15 -6 0 -6 7 1 20 7
12 16 18 23 13 9 -5 9 -3 0 8 -14 17 -12 28 43 171 18 48 36 103 40 122 3 20
10 36 14 36 4 0 11 15 14 34 4 19 18 55 31 81 14 25 21 44 16 41 -5 -4 -1 11
9 31 36 74 90 205 90 220 0 20 80 188 114 237 14 21 26 48 26 59 0 11 3 17 7
13 4 -4 16 11 28 33 11 22 35 58 54 80 l34 40 45 -35 c25 -19 52 -32 60 -29z
m4382 -855 c0 -5 -5 -10 -11 -10 -5 0 -7 5 -4 10 3 6 8 10 11 10 2 0 4 -4 4
-10z m-5135 -289 c3 -5 2 -12 -3 -15 -5 -3 -9 1 -9 9 0 17 3 19 12 6z m2370
-1441 c3 -5 25 -19 48 -30 23 -10 37 -19 31 -20 -15 0 -92 38 -99 50 -3 5 -2
10 4 10 5 0 13 -4 16 -10z m1055 -524 c0 -3 -4 -8 -10 -11 -5 -3 -10 -1 -10 4
0 6 5 11 10 11 6 0 10 -2 10 -4z m198 -72 c-10 -10 -28 6 -28 24 0 15 1 15 17
-1 9 -9 14 -19 11 -23z"/>
<path d="M12071 8872 c-8 -3 -24 -15 -36 -28 -12 -13 -29 -24 -36 -24 -8 0
-31 -9 -51 -19 -19 -11 -39 -17 -42 -14 -3 4 -6 1 -6 -5 0 -6 -15 -18 -34 -27
-19 -9 -42 -25 -52 -36 -9 -10 -22 -19 -29 -19 -7 0 -20 -9 -31 -21 -25 -28
-151 -119 -156 -113 -3 2 -11 -7 -18 -21 -7 -14 -19 -25 -25 -25 -10 0 -22 -8
-71 -49 -6 -5 -24 -16 -40 -24 -16 -8 -45 -28 -65 -44 -20 -15 -45 -33 -55
-40 -17 -10 -16 -12 16 -26 25 -11 39 -12 48 -5 7 6 15 8 19 4 3 -3 1 -6 -5
-6 -7 0 -12 -3 -12 -7 0 -5 35 -8 78 -7 42 0 85 -3 94 -8 10 -5 19 -4 23 2 4
6 12 7 22 1 9 -4 31 -5 49 -1 18 4 36 5 39 2 3 -4 16 -7 28 -7 18 0 22 -6 21
-30 -2 -61 -24 -155 -36 -155 -5 0 -7 -4 -4 -8 8 -13 -16 -82 -26 -76 -4 3 -8
-2 -8 -10 0 -9 -4 -16 -10 -16 -5 0 -10 -9 -10 -19 0 -11 -6 -26 -14 -34 -11
-11 -12 -17 -3 -27 7 -8 7 -10 1 -7 -9 5 -54 -42 -54 -58 0 -3 -20 -26 -43
-50 -33 -33 -41 -47 -33 -56 8 -9 8 -10 0 -6 -6 4 -32 -15 -57 -41 -24 -26
-51 -48 -58 -50 -8 -2 -31 -22 -51 -44 -21 -23 -38 -39 -38 -35 0 4 -17 -5
-37 -19 -20 -13 -41 -23 -47 -21 -5 2 -17 -4 -26 -12 -47 -44 -83 -71 -96 -71
-8 0 -51 -18 -96 -40 -46 -22 -89 -40 -96 -40 -7 0 -10 -5 -6 -12 4 -7 3 -8
-4 -4 -6 4 -19 3 -29 -2 -38 -19 -120 -44 -158 -49 -22 -2 -46 -10 -53 -16 -8
-6 -21 -12 -31 -13 -9 -2 -32 -6 -51 -10 -19 -4 -48 -8 -65 -9 -51 -4 -55 -5
-54 -12 4 -24 -2 -43 -12 -38 -6 4 -8 14 -5 22 5 12 -9 13 -88 9 -51 -3 -97
-6 -102 -7 -5 -1 -11 0 -14 1 -3 1 -48 4 -100 6 -139 8 -148 8 -145 14 2 3
-22 7 -53 8 -85 3 -111 6 -106 14 4 7 -101 24 -123 20 -7 -2 -13 1 -13 6 0 5
-38 19 -85 33 -47 13 -85 27 -85 31 0 4 -8 8 -17 8 -10 0 -29 9 -43 20 -14 11
-32 20 -41 20 -9 0 -22 7 -29 15 -7 8 -16 13 -20 10 -5 -3 -11 -1 -15 5 -3 5
-15 10 -26 10 -22 0 -59 19 -75 39 -7 9 -16 11 -25 6 -8 -5 -11 -5 -7 0 11 12
-11 35 -28 28 -7 -3 -17 2 -20 11 -3 9 -10 13 -15 10 -5 -3 -9 -1 -9 5 0 6 -7
8 -15 5 -8 -4 -15 -1 -15 5 0 13 -70 58 -83 53 -5 -1 -6 2 -2 8 3 5 2 10 -3
10 -5 0 -26 16 -46 36 -20 20 -43 37 -51 38 -7 1 -28 14 -46 29 -18 15 -36 27
-41 27 -4 0 -8 5 -8 11 0 6 -11 20 -25 31 -14 11 -25 26 -25 33 0 8 -9 19 -20
25 -11 6 -20 17 -20 25 0 8 -16 30 -36 49 -61 60 -127 57 -196 -7 -15 -14 -29
-23 -32 -20 -2 2 -16 -3 -30 -12 -14 -9 -26 -16 -28 -14 -9 7 -48 -15 -48 -27
0 -8 -4 -14 -10 -14 -5 0 -10 4 -10 9 0 14 -98 -30 -126 -56 -13 -12 -24 -18
-24 -12 0 6 -7 6 -20 -1 -11 -6 -20 -18 -20 -28 0 -12 -3 -14 -8 -4 -6 9 -15
5 -33 -14 -22 -25 -22 -27 -4 -21 18 6 17 5 -2 -9 -24 -17 -33 -50 -10 -39 6
4 5 1 -3 -7 -21 -19 -22 -33 -2 -51 51 -48 61 -55 68 -49 4 4 4 1 0 -6 -9 -15
29 -62 50 -62 7 0 20 -7 28 -16 9 -8 16 -13 16 -10 0 4 14 -7 32 -24 17 -17
33 -28 36 -26 2 3 16 -6 31 -20 14 -13 39 -37 55 -52 16 -15 24 -19 17 -9 -8
9 -9 17 -4 17 9 0 43 -35 40 -42 -1 -1 0 -2 2 0 2 1 13 -6 24 -15 13 -12 17
-13 12 -4 -5 8 10 0 33 -19 23 -18 42 -37 42 -42 0 -4 7 -8 15 -8 9 0 18 -6
21 -14 3 -8 12 -12 20 -9 8 3 14 -1 14 -10 0 -9 5 -19 12 -23 7 -4 8 -3 4 5
-4 6 9 0 30 -14 24 -16 45 -23 58 -20 15 5 17 4 7 -3 -10 -7 -6 -13 17 -23 17
-7 29 -16 26 -20 -2 -4 7 -10 21 -13 14 -4 25 -11 25 -17 0 -6 5 -7 10 -4 6 3
10 2 10 -2 0 -5 10 -10 22 -10 13 -1 28 -10 35 -19 7 -10 13 -14 13 -8 0 5 5
2 10 -8 7 -10 18 -14 32 -11 13 3 20 2 16 -2 -9 -9 20 -34 40 -35 7 0 10 6 7
13 -4 6 0 4 8 -6 9 -10 21 -20 29 -21 26 -5 88 -35 88 -43 0 -4 14 -9 32 -9
17 -1 36 -8 42 -15 6 -8 23 -14 38 -14 15 1 24 -3 22 -7 -3 -4 11 -8 30 -8 23
0 39 -6 45 -17 6 -10 11 -13 11 -6 0 12 40 6 40 -7 0 -10 20 -8 40 4 8 5 12 5
7 1 -4 -5 7 -14 25 -20 43 -16 65 -23 56 -18 -5 3 -8 10 -8 16 1 7 10 1 20
-12 12 -14 20 -18 20 -10 0 12 2 12 9 1 4 -8 27 -15 50 -15 22 -1 41 -4 41 -7
0 -3 10 -6 23 -6 23 -2 62 -11 62 -15 0 -1 23 -3 50 -4 28 -1 66 -6 85 -10 19
-5 38 -10 43 -11 4 -1 8 -2 10 -3 1 -1 30 -4 65 -6 43 -3 62 0 62 8 0 9 2 9 8
1 9 -15 236 -28 277 -16 17 5 40 5 54 1 12 -5 28 -6 34 -2 6 3 39 7 74 8 36 1
70 8 80 16 14 12 16 12 8 0 -6 -10 -4 -12 6 -6 7 5 36 10 64 10 59 2 95 12 95
27 0 6 6 6 15 -2 11 -9 15 -9 15 -1 0 7 4 10 8 7 7 -4 60 8 195 46 20 6 37 14
37 19 0 5 7 6 15 3 8 -4 15 -1 15 5 0 6 8 11 18 11 22 0 57 24 57 39 0 6 5 10
10 9 6 -2 9 -6 8 -9 -4 -11 41 3 58 18 14 12 18 12 22 1 4 -11 6 -11 6 0 1 7
5 11 10 8 4 -3 16 3 26 14 10 11 22 20 27 20 9 0 24 11 63 48 14 13 25 20 25
17 0 -3 14 2 30 12 17 10 28 23 26 30 -3 7 -2 12 2 10 10 -3 62 39 56 46 -3 3
4 8 15 12 12 3 21 11 21 16 0 6 5 7 10 4 6 -3 10 -3 10 2 0 13 76 93 88 93 6
0 12 4 14 9 2 5 19 29 39 53 20 23 37 47 38 51 0 4 7 15 16 23 8 9 12 20 9 26
-4 7 -2 8 4 4 7 -4 12 -1 12 8 0 10 6 13 15 10 8 -4 15 -1 15 5 0 6 8 19 18
30 28 30 52 64 52 74 0 5 6 15 13 22 29 34 37 45 37 55 0 6 11 26 25 44 14 18
25 36 25 40 0 4 9 16 20 28 11 12 20 33 20 46 0 15 7 26 20 29 11 3 20 13 20
23 0 10 7 23 15 30 8 7 15 17 15 22 0 5 11 24 25 42 14 18 22 36 18 39 -3 4 0
7 7 7 7 0 10 3 7 7 -4 3 -2 12 4 19 6 8 9 20 6 29 -4 8 0 20 7 27 26 26 45 64
51 103 4 22 8 45 9 51 1 5 11 22 21 36 24 29 62 30 154 2 64 -20 82 -21 130
-10 63 15 70 42 23 82 -13 12 -21 27 -18 33 4 6 2 11 -3 11 -16 0 -53 39 -47
49 3 4 -5 14 -18 20 -22 12 -62 77 -58 94 1 4 -6 4 -15 -2 -19 -9 -37 3 -39
27 -2 29 -5 33 -14 27 -5 -3 -10 1 -10 9 0 9 -4 16 -10 16 -5 0 -21 18 -34 39
-14 22 -35 42 -47 46 -14 5 -19 13 -16 26 3 10 1 19 -4 19 -5 0 -9 -6 -9 -12
0 -7 -11 4 -26 25 -14 21 -28 35 -33 33 -4 -3 -20 21 -36 52 -28 56 -46 68
-84 54z m39 -153 c0 -5 5 -7 10 -4 6 4 9 3 8 -2 -5 -16 54 -94 85 -113 18 -11
28 -20 24 -20 -5 0 46 -54 113 -119 l121 -119 -66 -7 c-37 -4 -88 -4 -113 -1
-45 7 -91 12 -157 18 -32 3 -31 6 -21 -60 1 -8 9 -18 17 -23 11 -7 11 -9 -3
-9 -10 0 -18 -6 -19 -12 0 -7 -2 -26 -3 -43 -1 -16 -11 -50 -23 -75 -11 -25
-33 -73 -49 -107 -15 -35 -31 -63 -36 -63 -4 0 -7 -3 -6 -7 4 -21 -18 -70 -39
-87 -15 -11 -22 -24 -18 -34 3 -8 -6 -32 -20 -53 -14 -21 -25 -43 -25 -49 0
-5 -5 -10 -11 -10 -5 0 -7 -4 -4 -10 3 -5 2 -10 -2 -10 -5 0 -9 -8 -10 -19 -1
-10 -12 -30 -25 -44 -13 -14 -34 -40 -48 -57 -14 -17 -38 -44 -54 -60 -17 -17
-25 -33 -21 -41 5 -8 4 -10 -3 -5 -7 4 -12 2 -12 -3 0 -6 5 -11 11 -11 8 0 9
-4 0 -13 -6 -8 -8 -16 -6 -19 3 -3 -7 -11 -22 -17 -16 -6 -37 -25 -48 -41 -11
-17 -26 -28 -34 -25 -8 3 -11 0 -8 -9 3 -7 -7 -23 -24 -35 -16 -12 -29 -27
-29 -34 0 -7 -22 -28 -47 -47 -26 -19 -60 -49 -76 -67 -16 -17 -39 -34 -53
-37 -13 -4 -28 -15 -34 -26 -6 -11 -19 -20 -29 -20 -10 0 -29 -8 -42 -18 -13
-10 -31 -22 -39 -25 -8 -4 -35 -18 -59 -32 -24 -14 -50 -25 -58 -25 -7 0 -13
-4 -13 -10 0 -5 -9 -10 -20 -10 -11 0 -28 -4 -38 -9 -9 -5 -30 -13 -47 -18
-16 -5 -29 -14 -28 -19 0 -5 -22 -10 -49 -12 -28 -1 -57 -7 -64 -13 -8 -6 -21
-9 -29 -5 -8 3 -15 0 -15 -6 0 -6 -3 -9 -6 -5 -3 3 -24 -1 -47 -9 -22 -8 -69
-15 -104 -17 -35 -1 -63 -6 -63 -10 0 -4 -93 -5 -207 -2 -228 6 -243 7 -258
16 -5 4 -43 10 -83 13 -40 4 -79 9 -88 13 -9 3 -20 0 -25 -8 -6 -10 -9 -10 -9
-1 0 6 -7 12 -15 12 -8 0 -15 5 -15 11 0 7 -11 8 -29 4 -17 -3 -39 -2 -50 4
-11 6 -46 15 -78 21 -101 16 -128 22 -138 30 -5 4 -46 15 -90 24 -44 10 -106
27 -138 37 -31 11 -62 17 -69 13 -7 -4 -8 -3 -4 4 4 7 2 13 -3 13 -6 1 -14 3
-18 4 -37 13 -53 17 -56 14 -2 -2 -11 4 -21 14 -10 9 -23 17 -30 17 -7 0 -25
9 -40 21 -14 11 -37 22 -51 23 -14 2 -31 8 -37 14 -7 7 -18 12 -25 12 -7 0
-22 9 -34 21 -11 11 -25 19 -31 17 -6 -2 -23 7 -37 20 -14 13 -33 30 -42 38
-9 8 -21 14 -28 14 -14 0 -95 50 -99 62 -2 4 -8 6 -13 2 -5 -3 -9 0 -9 7 0 7
-3 10 -6 6 -3 -3 -17 6 -30 20 -25 27 -56 48 -86 59 -10 3 -18 10 -18 15 0 4
-18 18 -40 30 -21 12 -37 26 -34 31 3 4 1 8 -4 8 -5 0 -21 11 -35 25 -14 14
-34 27 -45 30 -23 4 -66 45 -76 71 -5 14 -9 15 -15 5 -6 -9 -10 -7 -14 9 -4
14 -10 19 -18 14 -7 -4 -10 -3 -5 4 3 5 0 13 -6 15 -12 5 25 11 45 8 4 0 7 3
7 9 0 5 18 13 40 16 22 4 37 10 34 15 -3 5 6 9 20 9 14 0 26 5 26 11 0 6 7 9
15 5 9 -3 15 0 15 9 0 8 10 13 28 13 15 0 51 9 80 21 29 11 62 21 74 21 25 0
71 -47 62 -63 -4 -7 -4 -9 0 -5 5 4 25 -14 46 -40 70 -85 99 -111 190 -172 36
-24 73 -51 83 -62 10 -10 26 -18 36 -18 10 0 28 -9 41 -20 13 -11 32 -20 42
-20 11 0 16 -5 13 -10 -6 -10 29 -28 69 -36 11 -2 22 -7 25 -11 7 -10 62 -37
77 -38 6 0 19 -6 28 -14 9 -8 19 -11 22 -8 3 3 23 -3 45 -15 21 -11 50 -21 63
-22 14 -2 32 -8 39 -15 8 -6 17 -8 20 -5 3 4 21 -2 39 -13 18 -11 43 -19 55
-18 12 1 20 -2 17 -7 -4 -6 6 -8 22 -7 16 2 34 0 40 -3 5 -4 19 -5 30 -4 10 2
25 -1 32 -7 8 -6 12 -6 12 3 0 9 4 9 13 3 12 -10 51 -22 92 -29 127 -20 223
-25 228 -10 3 7 9 6 18 -3 12 -12 12 -13 0 -6 -9 5 -12 4 -8 -2 6 -10 104 -9
114 1 3 2 18 0 34 -6 21 -7 36 -6 59 5 17 9 28 12 25 7 -3 -4 2 -10 10 -14 8
-3 17 -1 21 5 3 6 12 8 20 5 7 -3 16 -1 19 5 4 5 10 7 15 4 12 -8 41 6 34 16
-3 5 1 9 10 9 8 0 16 -4 18 -10 2 -6 18 -5 43 1 22 6 48 10 57 10 10 0 20 5
24 10 4 6 11 6 20 -2 11 -9 15 -8 19 3 3 8 19 15 35 16 16 0 44 7 62 16 18 8
59 22 91 32 31 10 57 21 57 26 0 4 8 8 17 8 24 0 86 23 102 38 7 7 26 16 42
19 16 3 34 12 40 19 6 8 18 14 25 14 8 0 14 4 14 8 0 5 18 17 40 27 22 10 40
22 40 27 0 4 7 8 15 8 8 0 15 5 15 11 0 5 4 8 9 4 5 -3 22 6 37 20 15 14 30
25 33 25 12 0 60 47 54 54 -3 3 -1 7 5 7 25 3 29 5 45 21 10 9 26 20 37 23 11
4 18 10 15 15 -3 5 1 10 7 13 10 4 11 7 1 18 -7 7 -13 18 -13 24 0 5 5 2 11
-8 11 -18 12 -18 29 1 11 11 23 22 27 23 13 6 73 86 73 97 0 5 7 15 15 22 8 7
12 16 9 21 -3 5 -1 9 4 9 11 0 89 138 94 165 2 11 9 25 17 31 8 7 12 21 9 37
-3 15 -2 27 2 27 10 0 32 57 36 94 1 16 6 41 9 55 4 14 8 42 10 61 1 19 5 44
7 55 7 27 -18 42 -64 40 -21 -1 -38 1 -38 4 0 3 -35 6 -78 6 -42 -1 -85 1 -95
3 -22 6 -17 24 8 28 10 2 22 10 27 18 5 8 14 13 21 10 7 -2 24 7 36 20 13 14
28 23 33 20 5 -3 23 5 41 18 18 12 50 32 72 43 49 24 88 62 78 78 -3 7 3 4 14
-6 20 -18 22 -18 45 5 22 22 114 76 131 77 4 1 7 -4 7 -10z m-250 -103 c0 -3
-4 -8 -10 -11 -5 -3 -10 -1 -10 4 0 6 5 11 10 11 6 0 10 -2 10 -4z m-1083
-1328 c-3 -8 -6 -5 -6 6 -1 11 2 17 5 13 3 -3 4 -12 1 -19z m-30 -3 c0 -8 -4
-15 -9 -15 -10 0 -11 14 -1 23 9 10 10 9 10 -8z"/>
<path d="M17395 8680 c-3 -6 1 -7 9 -4 18 7 21 14 7 14 -6 0 -13 -4 -16 -10z"/>
<path d="M3070 8646 c0 -2 7 -7 16 -10 8 -3 12 -2 9 4 -6 10 -25 14 -25 6z"/>
</g>
</svg>
