<?xml version="1.0" standalone="no"?>
<!DOCTYPE svg PUBLIC "-//W3C//DTD SVG 20010904//EN"
 "http://www.w3.org/TR/2001/REC-SVG-20010904/DTD/svg10.dtd">
<svg version="1.0" xmlns="http://www.w3.org/2000/svg"
 width="2048.000000pt" height="2048.000000pt" viewBox="0 0 2048.000000 2048.000000"
 preserveAspectRatio="xMidYMid meet">

<g transform="translate(0.000000,2048.000000) scale(0.100000,-0.100000)"
fill="#000000" stroke="none">
<path d="M9461 19538 c-1 -14 -6 -16 -23 -9 -23 8 -75 -1 -115 -21 -11 -6 -26
-8 -31 -4 -6 3 -14 2 -17 -4 -5 -8 -11 -8 -20 0 -10 9 -20 7 -38 -5 -24 -15
-26 -15 -35 1 -6 11 -11 13 -16 5 -4 -6 -17 -11 -29 -11 -18 0 -19 -2 -7 -10
19 -12 4 -13 -38 -1 -17 5 -32 7 -32 3 0 -4 -10 -12 -23 -18 -18 -8 -26 -6
-42 8 -21 20 -35 23 -35 8 0 -5 -7 -10 -15 -10 -8 0 -15 4 -15 9 0 10 -50 2
-65 -10 -12 -9 -55 -6 -73 5 -7 4 -12 2 -12 -3 0 -6 -8 -10 -17 -9 -53 4 -113
-4 -126 -17 -13 -13 -16 -13 -21 0 -5 15 -35 10 -46 -7 -4 -4 -27 -8 -53 -9
-26 -1 -47 -5 -47 -9 0 -11 -34 -7 -47 6 -9 8 -24 9 -50 4 -20 -5 -40 -7 -44
-4 -4 2 -11 -1 -15 -7 -3 -6 -19 -9 -35 -5 -22 4 -29 2 -29 -9 0 -8 -4 -16
-10 -16 -20 -3 -25 -4 -39 -13 -8 -5 -48 -11 -88 -12 -40 -2 -78 -6 -83 -9 -6
-3 -10 2 -10 11 0 16 -1 16 -12 2 -14 -17 -98 -34 -208 -43 -108 -8 -114 -9
-133 -27 -21 -18 -82 -32 -98 -23 -6 4 -19 -1 -29 -10 -10 -9 -24 -14 -29 -10
-6 3 -11 0 -11 -8 0 -10 -7 -13 -20 -10 -11 3 -20 0 -20 -6 0 -8 -5 -9 -19 -2
-10 6 -21 7 -25 4 -3 -4 -16 -7 -29 -9 -12 -1 -33 -5 -47 -8 -14 -4 -38 -7
-55 -8 -16 0 -36 -5 -42 -10 -7 -6 -24 -7 -38 -4 -18 5 -25 2 -25 -7 0 -10 -8
-13 -25 -9 -16 3 -33 -2 -45 -13 -11 -10 -28 -15 -40 -12 -11 3 -20 1 -20 -5
0 -5 -8 -7 -19 -3 -10 3 -29 1 -42 -4 -13 -5 -18 -10 -10 -10 11 -1 11 -4 1
-16 -16 -19 -30 -19 -30 1 0 11 -6 14 -22 8 -25 -7 -39 -24 -32 -36 5 -7 -21
-12 -56 -10 -8 0 -17 -4 -21 -9 -3 -6 -29 -12 -58 -14 -28 -3 -60 -9 -69 -14
-9 -4 -23 -6 -29 -4 -7 3 -25 -9 -40 -25 -16 -17 -41 -34 -58 -38 -16 -4 -33
-12 -37 -18 -6 -8 -11 -7 -17 2 -6 11 -9 10 -15 -3 -4 -11 -12 -14 -26 -10
-13 4 -22 1 -26 -9 -3 -9 -14 -16 -24 -16 -11 0 -22 -5 -25 -11 -4 -6 -14 -8
-22 -5 -18 7 -83 -19 -83 -33 0 -6 -11 -11 -25 -11 -14 0 -25 5 -25 11 0 6
-20 -10 -45 -35 -40 -40 -85 -58 -85 -34 0 4 -4 8 -10 8 -5 0 -9 -5 -7 -12 1
-6 -11 -16 -28 -21 -16 -5 -41 -15 -55 -21 -14 -7 -36 -11 -50 -10 -15 1 -31
-7 -43 -22 -10 -13 -23 -22 -27 -19 -5 3 -18 -3 -30 -15 -11 -11 -29 -20 -40
-20 -13 0 -20 -7 -20 -20 0 -24 -15 -26 -24 -4 -6 15 -8 15 -27 -2 -12 -11
-29 -18 -38 -16 -9 1 -33 -13 -53 -32 -21 -19 -38 -31 -38 -25 0 5 -4 9 -10 9
-5 0 -7 -6 -4 -13 3 -9 -8 -13 -38 -14 -23 -1 -44 -7 -46 -12 -2 -6 -12 -11
-23 -11 -10 0 -19 -5 -19 -11 0 -5 5 -7 10 -4 6 3 10 1 10 -4 0 -6 -7 -11 -15
-11 -8 0 -15 -5 -15 -11 0 -6 -7 -9 -15 -5 -8 3 -15 1 -15 -4 0 -5 -13 -16
-30 -25 -16 -9 -30 -21 -30 -29 0 -7 -10 -12 -22 -12 -13 1 -22 -3 -21 -9 1
-5 -10 -11 -24 -11 -13 -1 -35 -11 -47 -23 -12 -12 -27 -21 -32 -21 -6 0 -21
-12 -35 -26 -34 -37 -79 -60 -119 -63 -11 0 -20 -7 -20 -15 0 -8 -7 -17 -16
-20 -9 -4 -14 -13 -10 -21 4 -11 -2 -15 -24 -15 -19 0 -30 -5 -30 -13 0 -16
-33 -49 -46 -46 -21 4 -28 -2 -14 -11 12 -8 11 -10 -6 -10 -12 0 -33 -9 -47
-20 -14 -11 -29 -20 -34 -20 -12 0 -98 -92 -96 -102 2 -4 -4 -5 -12 -2 -8 4
-15 1 -15 -5 0 -22 -45 -80 -67 -86 -12 -3 -25 -14 -28 -25 -4 -12 -15 -20
-29 -20 -16 0 -32 -13 -51 -40 -17 -24 -34 -39 -42 -36 -7 3 -13 0 -13 -6 0
-20 -31 -47 -47 -41 -9 4 -16 -2 -20 -15 -3 -11 -11 -23 -19 -26 -10 -4 -13
-15 -9 -33 4 -21 3 -23 -3 -9 -7 17 -14 12 -51 -39 -23 -33 -44 -69 -47 -82
-3 -12 -15 -25 -25 -28 -11 -4 -17 -11 -14 -16 4 -5 0 -9 -7 -9 -7 0 -20 -15
-29 -33 -8 -17 -27 -38 -42 -45 -15 -7 -34 -28 -43 -47 -9 -19 -21 -35 -26
-35 -5 0 -6 -5 -3 -10 4 -6 -3 -27 -14 -46 -12 -19 -21 -39 -21 -44 0 -15 -33
-49 -42 -44 -4 3 -18 -4 -30 -15 -16 -16 -23 -36 -26 -82 -3 -39 -8 -56 -13
-48 -5 8 -6 22 -3 32 3 9 1 17 -5 17 -6 0 -11 -19 -11 -41 0 -32 -6 -47 -25
-65 -14 -13 -25 -29 -25 -36 0 -7 -11 -25 -25 -40 -27 -29 -31 -48 -14 -65 8
-8 5 -13 -10 -18 -13 -4 -21 -15 -21 -30 0 -12 -12 -36 -27 -53 -45 -49 -57
-73 -41 -83 10 -7 10 -9 -2 -10 -8 -1 -18 -1 -22 0 -5 0 -8 -5 -8 -13 0 -8 -6
-17 -12 -19 -10 -4 -10 -7 0 -15 10 -7 10 -11 -1 -21 -9 -6 -15 -31 -15 -58
-1 -25 -6 -49 -11 -53 -6 -3 -17 -22 -25 -41 -8 -20 -22 -42 -31 -49 -16 -13
-48 -75 -49 -95 -1 -5 -5 -13 -11 -17 -5 -4 0 -8 13 -8 12 0 22 -4 22 -10 0
-5 -4 -10 -10 -10 -5 0 -10 -7 -10 -15 0 -8 -8 -15 -17 -15 -16 -1 -16 -2 2
-16 17 -13 18 -16 5 -24 -13 -8 -12 -10 4 -10 14 0 16 -3 8 -13 -6 -7 -9 -29
-8 -50 2 -22 -2 -41 -10 -48 -8 -6 -14 -21 -14 -33 0 -12 -4 -26 -10 -32 -5
-5 -11 -19 -13 -31 -2 -13 -6 -25 -9 -29 -4 -3 -4 -12 -1 -20 3 -8 0 -21 -7
-29 -10 -12 -10 -22 -2 -40 9 -19 8 -26 -4 -36 -14 -12 -14 -14 2 -26 10 -7
14 -13 8 -13 -5 0 -3 -4 4 -9 11 -7 10 -17 -7 -54 -23 -51 -26 -61 -11 -52 5
3 8 0 5 -7 -2 -7 -6 -55 -8 -105 -3 -86 -2 -93 16 -93 14 0 17 -3 10 -12 -6
-7 -9 -26 -7 -43 10 -108 18 -155 24 -155 4 0 10 -7 14 -15 3 -8 2 -14 -2 -14
-18 3 -20 -3 -11 -33 36 -117 44 -152 53 -223 1 -11 8 -30 14 -41 6 -12 9 -24
6 -27 -3 -3 5 -3 18 0 21 6 22 5 9 -10 -12 -15 -11 -17 3 -17 9 0 16 -4 16
-10 0 -5 -10 -10 -22 -10 -17 0 -19 -3 -10 -12 10 -10 17 -10 32 0 11 7 20 8
20 3 0 -6 -5 -13 -10 -16 -14 -9 -12 -42 3 -49 8 -3 6 -9 -7 -20 -11 -9 -16
-19 -13 -23 4 -4 13 -1 19 5 15 15 31 15 26 0 -3 -7 11 -28 29 -47 18 -19 33
-46 33 -59 0 -15 4 -21 12 -16 8 5 9 2 5 -10 -6 -15 7 -55 46 -136 7 -14 20
-31 30 -39 11 -8 17 -21 14 -32 -3 -10 1 -20 9 -23 8 -3 14 -1 14 5 0 5 13 0
30 -12 16 -12 27 -26 24 -31 -3 -4 2 -11 10 -14 11 -4 14 -13 9 -32 -5 -22 -3
-24 15 -20 13 4 19 2 16 -6 -2 -6 11 -30 31 -51 19 -22 38 -48 41 -58 3 -11
12 -16 20 -13 9 3 14 -1 14 -14 0 -11 6 -20 13 -20 8 0 7 -3 -3 -10 -18 -11
-9 -22 23 -24 15 0 23 -6 20 -13 -3 -8 3 -13 14 -13 10 0 24 -9 31 -20 7 -12
17 -18 22 -15 6 3 10 -1 10 -9 0 -9 5 -16 10 -16 6 0 10 -14 10 -31 0 -25 3
-29 13 -20 21 17 65 -8 73 -42 7 -33 29 -45 55 -29 15 10 18 7 24 -18 4 -17
13 -30 20 -30 7 0 16 -7 19 -16 3 -8 10 -12 16 -9 5 3 10 -1 10 -10 0 -10 5
-13 12 -9 6 4 8 3 5 -3 -10 -15 16 -44 40 -46 20 -1 39 -34 28 -46 -3 -2 -5 1
-5 7 0 7 -7 12 -15 12 -8 0 -15 -4 -15 -10 0 -5 4 -10 9 -10 5 0 22 -5 38 -11
15 -6 30 -11 33 -11 3 0 13 -4 24 -10 13 -7 21 -6 28 3 7 10 8 5 3 -14 -3 -18
-2 -26 4 -23 5 4 13 1 17 -5 3 -6 19 -9 35 -5 26 5 29 3 29 -19 0 -17 6 -25
18 -25 27 0 63 -37 55 -58 -6 -15 -5 -15 10 -4 21 17 37 8 30 -18 -4 -14 0
-20 10 -20 9 0 18 8 20 18 4 14 5 14 6 1 1 -20 54 -44 77 -35 10 4 23 -3 36
-19 11 -14 23 -25 28 -25 5 0 21 -11 36 -25 15 -14 35 -25 43 -24 22 3 72 -12
95 -27 14 -9 23 -10 32 -3 9 8 17 3 29 -15 18 -27 50 -35 57 -14 3 8 17 1 37
-20 18 -17 39 -32 46 -32 8 0 17 -5 20 -10 4 -6 16 -8 27 -4 17 5 20 3 14 -11
-5 -14 -2 -16 15 -12 13 4 26 -1 37 -14 18 -20 52 -26 52 -8 0 6 5 9 11 7 6
-2 10 -8 9 -13 -2 -13 90 -36 117 -29 15 4 25 0 33 -15 7 -15 20 -21 43 -21
18 0 38 -5 45 -12 9 -9 12 -9 12 3 1 10 3 10 11 -3 5 -10 19 -18 29 -18 11 0
20 -4 20 -10 0 -5 9 -10 20 -10 11 0 20 -4 20 -10 0 -5 22 -10 48 -10 42 0 51
-4 62 -25 12 -23 19 -25 87 -25 42 0 73 4 73 10 0 6 5 10 10 10 6 0 10 -7 10
-15 0 -8 5 -15 10 -15 6 0 13 7 16 15 4 8 11 15 16 15 6 0 8 -6 5 -14 -3 -7 0
-19 6 -25 15 -15 44 -14 50 2 4 9 6 9 6 -1 1 -7 6 -10 12 -6 9 5 10 -1 5 -20
-6 -25 -5 -27 16 -20 34 11 79 13 72 3 -3 -5 7 -14 21 -21 22 -10 28 -9 36 3
6 10 9 10 9 2 0 -9 18 -13 55 -13 30 0 55 -3 55 -8 0 -4 33 -8 74 -9 40 0 84
-7 97 -14 37 -20 97 -30 177 -29 40 1 78 -2 85 -7 6 -4 14 -8 17 -8 3 -1 23
-9 45 -19 31 -14 70 -18 177 -18 90 -1 139 -5 141 -12 3 -7 20 -13 38 -14 18
-1 35 -5 37 -7 3 -2 14 1 25 6 16 9 22 8 29 -5 7 -13 13 -14 23 -6 10 8 16 7
22 -5 9 -16 43 -11 43 6 0 5 5 9 10 9 6 0 10 -7 10 -15 0 -18 21 -20 38 -3 9
9 13 7 18 -6 4 -11 17 -16 38 -15 17 0 53 -4 81 -9 37 -8 52 -7 57 1 6 9 8 9
8 0 0 -9 19 -13 63 -13 36 0 68 -5 75 -12 9 -9 12 -8 12 5 0 9 7 17 15 17 18
0 20 -16 3 -23 -7 -3 5 -5 27 -6 94 -2 149 -8 152 -17 2 -7 88 -11 88 -3 0 8
115 12 123 4 3 -2 18 3 34 11 17 9 32 13 35 10 3 -3 -1 -8 -10 -12 -23 -9 -9
-34 20 -34 13 0 22 4 19 8 -2 4 10 8 29 8 19 0 32 -3 30 -7 -6 -8 122 -2 137
7 7 5 8 3 3 -6 -6 -10 -2 -11 17 -7 15 4 32 1 44 -8 29 -22 80 -19 104 7 16
18 23 20 29 9 7 -10 10 -11 16 0 6 9 11 6 17 -11 8 -22 11 -22 96 -16 l88 7
13 -38 c7 -21 19 -45 26 -53 7 -8 18 -35 25 -60 15 -58 34 -100 59 -129 11
-13 18 -28 15 -32 -3 -5 0 -9 5 -9 6 0 11 -9 11 -20 0 -11 5 -20 10 -20 6 0
10 -6 10 -14 0 -9 7 -12 20 -9 22 6 26 -7 8 -25 -9 -9 -8 -12 6 -12 13 0 16
-5 11 -20 -3 -11 -3 -25 2 -32 7 -13 9 -18 11 -50 1 -11 10 -18 22 -18 15 0
20 -7 20 -28 0 -15 5 -33 10 -38 6 -6 13 -23 16 -39 7 -37 32 -85 48 -91 8 -3
12 -14 9 -25 -3 -11 2 -28 11 -38 20 -22 62 -104 70 -137 4 -13 11 -24 16 -24
6 0 10 -8 10 -18 0 -10 11 -42 25 -70 14 -29 25 -61 25 -72 0 -12 9 -24 23
-30 12 -5 16 -9 10 -9 -18 -1 -16 -36 2 -51 8 -7 15 -23 15 -36 0 -16 8 -27
23 -33 22 -8 42 -42 49 -81 2 -8 5 -17 8 -20 4 -3 12 -24 18 -47 7 -24 17 -43
22 -43 6 0 10 -5 10 -11 0 -6 11 -25 24 -42 31 -42 59 -104 52 -115 -3 -4 21
-36 53 -70 32 -33 69 -82 81 -107 12 -26 29 -49 37 -52 14 -5 53 23 53 38 0
13 62 109 71 109 4 0 9 -3 12 -7 2 -5 3 -3 1 3 -1 6 5 18 14 27 31 29 42 46
42 65 0 10 3 22 8 26 4 4 7 11 8 14 2 17 21 51 56 101 23 33 38 66 38 83 0 17
4 27 10 23 6 -3 10 2 10 11 0 35 33 93 57 99 16 4 23 13 23 29 0 13 7 29 15
36 21 17 19 50 -2 50 -13 0 -11 4 7 13 16 8 25 21 24 35 0 12 3 22 8 22 4 0 8
6 8 13 0 7 9 30 20 52 11 22 20 45 20 52 0 7 5 13 10 13 6 0 10 7 10 15 0 18
57 133 78 157 8 10 12 24 9 32 -3 8 -3 16 1 18 15 6 53 70 56 91 4 33 17 58
27 51 5 -3 4 7 -1 21 -13 35 -13 35 9 35 11 0 23 5 27 11 6 11 8 22 12 87 1
13 7 20 12 17 6 -3 10 -2 10 4 0 5 -4 13 -10 16 -16 10 -12 25 8 25 25 1 48
21 55 52 4 15 13 33 20 40 16 17 67 131 67 150 0 9 9 27 20 41 11 14 20 30 20
36 0 5 5 21 12 35 11 25 13 26 102 23 82 -2 91 0 88 15 -2 13 2 16 14 11 11
-4 22 1 30 12 13 18 14 17 14 -8 0 -22 5 -27 37 -33 26 -5 45 -2 68 10 18 10
38 14 50 10 12 -5 16 -4 11 4 -4 7 -2 10 6 7 29 -10 98 -13 98 -4 0 6 8 5 20
-1 11 -6 20 -7 20 -3 0 13 59 11 64 -3 6 -15 43 -7 50 11 2 7 -2 16 -10 19 -8
3 -14 10 -14 16 0 6 12 2 28 -8 22 -16 35 -19 70 -12 23 4 45 4 48 -1 2 -4 11
-6 19 -3 8 3 19 3 26 -1 20 -13 89 -12 89 0 0 12 32 15 157 15 28 0 55 4 58
10 3 5 33 10 66 10 40 0 59 4 59 13 0 9 2 9 8 1 5 -9 22 -9 62 -2 30 5 67 9
82 9 17 -1 32 7 42 21 13 18 16 19 16 5 0 -10 8 -17 20 -17 11 0 20 7 20 15 0
20 10 19 25 -2 13 -17 14 -17 33 0 14 13 22 15 27 7 5 -8 11 -6 20 7 10 14 16
15 27 5 10 -8 24 -9 48 -2 18 5 37 7 41 4 5 -3 9 1 9 9 0 13 19 15 110 13 61
0 110 1 110 4 0 3 15 4 33 2 21 -2 53 6 88 22 55 25 162 38 187 22 6 -3 13 -2
17 4 3 5 17 10 31 10 14 0 41 7 62 16 20 8 66 16 102 18 36 1 71 5 77 9 7 5
29 8 50 7 67 -1 114 8 134 26 16 14 23 15 45 6 36 -17 44 -15 41 11 -2 17 3
22 23 23 45 1 50 4 50 26 0 20 1 20 18 5 24 -21 32 -21 32 0 0 13 3 14 12 5 7
-7 40 -12 79 -12 60 0 70 3 87 25 14 18 28 24 53 23 19 0 51 9 72 21 21 11 44
21 52 21 8 0 15 6 15 13 0 7 18 13 47 15 31 2 55 10 69 23 13 12 27 18 32 15
18 -11 112 14 112 30 0 16 16 19 25 4 10 -16 33 -12 55 10 12 12 26 17 37 13
12 -5 15 -2 10 10 -5 14 -2 16 18 11 15 -4 25 -2 25 5 0 6 11 11 24 11 15 0
27 7 31 18 6 21 55 48 55 32 0 -21 41 -9 52 14 9 20 16 24 38 19 15 -3 31 0
34 6 4 6 16 11 26 11 10 0 24 8 30 18 10 14 11 14 7 1 -4 -13 -1 -15 14 -12
10 3 19 13 19 22 0 12 2 13 8 3 6 -9 13 -7 30 8 11 11 26 20 31 20 5 0 19 12
30 26 11 14 25 23 31 19 16 -10 78 14 83 33 4 15 5 15 6 -1 0 -10 7 -17 14
-14 6 2 11 14 9 25 -4 25 1 26 28 12 15 -8 17 -6 13 8 -5 20 22 48 52 54 11 2
21 10 21 18 1 8 2 18 3 22 0 4 15 3 31 -2 23 -7 30 -5 30 6 0 8 6 13 13 12 6
-2 11 4 10 12 -3 15 11 20 64 23 12 0 20 4 17 8 -2 4 10 10 27 14 24 5 28 10
19 19 -10 8 -14 8 -17 -1 -3 -7 -8 -13 -13 -13 -4 0 -3 11 3 24 7 14 14 24 17
24 23 -2 38 6 54 29 11 14 14 23 8 19 -8 -4 -10 -2 -6 8 3 8 11 13 19 10 7 -3
15 2 19 11 4 10 12 15 21 11 9 -3 15 -1 14 7 -5 41 1 48 34 42 30 -6 34 -4 47
29 7 20 19 36 26 36 7 0 14 6 17 13 3 9 9 9 26 -1 20 -12 21 -11 15 13 -4 18
-2 27 10 31 9 3 16 13 16 21 0 8 4 12 9 8 6 -3 15 4 21 15 6 11 17 20 25 20 8
0 15 7 15 16 0 8 4 12 10 9 5 -3 19 -1 31 6 17 9 19 13 8 20 -10 6 -11 9 -1 9
6 0 12 10 13 23 0 12 3 16 6 9 5 -14 53 47 53 67 0 6 9 15 20 21 11 6 20 19
20 30 0 12 5 17 14 14 8 -3 17 0 22 7 4 7 2 15 -4 17 -19 6 -14 19 9 25 12 3
18 10 15 15 -9 14 39 42 63 37 17 -3 20 0 16 18 -4 14 2 32 16 49 24 30 69
134 69 161 0 10 5 15 10 12 6 -4 10 5 10 21 0 17 12 38 34 59 26 24 32 35 23
44 -14 14 -2 14 23 1 13 -7 21 -7 25 0 3 5 0 10 -9 10 -21 0 -25 23 -7 37 14
10 14 13 -2 30 -23 27 -10 36 21 15 15 -9 23 -12 19 -5 -4 6 -1 14 5 17 7 3 4
4 -6 3 -10 -1 -21 4 -24 12 -3 8 0 11 7 7 6 -4 11 -1 11 8 0 8 -6 17 -12 19
-7 3 -4 6 8 6 21 1 53 46 41 58 -4 3 -1 13 5 21 7 8 11 27 10 42 -1 16 11 67
26 114 20 57 26 88 19 95 -7 7 -6 15 1 24 6 7 13 57 14 110 2 64 7 97 14 97 7
0 14 14 16 30 3 17 1 30 -4 30 -4 0 -8 9 -8 20 0 11 5 20 11 20 5 0 7 5 3 12
-4 6 -6 36 -5 65 2 36 -3 62 -16 83 -17 29 -17 33 -2 59 10 17 13 34 8 42 -4
7 -5 25 -2 40 3 15 0 30 -6 33 -6 4 -8 18 -5 32 4 14 2 24 -4 24 -6 0 -9 12
-7 26 1 14 -3 28 -10 30 -7 3 -11 13 -8 23 2 10 -4 33 -14 52 -14 25 -17 43
-12 69 4 19 6 37 3 39 -2 2 -4 -1 -4 -7 0 -7 -4 -12 -9 -12 -4 0 -6 11 -4 24
3 16 10 23 19 19 8 -3 14 0 14 6 0 6 -4 11 -10 11 -5 0 -9 17 -8 38 1 36 -28
122 -42 122 -3 0 -19 23 -35 50 -16 28 -32 50 -36 50 -4 0 -7 23 -6 51 0 33
-5 54 -14 60 -12 8 -12 11 1 20 11 8 12 12 3 16 -7 2 -13 12 -13 20 0 9 -6 13
-15 10 -8 -4 -17 -2 -20 3 -4 6 -1 10 5 10 12 0 -11 40 -52 87 -15 19 -25 40
-22 48 4 9 -3 19 -20 26 -23 11 -24 13 -10 24 15 10 15 14 -2 44 -11 19 -25
44 -32 58 -8 13 -20 27 -28 30 -8 3 -11 9 -8 14 3 5 0 9 -5 9 -6 0 -11 11 -11
25 0 29 -26 35 -34 8 -2 -10 -4 5 -4 32 0 28 0 58 -1 68 -1 17 -34 52 -50 52
-10 0 -35 25 -44 45 -19 38 -34 59 -39 55 -3 -3 -4 5 -3 19 2 13 -5 33 -15 44
-10 10 -20 27 -22 38 -1 10 -13 21 -26 24 -21 5 -31 17 -63 77 -7 13 -20 25
-30 28 -9 3 -20 17 -23 30 -4 14 -19 39 -34 57 -15 18 -39 50 -52 70 -14 21
-30 38 -36 38 -7 0 -11 8 -10 18 0 9 -6 17 -14 18 -27 2 -50 16 -50 30 0 8 -8
14 -17 14 -10 0 -31 18 -47 40 -17 22 -38 40 -49 40 -11 0 -21 9 -24 21 -3 12
-17 22 -32 25 -18 4 -31 15 -38 35 -6 16 -19 29 -28 29 -9 0 -13 5 -10 10 13
21 -150 159 -190 161 -11 0 -14 3 -7 6 6 2 10 9 7 13 -3 5 -12 7 -20 4 -16 -6
-37 11 -48 39 -6 15 -25 22 -50 18 -5 -1 -6 3 -3 7 10 16 -46 67 -69 64 -12
-2 -28 4 -35 12 -7 9 -16 16 -20 16 -4 0 -22 14 -40 30 -18 17 -38 30 -46 30
-7 0 -18 9 -24 21 -7 11 -18 18 -25 15 -7 -2 -21 4 -31 15 -10 11 -26 18 -36
16 -10 -3 -19 2 -23 12 -2 9 -13 21 -24 26 -10 6 -35 18 -55 29 -20 10 -36 23
-36 28 0 5 5 6 10 3 6 -3 10 -1 10 4 0 6 -6 11 -13 11 -8 0 -27 7 -44 15 -16
8 -39 13 -51 10 -14 -2 -22 1 -22 11 0 8 -4 14 -10 14 -5 0 -10 -4 -10 -10 0
-5 -16 6 -36 25 -20 19 -44 35 -54 35 -11 0 -25 9 -32 19 -14 20 -14 20 -26 0
-15 -23 -30 -25 -28 -2 0 10 -10 19 -29 24 -16 5 -35 16 -42 25 -6 9 -16 13
-22 10 -6 -4 -17 4 -26 17 -9 15 -24 23 -38 22 -12 -1 -35 5 -52 13 -31 16
-36 18 -69 20 -12 1 -16 7 -12 17 3 8 1 15 -4 15 -6 0 -10 -5 -10 -10 0 -21
-54 0 -89 34 -27 27 -42 34 -59 29 -16 -4 -30 1 -45 15 -12 12 -38 23 -57 26
-42 5 -86 21 -94 34 -3 6 -15 8 -26 5 -14 -4 -20 0 -20 12 0 15 -2 15 -16 4
-10 -8 -18 -9 -22 -2 -4 6 -18 14 -32 18 -14 4 -39 21 -57 37 -19 19 -38 28
-47 25 -9 -3 -21 -1 -28 6 -7 7 -35 13 -62 14 -27 1 -52 7 -56 13 -4 6 -14 8
-22 5 -9 -4 -19 -2 -22 4 -4 6 -13 8 -22 4 -9 -3 -14 0 -12 7 2 8 -8 19 -22
26 -21 12 -25 11 -28 -1 -2 -8 -7 -15 -12 -15 -11 0 -31 26 -24 32 3 3 -7 9
-22 12 -18 5 -30 3 -35 -6 -7 -10 -9 -8 -9 5 0 14 -5 17 -20 12 -11 -4 -29 0
-42 9 -12 9 -35 16 -50 16 -16 0 -28 5 -28 11 0 6 -9 8 -20 4 -12 -4 -27 -2
-35 5 -7 6 -19 10 -27 9 -7 -2 -33 1 -58 6 -25 4 -52 9 -60 10 -9 0 -21 4 -28
9 -7 4 -19 3 -27 -4 -10 -8 -15 -8 -20 0 -4 6 -13 9 -21 6 -8 -3 -14 1 -14 9
0 8 -6 12 -14 9 -7 -3 -20 1 -27 8 -8 7 -36 14 -63 15 -27 1 -52 6 -55 12 -4
6 -18 12 -31 13 -14 2 -27 6 -30 10 -7 9 -85 21 -120 19 -46 -3 -155 21 -167
37 -11 13 -13 13 -19 -1 -3 -9 -11 -14 -16 -11 -6 4 -44 7 -85 8 -48 1 -77 7
-82 15 -5 7 -11 12 -15 12 -24 -3 -36 1 -36 13 0 9 -7 12 -20 9 -12 -3 -29 2
-40 12 -11 10 -20 14 -20 8 0 -6 -20 -8 -50 -5 -44 4 -50 2 -50 -14 0 -15 -2
-16 -9 -5 -5 8 -14 10 -21 6 -8 -5 -11 -4 -7 2 4 6 -12 10 -40 12 -26 1 -49 5
-53 9 -10 16 -43 23 -50 11 -6 -8 -13 -8 -29 0 -12 7 -46 13 -76 13 -30 1 -55
5 -55 9 0 4 -15 3 -32 -2 -43 -12 -68 -12 -49 0 9 6 -1 10 -32 12 -25 2 -43 1
-40 -3 7 -13 -22 -9 -35 4 -9 9 -16 7 -31 -6 -18 -17 -61 -15 -61 2 0 4 -11 7
-25 7 -14 0 -25 -3 -25 -7 0 -5 -8 -8 -17 -8 -15 0 -16 2 -3 10 12 8 11 10 -7
10 -12 0 -25 5 -28 11 -5 7 -13 5 -25 -6 -16 -15 -19 -15 -34 1 -14 13 -19 14
-33 2 -12 -9 -17 -10 -20 -2 -2 7 -13 9 -25 7 -11 -3 -24 0 -28 7 -4 7 -32 13
-69 14 -33 0 -61 4 -61 9 0 11 -38 8 -46 -4 -3 -6 -19 -9 -34 -6 -15 3 -32 1
-37 -4 -6 -6 -26 -6 -58 1 -27 6 -55 8 -63 5 -9 -3 -19 0 -24 7 -8 10 -11 10
-15 1 -2 -7 -11 -13 -18 -13 -7 0 -16 6 -19 13 -3 9 -8 8 -18 -3 -14 -16 -58
-25 -58 -12 0 4 -38 7 -85 6 -47 -1 -85 3 -85 8 0 4 -11 6 -25 2 -14 -3 -31
-1 -39 5 -11 9 -15 8 -20 -6 -6 -15 -8 -15 -17 -3 -8 13 -10 13 -19 0 -8 -13
-11 -12 -24 5 -9 11 -16 14 -16 8 0 -8 -13 -13 -32 -13 -49 0 -202 -8 -208
-11 -16 -7 -36 -3 -46 10 -10 13 -14 13 -28 2 -12 -10 -19 -11 -30 -2 -10 9
-16 9 -21 1 -4 -6 -13 -9 -21 -6 -8 3 -37 1 -65 -5 -34 -7 -54 -8 -62 0 -7 5
-22 8 -32 7 -11 -2 -25 1 -32 6 -7 5 -16 7 -22 4 -5 -3 -12 0 -14 6 -3 8 -6 6
-6 -4z m-1131 -147 c0 -12 -20 -25 -27 -18 -7 7 6 27 18 27 5 0 9 -4 9 -9z
m3620 -11 c0 -5 -7 -7 -15 -4 -8 4 -12 10 -9 15 6 11 24 2 24 -11z m-2028
-264 c12 3 27 -1 39 -12 11 -10 19 -12 19 -6 0 7 16 12 40 12 24 0 40 -5 40
-12 0 -7 6 -6 18 4 19 17 94 16 100 -2 2 -5 8 -10 13 -10 6 0 7 5 4 10 -4 6
12 10 39 10 27 0 46 -5 46 -11 0 -8 6 -7 16 2 19 16 154 23 154 8 0 -6 14 -7
35 -3 19 3 35 2 35 -3 0 -12 119 -6 135 7 9 8 15 8 20 0 3 -6 10 -8 15 -5 5 3
11 1 15 -4 4 -7 15 -6 31 1 20 9 30 9 45 -1 11 -6 29 -9 40 -6 12 4 19 2 19
-7 0 -16 191 -19 202 -3 5 6 8 6 8 -2 0 -8 18 -10 58 -7 31 2 51 1 45 -2 -20
-9 -15 -27 5 -19 9 4 30 7 46 6 15 -1 35 4 42 10 11 9 14 8 14 -6 0 -13 6 -16
25 -13 14 3 25 1 25 -4 0 -5 10 -8 23 -7 12 2 27 0 33 -3 12 -8 55 -5 69 4 15
9 66 -3 59 -13 -3 -5 2 -9 10 -9 9 0 16 4 16 9 0 6 29 9 65 8 36 -1 65 -6 65
-11 0 -5 15 -6 34 -3 23 4 36 1 39 -8 3 -7 19 -12 39 -11 18 2 38 -1 45 -6 12
-10 82 -21 123 -20 14 1 41 -5 60 -12 20 -7 76 -12 127 -12 51 1 93 -2 93 -6
0 -5 9 -8 20 -8 10 0 31 -6 46 -12 21 -10 28 -10 31 -1 3 8 14 6 35 -7 21 -12
41 -17 60 -13 16 3 28 1 28 -5 0 -5 8 -8 19 -5 10 2 25 -2 33 -10 10 -11 19
-12 32 -5 11 6 22 6 31 -2 8 -6 20 -8 26 -4 9 5 10 2 6 -9 -7 -18 8 -24 17 -8
7 11 24 9 55 -8 13 -7 36 -11 51 -7 19 3 33 0 44 -13 11 -12 29 -17 58 -15 24
1 37 -1 30 -3 -19 -7 -3 -23 24 -23 13 0 24 -4 24 -10 0 -5 11 -10 24 -10 14
0 28 -4 31 -10 4 -6 14 -5 27 3 16 9 22 9 25 0 5 -14 30 -7 57 16 18 15 19 14
14 -16 -2 -17 -2 -31 1 -31 6 1 25 -5 69 -23 15 -6 30 -5 42 1 26 14 40 12 40
-5 0 -10 10 -15 34 -15 19 0 38 -5 41 -11 4 -6 13 -8 21 -5 8 3 11 0 8 -9 -4
-10 12 -19 58 -33 42 -13 62 -24 60 -33 -3 -9 2 -8 16 4 20 18 47 22 56 8 3
-5 18 -12 33 -16 16 -3 35 -12 43 -19 8 -8 34 -16 57 -19 23 -3 54 -14 69 -26
14 -11 41 -23 59 -27 18 -3 43 -15 55 -26 15 -14 29 -18 48 -14 15 4 22 3 15
-1 -8 -6 -2 -15 20 -30 41 -28 73 -41 63 -25 -4 7 -2 12 3 12 6 0 11 -7 11
-15 0 -9 10 -16 25 -16 14 -1 31 -2 38 -3 6 -1 15 -9 19 -19 6 -13 14 -17 29
-12 13 5 25 2 29 -6 5 -7 16 -13 27 -14 10 -1 28 -7 40 -13 12 -7 29 -12 37
-12 8 0 20 -9 26 -21 6 -11 16 -19 23 -16 12 4 34 -11 85 -60 34 -33 49 -42
36 -22 -3 6 8 4 24 -5 17 -9 33 -20 37 -25 3 -6 12 -8 19 -5 7 3 16 -2 19 -10
4 -11 19 -16 46 -16 32 0 39 -3 35 -15 -4 -10 0 -15 11 -15 9 0 26 -11 37 -25
11 -14 30 -25 43 -25 14 0 29 -8 34 -18 5 -10 26 -24 45 -32 23 -9 39 -22 42
-37 5 -20 21 -28 47 -24 4 0 7 -7 7 -17 0 -10 16 -25 41 -37 23 -10 43 -25 46
-32 3 -7 8 -11 13 -8 4 2 13 -7 21 -21 9 -17 19 -24 31 -21 10 3 16 2 14 -1
-7 -14 14 -52 29 -52 8 0 15 -7 15 -16 0 -8 4 -12 10 -9 5 3 15 -3 22 -15 7
-11 18 -20 25 -20 7 0 22 -13 33 -28 11 -15 56 -56 100 -92 44 -35 80 -68 80
-73 0 -6 3 -7 6 -4 4 4 15 -3 26 -16 38 -46 102 -107 112 -107 11 0 56 -48 56
-60 0 -5 11 -11 25 -14 14 -4 25 -11 25 -16 0 -6 38 -48 84 -94 46 -45 86 -91
88 -102 2 -10 13 -23 26 -29 13 -6 22 -19 22 -31 0 -12 7 -27 15 -34 8 -7 15
-18 15 -24 1 -6 16 -36 35 -66 57 -94 106 -193 101 -206 -3 -7 -2 -14 2 -16 4
-2 17 -23 30 -48 46 -89 84 -155 96 -170 8 -8 19 -33 26 -55 7 -22 19 -54 27
-72 14 -29 18 -46 22 -95 0 -10 8 -18 16 -18 8 0 15 -4 15 -10 0 -5 -4 -10
-10 -10 -5 0 -10 -5 -10 -10 0 -6 10 -4 23 5 19 12 26 13 41 2 17 -12 17 -15
2 -29 -8 -9 -21 -18 -28 -21 -10 -3 -11 -9 -1 -25 13 -22 32 -90 37 -132 2
-14 4 -31 4 -37 1 -7 8 -13 16 -13 9 0 12 -8 8 -25 -2 -14 2 -35 10 -47 12
-18 14 -54 12 -170 -3 -124 -1 -148 11 -148 22 0 18 -18 -5 -25 -16 -5 -18
-12 -13 -38 3 -18 10 -36 14 -41 12 -14 11 -46 -1 -46 -7 0 -8 -13 -4 -36 5
-30 4 -35 -7 -28 -10 6 -9 0 3 -18 16 -25 16 -27 -2 -43 -25 -22 -25 -40 -2
-63 27 -27 26 -62 -2 -62 -12 0 -27 -5 -34 -12 -16 -16 -15 -61 0 -76 10 -10
10 -15 -2 -22 -8 -5 -23 -10 -32 -10 -10 0 -18 -4 -18 -10 0 -19 -2 -25 -22
-52 -17 -25 -17 -28 -3 -28 10 0 15 -7 13 -17 -2 -10 -10 -18 -18 -18 -9 0
-15 -12 -16 -34 -1 -19 -8 -38 -17 -42 -9 -5 -13 -18 -10 -33 4 -19 1 -24 -13
-23 -10 1 -19 -2 -19 -8 0 -5 -6 -20 -13 -32 -7 -13 -10 -23 -6 -23 4 0 -2
-10 -13 -22 -11 -13 -30 -45 -42 -71 -18 -39 -25 -46 -36 -37 -10 8 -15 8 -20
0 -4 -6 -18 -15 -31 -20 -29 -11 -32 -47 -6 -66 16 -12 16 -14 -6 -36 -13 -13
-22 -17 -20 -9 2 7 -2 15 -7 17 -15 6 -56 -52 -59 -84 -2 -15 -9 -27 -17 -27
-8 0 -24 -15 -37 -32 -12 -18 -27 -33 -31 -33 -5 0 -14 -14 -21 -31 -10 -22
-18 -29 -32 -26 -10 3 -18 1 -18 -4 0 -5 -7 -9 -15 -9 -8 0 -15 -7 -15 -15 0
-8 -5 -15 -10 -15 -18 0 -80 -45 -80 -58 0 -8 -8 -10 -25 -6 -20 5 -25 2 -25
-13 0 -25 -19 -43 -44 -43 -15 0 -17 -3 -8 -8 8 -6 1 -13 -23 -22 -23 -9 -35
-21 -36 -34 -1 -17 -2 -18 -6 -3 -5 20 -23 23 -23 3 0 -7 -11 -21 -25 -30 -14
-9 -25 -25 -25 -36 0 -13 -7 -20 -20 -20 -13 0 -20 -7 -20 -20 0 -11 -7 -20
-15 -20 -8 0 -15 -6 -15 -14 0 -19 -40 -28 -47 -10 -3 8 -10 11 -17 7 -6 -4
-16 -8 -23 -9 -7 -1 -24 -14 -38 -30 -14 -15 -25 -23 -25 -19 0 4 -6 2 -14 -4
-7 -6 -21 -9 -30 -5 -9 3 -16 2 -16 -4 0 -6 -20 -20 -45 -32 -24 -12 -46 -29
-49 -38 -3 -9 -20 -23 -38 -30 -18 -7 -41 -18 -50 -23 -10 -5 -26 -9 -37 -9
-10 0 -24 -7 -31 -15 -15 -18 -50 -20 -50 -3 0 6 -10 0 -22 -13 -24 -26 -126
-79 -152 -79 -10 0 -13 -6 -10 -15 4 -10 0 -15 -14 -15 -11 0 -22 6 -25 13 -3
9 -8 9 -18 1 -8 -6 -34 -16 -58 -23 -28 -8 -45 -19 -48 -32 -4 -12 -11 -18
-19 -15 -24 9 -64 -12 -64 -34 0 -11 -4 -20 -10 -20 -5 0 -10 10 -10 23 0 16
-3 18 -9 8 -10 -16 -47 -20 -79 -9 -16 6 -28 2 -42 -12 -17 -17 -82 -37 -102
-32 -5 1 -8 -2 -8 -6 0 -5 -10 -8 -22 -8 -15 1 -22 -4 -20 -13 3 -12 1 -12
-13 -1 -13 11 -19 9 -41 -11 -14 -13 -29 -23 -32 -22 -8 3 -91 -26 -107 -37
-16 -11 -109 -35 -122 -32 -7 2 -21 -1 -30 -7 -10 -5 -45 -12 -78 -15 -72 -8
-95 -14 -95 -27 0 -5 -7 -9 -15 -9 -8 0 -15 -4 -15 -9 0 -5 -17 -9 -37 -8 -39
1 -121 -11 -135 -20 -5 -2 -6 -9 -3 -14 7 -10 -1 -11 -32 -3 -13 4 -20 11 -16
17 4 7 0 8 -11 4 -10 -4 -25 -7 -34 -7 -15 0 -15 -2 -2 -10 12 -8 12 -10 -5
-11 -35 -1 -69 -9 -75 -17 -3 -5 -18 -9 -35 -9 -64 -1 -72 -4 -83 -25 -8 -18
-11 -19 -11 -5 -1 18 -16 23 -25 8 -3 -4 -17 -6 -31 -4 -18 4 -27 0 -32 -13
-7 -21 -22 -34 -40 -34 -7 0 -10 7 -7 15 4 9 0 15 -10 15 -9 0 -16 -3 -16 -7
0 -5 -30 -8 -68 -8 -37 0 -70 -4 -73 -8 -4 -5 -15 -4 -25 3 -15 9 -32 8 -83
-10 -47 -15 -66 -18 -76 -10 -10 9 -16 6 -25 -9 -13 -24 -30 -28 -30 -6 0 18
-5 19 -33 3 -12 -7 -37 -13 -56 -14 -18 -1 -37 -8 -42 -15 -8 -11 -12 -10 -24
5 -13 17 -19 16 -17 -4 0 -3 -11 -6 -26 -5 -15 0 -33 -5 -41 -13 -10 -10 -16
-10 -28 0 -12 9 -19 9 -36 -1 -14 -9 -22 -10 -25 -3 -2 6 -10 8 -19 5 -12 -5
-14 -3 -8 8 5 8 -1 6 -13 -5 -12 -10 -28 -16 -36 -13 -8 3 -17 -1 -20 -10 -5
-12 -9 -13 -20 -4 -9 8 -16 8 -20 2 -4 -5 -41 -9 -83 -9 -62 0 -79 -3 -90 -17
-10 -15 -15 -16 -28 -5 -9 8 -29 10 -51 7 -26 -4 -37 -2 -41 9 -3 10 -12 13
-22 8 -14 -6 -46 -11 -108 -17 -13 -1 -23 -5 -23 -9 0 -5 -25 -7 -56 -7 -37 1
-59 -3 -64 -12 -7 -10 -12 -10 -23 -1 -7 7 -16 10 -18 8 -2 -2 -44 -7 -94 -11
-114 -9 -126 -11 -148 -20 -21 -9 -69 2 -79 18 -5 8 -8 6 -8 -5 0 -9 6 -18 13
-21 6 -2 2 -2 -10 -1 -12 2 -29 -3 -37 -12 -9 -8 -16 -11 -16 -6 0 15 -40 2
-62 -20 -10 -10 -18 -25 -18 -33 0 -8 -7 -15 -15 -15 -9 0 -15 -9 -15 -22 0
-18 -2 -20 -10 -8 -7 11 -11 4 -16 -27 -3 -23 -13 -44 -20 -47 -8 -3 -14 -19
-14 -35 0 -17 -6 -43 -12 -58 -13 -29 -38 -60 -38 -47 0 5 -9 -10 -20 -31 -12
-22 -19 -48 -16 -57 2 -10 -1 -18 -9 -18 -7 0 -16 -11 -19 -24 -3 -14 -12 -31
-19 -38 -7 -7 -28 -43 -47 -80 -18 -38 -37 -68 -41 -68 -5 0 -6 -6 -3 -14 3
-8 -4 -24 -15 -35 -12 -12 -39 -60 -62 -106 -22 -47 -45 -85 -52 -85 -21 0
-40 -39 -26 -56 9 -11 6 -16 -14 -23 -16 -6 -27 -20 -32 -40 -3 -16 -13 -35
-21 -41 -8 -8 -12 -21 -8 -36 4 -15 2 -24 -5 -24 -6 0 -11 -10 -11 -23 0 -15
-11 -29 -30 -41 -17 -9 -28 -22 -24 -27 3 -5 -6 -19 -20 -30 -14 -11 -26 -28
-26 -37 0 -33 -20 -89 -40 -112 -11 -13 -20 -31 -20 -41 0 -10 -8 -25 -17 -34
-14 -14 -14 -20 -4 -37 12 -19 11 -20 -8 -15 -16 4 -21 0 -21 -14 0 -10 -4
-19 -10 -19 -5 0 -10 7 -10 15 0 10 -10 15 -27 15 -25 0 -26 1 -11 16 14 15
13 22 -23 85 -21 37 -39 78 -39 89 0 11 -4 20 -9 20 -5 0 -7 8 -5 18 3 9 -6
29 -21 44 -14 15 -25 33 -25 40 0 7 -10 18 -22 23 -14 6 -24 21 -26 38 -2 15
-8 27 -13 27 -5 0 -9 8 -9 18 0 10 -9 35 -20 57 -11 22 -20 45 -20 51 0 6 -9
14 -21 17 -12 3 -18 10 -14 17 11 18 -3 57 -22 62 -10 3 -33 36 -52 74 -19 38
-47 85 -62 105 -16 20 -26 38 -24 41 7 6 -58 130 -89 171 -14 19 -26 39 -26
45 0 7 -7 12 -16 12 -12 0 -14 3 -6 13 13 16 -15 87 -34 87 -12 0 -40 65 -48
114 -3 16 -10 32 -16 36 -11 7 -17 27 -19 58 -1 6 -8 12 -17 12 -8 0 -12 5 -9
10 3 6 -1 13 -9 16 -9 3 -16 14 -16 23 0 17 -31 42 -67 53 -13 3 -23 2 -23 -4
0 -5 -7 -2 -16 7 -9 9 -25 13 -38 10 -11 -2 -15 -2 -8 1 6 3 12 13 12 22 0 11
-3 13 -8 5 -10 -15 -58 -27 -73 -17 -7 4 -24 8 -38 9 -150 13 -188 17 -203 21
-9 3 -20 0 -23 -7 -6 -8 -10 -8 -15 2 -5 8 -28 12 -61 11 -29 0 -57 2 -63 6
-11 7 -30 10 -86 15 -19 2 -40 6 -47 10 -6 4 -14 0 -17 -9 -4 -11 -14 -13 -40
-9 -19 4 -42 2 -52 -3 -13 -7 -22 -6 -32 4 -7 8 -28 14 -45 15 -18 0 -62 1
-99 2 -51 0 -68 4 -68 15 0 9 -7 11 -21 7 -14 -5 -25 -1 -35 12 -9 10 -12 12
-8 4 5 -11 2 -13 -14 -9 -15 4 -22 2 -22 -9 0 -12 -2 -12 -16 1 -19 19 -26 20
-43 4 -10 -11 -15 -10 -25 4 -7 10 -15 15 -18 12 -3 -2 -17 1 -31 7 -20 9 -30
9 -41 0 -11 -9 -15 -9 -18 1 -3 8 -20 11 -46 10 -23 -2 -42 1 -42 6 0 16 -38
21 -44 6 -8 -21 -23 -17 -29 8 -5 16 -9 19 -19 11 -15 -12 -78 -5 -78 8 0 5
-3 8 -7 7 -5 -1 -20 2 -35 6 -15 5 -35 3 -47 -4 -12 -6 -21 -7 -21 -3 0 5 -31
8 -70 8 -38 0 -70 3 -70 8 0 4 -9 7 -21 7 -15 0 -19 -5 -15 -15 3 -8 2 -15 -2
-15 -13 0 -28 15 -35 34 -5 13 -14 17 -33 13 -14 -2 -31 2 -39 9 -9 10 -16 11
-20 4 -5 -8 -12 -7 -22 2 -9 7 -34 13 -57 13 -22 0 -51 6 -63 13 -12 7 -37 12
-55 13 -26 0 -29 2 -13 8 17 7 16 9 -11 13 -18 2 -36 -1 -43 -9 -16 -17 -41
-17 -41 1 0 8 -8 15 -17 15 -10 0 -34 3 -53 7 -19 4 -50 7 -67 7 -18 0 -33 4
-33 9 0 4 -5 8 -12 8 -6 0 -19 6 -27 14 -9 8 -45 17 -81 21 -35 4 -71 10 -80
15 -8 4 -27 8 -42 8 -30 -1 -65 11 -178 58 -24 11 -48 19 -52 19 -4 0 -17 8
-28 18 -16 13 -25 15 -35 7 -9 -8 -14 -6 -19 6 -3 9 -13 14 -21 10 -8 -3 -17
-1 -20 4 -3 5 -14 7 -25 5 -11 -2 -22 0 -25 6 -4 5 -14 9 -23 9 -10 0 -25 9
-35 20 -12 15 -22 18 -39 11 -26 -9 -64 -8 -74 2 -13 13 -23 7 -17 -9 4 -12 2
-15 -8 -12 -8 3 -14 13 -14 24 0 11 -8 20 -20 23 -11 2 -25 11 -32 20 -12 15
-13 14 -7 -1 3 -10 2 -18 -4 -18 -5 0 -12 8 -14 18 -4 12 -22 23 -52 32 -26 7
-49 17 -52 21 -9 15 -34 10 -34 -6 0 -9 -6 -12 -15 -9 -8 4 -15 10 -15 16 0 5
6 6 13 2 8 -5 9 -4 2 3 -5 5 -30 16 -55 23 -25 8 -51 20 -58 27 -7 7 -21 13
-30 13 -10 0 -23 9 -30 20 -9 15 -19 19 -36 14 -14 -3 -29 0 -39 10 -8 9 -23
16 -31 16 -9 0 -24 4 -34 9 -9 5 -33 16 -52 25 -19 8 -41 24 -48 35 -6 12 -28
27 -47 35 -19 8 -35 20 -35 26 0 7 -8 9 -19 5 -11 -3 -22 -1 -26 5 -3 6 -10 8
-14 5 -5 -2 -21 8 -37 22 -16 15 -33 26 -38 25 -4 -2 -14 3 -22 9 -11 9 -14 8
-14 -5 0 -9 -4 -16 -9 -16 -14 0 -56 42 -64 63 -3 9 -16 17 -27 17 -13 0 -20
7 -20 20 0 10 -16 35 -35 55 -36 36 -69 45 -79 23 -3 -7 -3 -3 0 10 4 16 1 22
-11 22 -9 0 -13 5 -10 10 3 6 -3 10 -14 10 -12 0 -24 11 -33 30 -10 25 -17 30
-36 25 -13 -3 -22 -1 -22 6 0 12 -38 49 -50 49 -3 0 -21 13 -39 29 -18 16 -39
27 -47 24 -8 -3 -17 3 -21 13 -13 37 -85 113 -100 107 -9 -4 -14 0 -13 8 5 31
-1 50 -20 66 -11 10 -20 26 -20 35 0 17 -2 17 -25 2 -23 -15 -25 -15 -31 0 -4
9 1 25 10 35 9 10 16 23 16 29 0 17 -73 64 -80 51 -9 -13 -21 3 -50 61 -44 92
-56 111 -64 103 -5 -4 -5 3 -1 15 6 21 4 23 -14 17 -23 -7 -29 13 -10 32 8 8
5 13 -11 18 -18 6 -21 13 -18 43 2 24 -1 37 -9 37 -7 0 -18 6 -25 13 -10 10
-8 14 10 19 19 4 20 7 8 17 -7 6 -19 28 -26 49 -6 20 -16 35 -21 31 -16 -10
-51 6 -41 19 30 39 11 97 -32 97 -29 0 -28 32 2 60 29 27 28 46 -4 66 -21 15
-23 19 -10 26 11 6 13 15 6 32 -5 13 -6 33 -3 45 3 12 1 21 -6 21 -16 0 -14
26 4 44 20 19 19 32 -2 46 -17 11 -17 11 0 6 11 -4 17 0 17 10 0 9 -9 18 -20
21 -25 7 -26 19 -1 26 16 4 19 12 16 48 -2 24 -5 46 -6 49 -1 3 -1 9 0 14 1 5
-5 6 -14 3 -8 -4 -15 -2 -15 3 0 6 7 10 16 10 9 0 14 6 11 13 -3 8 -1 20 3 28
5 7 5 18 -1 25 -6 7 -6 21 1 40 6 15 8 34 5 42 -3 8 1 24 8 36 8 12 13 34 11
51 -2 22 -1 26 6 15 8 -12 10 -11 10 6 0 11 5 25 12 32 8 8 8 15 0 24 -7 9 -6
18 4 32 8 11 14 28 14 38 0 11 7 33 16 51 10 18 13 32 7 34 -6 2 -19 10 -29
17 -16 12 -16 16 -5 30 8 9 20 15 28 12 7 -3 13 -2 13 3 0 5 8 11 19 14 20 5
36 57 17 57 -6 0 -4 4 4 10 8 5 11 12 7 16 -4 4 0 16 9 25 9 10 18 30 19 44 2
13 26 64 54 113 28 49 51 97 51 106 0 10 4 15 8 12 10 -6 54 82 47 94 -3 5 -1
11 5 15 5 3 14 24 20 45 6 22 15 40 20 40 6 0 10 5 10 11 0 6 11 25 25 43 14
18 25 36 25 40 0 4 10 20 21 35 12 16 19 33 15 39 -3 5 3 17 14 27 11 10 20
27 20 37 0 11 4 17 9 14 5 -3 16 10 25 29 9 19 26 41 39 50 12 8 18 15 15 15
-4 0 29 36 74 80 44 44 84 80 88 80 4 0 18 16 31 35 13 19 30 35 36 35 7 0 36
23 64 50 28 28 47 50 43 50 -4 0 1 6 11 14 11 8 23 12 27 10 5 -3 8 2 8 10 0
9 5 16 10 16 6 0 23 12 39 28 48 45 78 70 100 81 13 8 18 17 14 29 -3 9 -3 14
1 10 8 -7 18 0 57 35 10 9 26 17 34 17 8 0 15 8 15 17 0 9 3 13 7 10 11 -12
33 15 33 40 0 13 4 22 10 18 5 -3 27 12 48 33 21 21 52 44 70 51 17 7 34 22
37 32 4 10 9 18 13 18 20 -3 31 3 37 21 4 11 25 30 48 42 23 11 46 27 52 34 5
7 19 14 30 16 11 2 28 12 38 23 10 11 26 20 35 20 10 0 16 8 16 18 -1 13 6 17
31 17 18 0 38 7 45 15 7 8 18 14 24 13 6 -1 23 6 37 15 15 10 31 16 37 15 5
-2 21 9 35 25 14 15 31 27 37 27 5 0 10 5 10 11 0 5 5 7 10 4 6 -3 10 -1 10 4
0 6 9 11 20 11 10 0 24 8 29 18 5 10 29 24 53 31 24 7 53 19 66 28 13 8 30 12
38 9 7 -3 20 1 28 10 8 8 28 17 45 20 16 4 32 13 35 20 4 10 14 12 31 8 16 -4
25 -2 25 6 0 6 4 9 9 6 5 -3 11 1 15 9 3 8 13 15 23 15 15 0 16 2 3 10 -11 8
-9 9 10 5 19 -4 31 0 44 14 11 12 30 21 43 21 12 0 23 6 23 13 0 8 4 7 10 -3
5 -8 10 -10 10 -4 0 16 83 54 119 54 19 0 34 6 37 15 4 8 12 15 20 15 7 0 29
8 49 17 29 14 40 15 56 5 10 -7 19 -8 19 -4 0 5 24 14 53 21 54 14 80 28 72
40 -2 4 1 8 8 9 50 6 84 17 93 30 10 13 14 13 42 0 26 -13 32 -14 36 -2 3 8
17 14 31 14 14 0 25 5 25 11 0 5 5 7 11 3 8 -5 10 1 7 20 -6 31 -6 31 34 10
23 -12 32 -13 38 -4 4 7 16 9 28 6 11 -4 23 -3 26 3 3 5 15 7 25 4 10 -3 22 0
25 6 4 6 18 11 32 11 25 0 33 15 12 23 -7 3 8 4 34 2 36 -3 50 0 57 13 6 11
21 15 49 14 22 -2 46 3 54 10 19 18 38 21 54 7 11 -9 14 -8 14 5 0 10 5 14 11
10 6 -3 15 0 20 7 7 11 12 12 27 2 15 -9 22 -8 34 3 8 9 39 16 71 18 32 2 68
11 81 20 14 9 26 11 28 6 3 -10 49 1 89 20 8 4 23 4 32 -2 9 -5 17 -5 17 0 0
4 33 8 73 7 39 -1 83 3 97 8 14 5 41 11 60 12 68 6 108 13 127 23 10 5 32 9
50 7 19 -2 34 3 37 11 3 9 16 11 40 7 20 -3 36 -2 36 3 0 5 29 10 65 11 39 1
63 -2 60 -8 -4 -5 0 -9 9 -9 8 0 16 4 18 10 2 5 14 10 28 10 14 0 43 0 65 -1
83 0 95 1 95 11 0 5 7 7 16 3 10 -4 22 1 30 12 12 16 14 16 20 2 4 -13 11 -14
31 -6 18 7 30 6 37 -1 15 -15 29 -12 22 5 -5 13 3 16 47 15 88 -3 178 -2 200
2 7 1 25 -2 41 -6 24 -6 28 -4 22 10 -5 13 -2 15 20 10 15 -4 32 -2 40 5 11 9
21 9 38 1 13 -6 29 -6 36 -2 8 5 18 6 22 4 4 -3 8 0 8 6 0 6 11 5 29 -5 21
-10 37 -12 53 -6 13 5 33 5 47 -1 17 -6 27 -5 31 3 5 7 19 9 39 4 19 -4 31 -3
31 4 0 13 40 19 69 9 13 -5 32 -6 43 -2z m-4645 -798 c-3 -7 -5 -2 -5 12 0 14
2 19 5 13 2 -7 2 -19 0 -25z m9708 22 c3 -5 1 -10 -4 -10 -6 0 -11 5 -11 10 0
6 2 10 4 10 3 0 8 -4 11 -10z m-10430 -570 c3 -5 1 -10 -4 -10 -6 0 -11 5 -11
10 0 6 2 10 4 10 3 0 8 -4 11 -10z m400 -210 c-3 -5 -11 -10 -16 -10 -6 0 -7
5 -4 10 3 6 11 10 16 10 6 0 7 -4 4 -10z m10370 0 c3 -5 -1 -10 -9 -10 -9 0
-16 5 -16 10 0 6 4 10 9 10 6 0 13 -4 16 -10z m-10830 -440 c3 -5 2 -10 -4
-10 -5 0 -13 5 -16 10 -3 6 -2 10 4 10 5 0 13 -4 16 -10z m11290 0 c-3 -5 -11
-10 -16 -10 -6 0 -7 5 -4 10 3 6 11 10 16 10 6 0 7 -4 4 -10z m-11777 -182
c14 -14 16 -38 3 -38 -15 0 -42 31 -36 41 8 12 19 11 33 -3z m12262 -23 c-12
-15 -40 -21 -40 -8 0 3 8 15 17 25 21 23 43 7 23 -17z m-12320 -125 c0 -5 -2
-10 -4 -10 -3 0 -8 5 -11 10 -3 6 -1 10 4 10 6 0 11 -4 11 -10z m12457 -42
c-3 -8 -6 -5 -6 6 -1 11 2 17 5 13 3 -3 4 -12 1 -19z m-12563 -127 c-7 -8 -35
9 -29 19 4 6 11 5 20 -3 7 -6 11 -14 9 -16z m12595 8 c-24 -15 -45 -11 -24 5
11 8 24 12 28 9 5 -3 3 -9 -4 -14z m-12684 -49 c-3 -5 -12 -10 -18 -10 -7 0
-6 4 3 10 19 12 23 12 15 0z m12545 -84 c0 -3 -4 -8 -10 -11 -5 -3 -10 -1 -10
4 0 6 5 11 10 11 6 0 10 -2 10 -4z m-12580 -46 c0 -5 -4 -10 -10 -10 -5 0 -10
5 -10 10 0 6 5 10 10 10 6 0 10 -4 10 -10z m12840 0 c0 -5 -4 -10 -10 -10 -5
0 -10 5 -10 10 0 6 5 10 10 10 6 0 10 -4 10 -10z m-12533 -47 c0 -19 -15 -43
-27 -43 -10 0 -30 47 -23 54 14 14 50 5 50 -11z m12257 9 c3 -5 -2 -19 -10
-31 -13 -17 -19 -20 -30 -10 -24 19 -17 49 10 49 14 0 27 -4 30 -8z m46 -742
c0 -5 -4 -10 -9 -10 -6 0 -13 5 -16 10 -3 6 1 10 9 10 9 0 16 -4 16 -10z
m-12396 -86 c3 -8 2 -12 -4 -9 -6 3 -10 10 -10 16 0 14 7 11 14 -7z m12396 -4
c0 -5 -5 -10 -11 -10 -5 0 -7 5 -4 10 3 6 8 10 11 10 2 0 4 -4 4 -10z m61
-133 c-15 -15 -41 0 -41 23 0 20 1 20 26 4 16 -11 22 -20 15 -27z m-12491 14
c0 -14 -18 -23 -30 -16 -6 4 -8 11 -5 16 8 12 35 12 35 0z m17 -57 c-9 -9 -28
6 -21 18 4 6 10 6 17 -1 6 -6 8 -13 4 -17z m12443 11 c0 -8 -4 -15 -10 -15 -5
0 -10 7 -10 15 0 8 5 15 10 15 6 0 10 -7 10 -15z m-12494 -112 c-2 -2 -15 2
-30 8 -19 9 -23 15 -14 20 12 7 53 -19 44 -28z m12569 17 c-6 -10 -45 -20 -45
-11 0 4 5 12 11 18 12 12 42 6 34 -7z m-12495 -50 c0 -5 -2 -10 -4 -10 -3 0
-8 5 -11 10 -3 6 -1 10 4 10 6 0 11 -4 11 -10z m12395 0 c-3 -5 -10 -10 -16
-10 -5 0 -9 5 -9 10 0 6 7 10 16 10 8 0 12 -4 9 -10z m-12345 -191 c0 -6 -4
-7 -10 -4 -5 3 -10 11 -10 16 0 6 5 7 10 4 6 -3 10 -11 10 -16z m330 -539 c0
-5 -4 -10 -10 -10 -5 0 -10 5 -10 10 0 6 5 10 10 10 6 0 10 -4 10 -10z m11635
0 c-3 -5 -11 -10 -16 -10 -6 0 -7 5 -4 10 3 6 11 10 16 10 6 0 7 -4 4 -10z
m-278 -352 c-3 -8 -6 -5 -6 6 -1 11 2 17 5 13 3 -3 4 -12 1 -19z m398 -78 c3
-5 1 -10 -4 -10 -6 0 -11 5 -11 10 0 6 2 10 4 10 3 0 8 -4 11 -10z m-35 -64
c0 -3 -4 -8 -10 -11 -5 -3 -10 -1 -10 4 0 6 5 11 10 11 6 0 10 -2 10 -4z
m-11170 -46 c0 -5 -4 -10 -10 -10 -5 0 -10 5 -10 10 0 6 5 10 10 10 6 0 10 -4
10 -10z m10353 -177 c-7 -2 -19 -2 -25 0 -7 3 -2 5 12 5 14 0 19 -2 13 -5z
m-10259 -10 c-5 -5 -12 -12 -15 -16 -3 -5 -9 -2 -12 7 -5 12 0 16 15 16 12 0
17 -3 12 -7z m10356 -3 c0 -13 -11 -13 -30 0 -12 8 -11 10 8 10 12 0 22 -4 22
-10z m-10093 -81 c-3 -12 0 -22 8 -25 16 -6 7 -46 -9 -41 -20 6 -20 87 0 87 3
0 4 -9 1 -21z m9821 -29 c-2 -19 -8 -35 -14 -37 -16 -5 -27 27 -14 42 5 6 7
15 4 18 -3 3 -3 11 1 17 12 20 27 -5 23 -40z m-9998 10 c0 -5 -8 -10 -17 -10
-15 0 -16 2 -3 10 19 12 20 12 20 0z m10187 -6 c-3 -3 -12 -4 -19 -1 -8 3 -5
6 6 6 11 1 17 -2 13 -5z m-9692 -174 c3 -5 1 -10 -4 -10 -6 0 -11 5 -11 10 0
6 2 10 4 10 3 0 8 -4 11 -10z m9185 0 c0 -5 -4 -10 -10 -10 -5 0 -10 5 -10 10
0 6 5 10 10 10 6 0 10 -4 10 -10z m-8662 -139 c3 -8 0 -11 -7 -7 -6 4 -11 2
-11 -3 0 -6 -6 -11 -14 -11 -9 0 -12 7 -9 20 6 23 34 23 41 1z m8159 5 c-3 -8
-1 -17 6 -20 7 -4 -1 -3 -18 0 -36 7 -39 9 -30 23 10 17 48 14 42 -3z m-8001
-62 c-4 -9 -1 -23 5 -30 18 -21 2 -17 -21 6 -16 16 -17 20 -5 20 8 0 15 5 15
10 0 6 3 10 6 10 3 0 3 -7 0 -16z m7821 -25 c-16 -26 -25 -24 -20 5 3 16 10
23 19 19 10 -4 11 -9 1 -24z m-117 1 c0 -5 -4 -10 -10 -10 -5 0 -10 5 -10 10
0 6 5 10 10 10 6 0 10 -4 10 -10z m-7950 -310 c-8 -5 -19 -10 -25 -10 -5 0 -3
5 5 10 8 5 20 10 25 10 6 0 3 -5 -5 -10z m2675 -90 c3 -5 1 -10 -4 -10 -6 0
-11 5 -11 10 0 6 2 10 4 10 3 0 8 -4 11 -10z m-125 -10 c0 -5 -4 -10 -10 -10
-5 0 -10 5 -10 10 0 6 5 10 10 10 6 0 10 -4 10 -10z m200 0 c0 -5 -4 -10 -10
-10 -5 0 -10 5 -10 10 0 6 5 10 10 10 6 0 10 -4 10 -10z m2820 0 c0 -5 -4 -10
-10 -10 -5 0 -10 5 -10 10 0 6 5 10 10 10 6 0 10 -4 10 -10z m190 0 c0 -5 -2
-10 -4 -10 -3 0 -8 5 -11 10 -3 6 -1 10 4 10 6 0 11 -4 11 -10z m-5250 -26 c0
-2 -7 -4 -15 -4 -8 0 -15 4 -15 10 0 5 7 7 15 4 8 -4 15 -8 15 -10z m2270 6
c0 -5 -2 -10 -4 -10 -3 0 -8 5 -11 10 -3 6 -1 10 4 10 6 0 11 -4 11 -10z
m5035 0 c3 -5 -1 -10 -10 -10 -9 0 -13 5 -10 10 3 6 8 10 10 10 2 0 7 -4 10
-10z m-4825 -31 c0 -18 -2 -19 -15 -9 -15 12 -12 30 6 30 5 0 9 -10 9 -21z
m2344 12 c3 -5 -1 -11 -9 -15 -15 -6 -29 7 -18 18 9 9 21 8 27 -3z m2306 -21
c0 -5 -2 -10 -4 -10 -3 0 -8 5 -11 10 -3 6 -1 10 4 10 6 0 11 -4 11 -10z
m-4320 -20 c0 -5 -5 -10 -11 -10 -5 0 -7 5 -4 10 3 6 8 10 11 10 2 0 4 -4 4
-10z m20 -30 c0 -5 -4 -10 -10 -10 -5 0 -10 5 -10 10 0 6 5 10 10 10 6 0 10
-4 10 -10z m1640 6 c0 -3 -4 -8 -10 -11 -5 -3 -10 -1 -10 4 0 6 5 11 10 11 6
0 10 -2 10 -4z m-2600 -140 c0 -8 -7 -17 -16 -20 -21 -8 -26 -3 -18 18 8 20
34 21 34 2z m3573 0 c12 -30 -17 -35 -33 -6 -9 17 -8 20 9 20 10 0 21 -6 24
-14z m-2513 -10 c0 -11 -19 -15 -25 -6 -3 5 1 10 9 10 9 0 16 -2 16 -4z m1440
-6 c0 -5 -7 -7 -15 -4 -8 4 -15 8 -15 10 0 2 7 4 15 4 8 0 15 -4 15 -10z
m1340 0 c0 -5 -6 -10 -14 -10 -8 0 -18 5 -21 10 -3 6 3 10 14 10 12 0 21 -4
21 -10z"/>
<path d="M7155 16111 c-17 -8 -38 -18 -47 -23 -25 -12 -31 -10 -24 7 4 11 -1
15 -19 15 -16 0 -25 -6 -25 -16 0 -8 -5 -12 -11 -8 -16 10 -61 -17 -55 -33 3
-8 -1 -16 -9 -19 -8 -4 -15 -12 -15 -19 0 -8 -10 -11 -27 -8 -22 4 -25 2 -13
-6 13 -9 9 -16 -22 -44 -39 -34 -59 -89 -39 -101 16 -10 14 -29 -2 -23 -8 3
-20 1 -28 -4 -11 -7 -9 -10 8 -15 13 -4 20 -11 16 -17 -4 -6 -7 -23 -7 -37 -1
-14 -7 -25 -13 -25 -7 0 -13 -3 -13 -7 0 -5 0 -13 0 -19 0 -6 6 -9 14 -6 21 8
44 -34 40 -71 -6 -56 17 -95 84 -139 12 -9 22 -21 22 -28 0 -12 14 -22 33 -23
5 0 14 -8 21 -18 15 -20 36 -11 36 17 0 10 7 19 15 19 8 0 15 -4 15 -10 0 -5
-4 -10 -10 -10 -5 0 -10 -11 -10 -25 0 -15 6 -25 14 -25 7 0 19 -7 26 -15 14
-16 49 -11 62 9 5 7 8 5 8 -5 0 -11 9 -16 30 -16 18 0 30 6 30 14 0 7 5 13 10
13 6 0 10 -4 10 -10 0 -16 30 -12 36 5 3 8 15 17 25 20 11 4 33 20 50 35 16
16 29 25 29 20 0 -6 7 -10 16 -10 11 0 15 6 11 20 -3 13 1 24 13 30 10 5 21
21 24 35 5 19 12 25 28 23 12 -2 23 3 25 12 4 13 3 13 -6 0 -9 -13 -11 -12
-11 4 0 10 11 27 24 37 18 14 24 29 24 58 0 22 5 48 10 58 5 10 10 37 11 60 0
23 1 46 2 50 3 17 -26 73 -38 73 -7 0 -13 10 -13 21 0 13 -17 36 -42 58 -23
20 -52 46 -64 59 -12 12 -28 22 -36 22 -8 0 -19 5 -24 10 -6 6 -21 12 -33 15
-38 7 -61 16 -61 23 0 13 -75 8 -105 -7z m385 -215 c0 -2 -7 -7 -16 -10 -8 -3
-12 -2 -9 4 6 10 25 14 25 6z m-625 -106 c3 -5 2 -10 -4 -10 -5 0 -13 5 -16
10 -3 6 -2 10 4 10 5 0 13 -4 16 -10z m230 -110 c3 -5 1 -10 -4 -10 -6 0 -11
5 -11 10 0 6 2 10 4 10 3 0 8 -4 11 -10z m-220 -80 c3 -5 2 -10 -4 -10 -5 0
-13 5 -16 10 -3 6 -2 10 4 10 5 0 13 -4 16 -10z m202 -212 c-3 -8 -6 -5 -6 6
-1 11 2 17 5 13 3 -3 4 -12 1 -19z"/>
<path d="M12987 16112 c-9 -8 -27 -14 -41 -14 -14 0 -31 -7 -37 -14 -6 -8 -19
-14 -28 -14 -10 0 -26 -10 -37 -22 -11 -13 -42 -40 -67 -62 -26 -21 -47 -46
-47 -56 0 -10 -7 -20 -15 -24 -8 -3 -15 -14 -15 -24 0 -10 -3 -22 -7 -25 -8
-9 -4 -130 5 -137 4 -3 8 -23 10 -45 1 -26 11 -48 27 -65 28 -29 31 -45 13
-54 -7 -3 -3 -3 8 -1 21 5 40 -16 35 -38 -1 -5 8 -11 20 -14 14 -4 19 -11 16
-24 -6 -24 10 -34 28 -19 12 10 15 10 15 1 0 -14 24 -41 36 -41 4 0 22 -12 41
-26 26 -20 37 -23 47 -15 10 9 15 8 19 -4 7 -15 47 -17 58 -1 4 4 15 3 26 -3
29 -15 90 17 85 44 -2 11 -9 26 -14 33 -8 9 -5 12 11 12 16 0 21 -6 21 -25 0
-28 16 -31 44 -10 10 8 23 12 29 8 6 -3 7 -1 3 5 -3 6 19 35 50 65 45 43 58
63 64 98 5 24 5 48 0 53 -8 8 23 46 39 46 5 0 12 7 15 16 8 20 8 24 -1 23 -22
-4 -28 4 -29 35 0 27 4 36 20 40 18 5 19 8 6 16 -8 5 -23 7 -32 4 -22 -7 -23
9 -3 26 17 14 20 40 5 40 -5 0 -10 9 -10 20 0 11 -5 20 -11 20 -5 0 -7 5 -3
12 4 6 3 8 -3 5 -14 -9 -47 29 -38 42 3 6 1 11 -4 11 -6 0 -11 8 -12 18 -1 11
-4 9 -9 -8 -5 -15 -8 -18 -9 -9 -1 9 -8 19 -16 23 -8 3 -15 10 -15 16 0 6 -7
19 -16 27 -12 13 -20 14 -34 5 -14 -9 -17 -7 -16 6 1 11 -8 18 -21 20 -16 2
-23 -2 -23 -12 0 -9 -4 -16 -10 -16 -5 0 -10 5 -10 10 0 6 -10 10 -23 10 -13
0 -28 5 -34 11 -18 18 -89 19 -106 1z m368 -322 c-3 -5 -11 -10 -16 -10 -6 0
-7 5 -4 10 3 6 11 10 16 10 6 0 7 -4 4 -10z m-235 -116 c0 -8 -5 -12 -10 -9
-6 4 -8 11 -5 16 9 14 15 11 15 -7z m235 -74 c-3 -5 -10 -10 -16 -10 -5 0 -9
5 -9 10 0 6 7 10 16 10 8 0 12 -4 9 -10z m-45 -50 c0 -5 -5 -10 -11 -10 -5 0
-7 5 -4 10 3 6 8 10 11 10 2 0 4 -4 4 -10z m-170 -144 c0 -3 -4 -8 -10 -11 -5
-3 -10 -1 -10 4 0 6 5 11 10 11 6 0 10 -2 10 -4z"/>
<path d="M10026 16034 c-3 -8 -15 -14 -26 -14 -11 0 -20 -4 -20 -8 0 -5 -16
-14 -35 -22 -37 -15 -65 -48 -68 -81 -1 -10 -9 -22 -19 -25 -10 -3 -18 -15
-18 -28 0 -13 -9 -31 -20 -41 -13 -11 -18 -25 -15 -37 4 -10 -1 -28 -9 -40 -9
-12 -16 -32 -16 -44 0 -12 -6 -24 -12 -27 -9 -3 -7 -10 7 -21 16 -12 17 -15 5
-16 -12 0 -16 -13 -18 -49 -1 -28 3 -53 9 -56 5 -4 14 -18 20 -32 5 -13 13
-22 18 -18 5 3 12 1 16 -5 3 -5 1 -10 -4 -10 -6 0 -11 -9 -11 -20 0 -11 5 -19
11 -17 6 1 16 -7 22 -17 22 -37 51 -66 64 -66 7 0 13 -4 13 -9 0 -5 14 -14 30
-20 26 -9 32 -8 37 6 4 9 1 19 -5 21 -7 2 -10 8 -6 13 10 17 22 9 32 -20 9
-26 16 -30 66 -36 31 -4 80 -4 110 -1 48 6 56 11 66 37 14 32 35 40 25 9 -10
-30 2 -41 30 -28 14 6 25 15 25 20 0 4 9 8 21 8 12 0 23 8 26 20 3 11 11 20
18 20 8 0 17 14 20 31 5 20 10 27 15 19 5 -8 9 -7 13 5 4 9 1 18 -8 21 -8 4
-13 10 -10 15 3 4 11 6 18 4 21 -8 54 66 46 103 -4 21 -3 32 5 32 6 0 3 7 -6
14 -22 16 -23 26 -4 26 12 0 11 7 -4 37 -10 21 -16 41 -13 45 2 5 -1 8 -8 8
-7 0 -9 10 -6 29 4 21 1 34 -13 46 -10 9 -20 27 -22 38 -2 12 -13 27 -25 33
-13 6 -20 14 -17 17 16 15 -19 65 -57 82 -24 11 -35 21 -28 25 6 4 0 9 -15 12
-15 3 -26 1 -27 -6 0 -6 -5 -1 -11 11 -10 20 -18 22 -108 22 -76 0 -100 -4
-104 -15z m340 -661 c-3 -3 -13 -3 -22 1 -13 5 -14 9 -3 22 11 14 13 14 22 -1
5 -9 6 -19 3 -22z m-446 12 c0 -8 -7 -15 -15 -15 -8 0 -15 7 -15 15 0 8 7 15
15 15 8 0 15 -7 15 -15z m397 -27 c-3 -8 -6 -5 -6 6 -1 11 2 17 5 13 3 -3 4
-12 1 -19z m-367 2 c0 -5 -4 -10 -10 -10 -5 0 -10 5 -10 10 0 6 5 10 10 10 6
0 10 -4 10 -10z"/>
<path d="M7845 19350 c-3 -5 -1 -10 4 -10 6 0 11 5 11 10 0 6 -2 10 -4 10 -3
0 -8 -4 -11 -10z"/>
<path d="M16310 17040 c0 -5 5 -10 11 -10 5 0 7 5 4 10 -3 6 -8 10 -11 10 -2
0 -4 -4 -4 -10z"/>
<path d="M16780 15563 c0 -5 5 -15 10 -23 7 -12 9 -10 7 8 -1 19 -17 33 -17
15z"/>
<path d="M3595 14810 c3 -5 8 -10 11 -10 2 0 4 5 4 10 0 6 -5 10 -11 10 -5 0
-7 -4 -4 -10z"/>
<path d="M16645 14810 c-3 -5 -1 -10 4 -10 6 0 11 5 11 10 0 6 -2 10 -4 10 -3
0 -8 -4 -11 -10z"/>
<path d="M4280 13850 c0 -6 7 -13 15 -17 24 -9 27 1 5 15 -13 8 -20 8 -20 2z"/>
<path d="M15950 13845 c-8 -9 -8 -15 -2 -15 12 0 26 19 19 26 -2 2 -10 -2 -17
-11z"/>
<path d="M13940 12880 c0 -5 5 -10 11 -10 5 0 7 5 4 10 -3 6 -8 10 -11 10 -2
0 -4 -4 -4 -10z"/>
<path d="M14285 10853 c-160 -16 -163 -17 -177 -31 -7 -7 -28 -12 -47 -12 -46
0 -121 -21 -192 -53 -31 -14 -59 -23 -63 -20 -7 7 -66 -17 -66 -26 0 -4 -24
-13 -52 -20 -29 -8 -60 -19 -68 -25 -28 -21 -60 -36 -75 -36 -8 0 -15 -4 -15
-10 0 -5 -5 -10 -10 -10 -13 0 -72 -41 -83 -57 -4 -6 -35 -30 -70 -54 -94 -64
-257 -206 -257 -224 0 -3 -19 -25 -43 -48 -24 -23 -49 -51 -57 -63 -8 -12 -39
-48 -69 -81 -30 -33 -54 -64 -54 -69 -1 -5 -11 -20 -24 -34 -13 -14 -23 -30
-23 -36 0 -6 -6 -17 -14 -23 -18 -16 -56 -87 -56 -106 0 -8 -4 -15 -10 -15 -5
0 -15 -18 -21 -40 -7 -21 -15 -37 -19 -35 -4 2 -15 -24 -25 -58 -11 -34 -24
-71 -31 -82 -7 -11 -20 -46 -29 -77 -9 -32 -21 -60 -26 -63 -5 -4 -9 -20 -9
-36 0 -17 -12 -50 -26 -74 -14 -25 -23 -49 -20 -54 6 -9 -7 -55 -30 -108 -8
-18 -16 -56 -17 -85 -1 -29 -6 -59 -10 -65 -5 -8 -4 -13 2 -13 13 0 9 -53 -5
-72 -11 -16 -11 -160 0 -241 5 -36 14 -61 25 -67 9 -6 11 -10 4 -10 -16 0 -17
-36 -3 -45 6 -4 10 -22 8 -40 -1 -18 4 -40 10 -48 7 -8 10 -21 7 -30 -4 -8 0
-30 8 -48 7 -19 19 -62 27 -96 7 -35 17 -63 21 -63 5 0 8 -3 7 -7 -3 -17 110
-253 122 -253 4 0 18 -21 31 -46 13 -26 33 -53 46 -61 12 -8 25 -22 27 -31 3
-10 16 -28 29 -42 12 -14 43 -54 69 -90 69 -96 127 -159 128 -137 0 9 5 17 10
17 6 0 10 -6 9 -12 -4 -26 14 -68 29 -68 8 0 13 -3 9 -6 -8 -8 71 -74 89 -74
8 0 14 -7 14 -15 0 -9 8 -19 17 -22 10 -4 32 -22 49 -41 18 -19 37 -32 43 -28
6 4 11 1 11 -7 0 -15 65 -60 87 -60 7 0 15 -9 19 -19 4 -12 15 -18 36 -18 17
0 28 -3 25 -7 -11 -11 63 -55 84 -50 10 3 16 1 13 -4 -3 -5 3 -12 13 -16 10
-3 26 -13 36 -21 9 -8 17 -12 17 -8 0 4 14 -4 31 -18 17 -14 35 -24 40 -21 4
3 22 -1 39 -10 17 -9 40 -13 50 -10 14 4 20 2 20 -8 0 -16 27 -30 41 -21 5 3
9 0 9 -5 0 -6 11 -11 25 -11 15 0 25 6 25 14 0 7 11 16 25 18 21 4 25 1 25
-17 0 -42 56 -64 175 -68 46 -1 84 -7 90 -14 6 -6 56 -14 115 -18 154 -11 267
-6 420 19 52 9 111 18 130 20 19 3 51 11 70 19 66 26 75 30 90 32 27 3 144 48
169 64 14 9 29 16 35 17 22 2 96 37 96 46 0 4 5 8 11 8 23 0 140 64 150 82 5
10 16 18 24 18 29 0 151 83 205 139 30 32 72 70 92 85 44 33 228 250 228 269
0 6 43 57 82 98 14 15 29 25 32 22 3 -3 9 3 13 13 4 10 15 28 25 38 10 11 18
25 18 32 0 7 5 14 12 16 8 3 12 21 11 46 -1 30 2 42 12 42 19 0 45 39 45 67 0
13 4 23 10 23 12 0 42 69 37 84 -2 6 3 17 11 25 9 9 12 25 8 42 -3 18 -1 31 8
36 22 14 48 96 52 163 1 36 6 74 10 84 5 13 3 21 -5 24 -9 3 -9 7 0 18 13 16
23 127 22 239 -1 109 -3 126 -19 150 -12 19 -13 27 -3 43 11 17 10 26 -6 82
-1 3 -5 28 -9 57 -5 31 -12 51 -19 49 -7 -1 -9 -1 -4 1 10 7 9 41 -3 48 -5 3
-10 16 -10 28 0 24 -22 93 -33 103 -4 4 -7 17 -7 29 0 11 -9 38 -20 60 -11 22
-20 50 -20 62 0 13 -7 26 -15 29 -9 4 -14 11 -13 18 3 20 -26 100 -54 149 -15
26 -28 52 -28 57 0 6 -4 10 -9 10 -9 0 -24 38 -22 53 2 13 -26 37 -34 29 -4
-4 -5 3 -1 14 4 14 1 28 -9 37 -8 9 -15 22 -15 30 0 8 -7 17 -15 21 -8 3 -15
12 -15 20 0 8 -4 16 -8 18 -14 5 -92 120 -92 135 0 7 -23 35 -51 61 -28 26
-75 70 -105 97 -81 77 -130 115 -146 115 -9 0 -21 7 -28 15 -7 8 -18 15 -26
15 -7 0 -19 9 -27 20 -8 11 -17 17 -20 13 -4 -3 -7 1 -7 11 0 9 -8 20 -17 23
-10 4 -30 15 -45 26 -14 11 -31 16 -38 12 -6 -4 -20 3 -31 16 -10 12 -19 18
-19 13 0 -5 -4 -4 -8 2 -4 6 -20 18 -37 26 -16 8 -51 27 -77 41 -26 14 -67 31
-90 37 -24 7 -50 18 -58 25 -16 15 -17 15 -56 15 -16 0 -23 4 -18 12 5 8 0 9
-16 5 -14 -4 -72 7 -137 24 -82 22 -141 31 -216 33 -56 2 -102 5 -102 6 0 8
-254 3 -360 -7z"/>
<path d="M5585 10789 c-2 -3 -39 -6 -82 -7 -43 -1 -92 -4 -110 -6 -31 -4 -243
-54 -273 -64 -8 -2 -26 -5 -40 -5 -14 -1 -31 -7 -38 -14 -7 -7 -25 -15 -40
-18 -15 -3 -40 -12 -55 -20 -16 -8 -34 -15 -41 -15 -7 0 -30 -13 -52 -30 -21
-16 -47 -30 -56 -30 -10 0 -18 -5 -18 -12 0 -6 -3 -8 -6 -5 -4 4 -15 -2 -24
-14 -10 -11 -22 -19 -26 -17 -17 4 -52 -13 -58 -27 -3 -8 -15 -15 -26 -15 -12
0 -20 -7 -20 -17 0 -9 -2 -14 -5 -11 -3 3 -20 -8 -37 -23 -16 -16 -42 -32 -57
-36 -14 -3 -32 -15 -39 -25 -8 -10 -31 -30 -53 -44 -22 -13 -65 -52 -97 -84
-31 -33 -60 -60 -65 -60 -12 0 -56 -53 -57 -67 0 -7 -19 -40 -42 -73 -24 -34
-47 -69 -53 -78 -5 -9 -16 -21 -22 -25 -7 -4 -13 -14 -13 -21 0 -8 -7 -19 -15
-26 -9 -8 -13 -22 -10 -39 3 -14 2 -20 -1 -13 -8 18 -29 -12 -39 -56 -3 -18
-11 -29 -16 -26 -6 3 -9 0 -8 -7 2 -8 -11 -36 -29 -63 -18 -28 -32 -55 -32
-62 0 -7 -5 -25 -12 -41 -6 -15 -10 -33 -9 -39 0 -6 -6 -17 -14 -24 -8 -7 -15
-25 -15 -41 0 -16 -4 -29 -9 -29 -4 0 -14 -21 -21 -47 -7 -27 -21 -67 -31 -90
-10 -24 -19 -52 -19 -62 0 -11 -5 -32 -12 -46 -10 -22 -9 -28 3 -36 12 -7 11
-9 -2 -9 -18 0 -36 -61 -24 -80 3 -6 1 -10 -4 -10 -6 0 -10 -3 -9 -7 1 -5 -2
-23 -6 -41 -5 -21 -4 -38 4 -47 9 -10 8 -19 -1 -37 -7 -13 -15 -39 -17 -58
-12 -100 0 -313 18 -335 6 -7 6 -15 -1 -22 -6 -6 -8 -17 -3 -24 4 -7 9 -43 10
-79 2 -66 27 -149 50 -163 8 -5 11 -19 7 -42 -4 -26 -2 -36 10 -41 9 -3 14
-11 11 -18 -6 -16 23 -86 36 -86 6 0 10 -11 10 -24 0 -27 37 -79 51 -71 5 4 9
-13 9 -37 0 -27 8 -52 20 -68 11 -14 20 -31 20 -37 0 -7 5 -13 10 -13 6 0 10
-7 10 -16 0 -12 6 -15 21 -11 15 4 19 2 15 -8 -3 -8 3 -16 12 -19 9 -3 28 -23
42 -43 14 -21 27 -40 30 -43 4 -3 19 -23 35 -45 32 -43 102 -131 122 -153 7
-7 16 -19 20 -26 5 -7 30 -29 56 -49 26 -20 75 -66 109 -102 34 -36 65 -65 71
-65 5 0 36 -18 68 -39 33 -22 57 -36 54 -30 -4 5 -2 9 4 9 6 0 15 -9 21 -20
10 -18 301 -168 360 -185 14 -4 39 -13 55 -20 67 -27 164 -56 225 -66 196 -32
311 -45 390 -43 142 4 254 14 260 24 3 6 40 12 81 15 149 9 192 25 182 66 -4
15 0 19 21 19 16 0 26 -5 26 -15 0 -9 9 -15 25 -15 14 0 25 5 25 11 0 5 4 8 9
5 14 -9 41 4 41 20 0 17 17 19 22 2 3 -8 16 -5 41 11 20 12 41 20 46 17 5 -3
33 10 62 29 30 19 59 35 66 35 7 0 13 5 13 10 0 6 7 10 15 10 25 0 85 34 81
46 -3 7 3 10 14 7 9 -3 26 4 36 14 11 11 40 30 67 43 26 14 47 31 47 37 0 7 7
13 15 13 8 0 20 9 27 20 7 11 16 20 20 20 5 0 26 18 48 40 22 22 43 40 48 40
12 0 67 52 65 61 -2 5 4 9 12 9 18 0 37 43 29 65 -4 8 -1 15 5 15 6 0 11 -7
11 -15 0 -22 15 -18 33 8 8 12 27 36 41 52 15 17 39 48 54 70 15 22 32 46 39
52 6 7 26 35 44 63 18 27 38 50 45 50 8 0 23 18 33 39 11 21 27 46 36 54 15
16 85 146 85 160 0 4 16 41 36 83 20 42 39 94 41 117 3 23 9 47 13 52 15 19
40 150 42 218 0 15 4 27 8 27 19 0 35 284 17 307 -5 7 -7 19 -4 27 3 8 1 17
-6 19 -9 3 -9 7 0 19 7 8 10 17 7 21 -3 3 -8 31 -10 62 -2 31 -10 71 -18 88
-19 43 -27 71 -31 112 -2 19 -12 46 -24 61 -12 15 -21 41 -21 60 0 18 -4 35
-9 38 -5 3 -19 37 -30 76 -12 38 -25 70 -29 70 -4 0 -13 23 -20 52 -6 29 -19
56 -27 61 -8 4 -15 17 -15 27 0 29 -21 70 -36 70 -7 0 -11 6 -8 14 6 16 -34
96 -52 103 -8 3 -14 13 -14 23 0 10 -10 27 -22 37 -13 10 -23 23 -23 30 0 6
-25 40 -55 74 -30 35 -73 83 -95 108 -22 25 -48 52 -57 59 -10 7 -18 17 -18
22 0 20 -250 239 -275 240 -14 1 -55 36 -55 47 0 5 -20 20 -45 32 -25 12 -45
27 -45 33 0 5 -6 8 -14 5 -8 -3 -20 1 -26 9 -7 8 -21 14 -31 14 -11 0 -19 4
-19 9 0 5 -10 11 -22 14 -31 7 -92 31 -98 38 -5 7 -47 22 -65 24 -20 2 -70 18
-80 25 -25 18 -99 40 -152 45 -32 4 -62 10 -68 15 -14 11 -83 24 -130 25 -22
0 -44 3 -50 7 -17 9 -355 17 -360 7z m2140 -2159 c3 -5 2 -10 -4 -10 -5 0 -13
5 -16 10 -3 6 -2 10 4 10 5 0 13 -4 16 -10z"/>
<path d="M2030 7116 c-38 -15 -59 -31 -68 -50 -8 -15 -20 -30 -28 -33 -8 -3
-14 -13 -14 -22 0 -9 -9 -27 -20 -41 -11 -14 -20 -28 -20 -32 0 -4 -13 -26
-29 -50 -25 -37 -58 -143 -60 -188 -1 -41 -11 -167 -15 -185 -6 -27 -18 -284
-20 -420 -1 -60 -5 -116 -10 -124 -6 -10 -5 -16 2 -19 7 -2 12 -16 12 -30 0
-37 26 -167 46 -227 9 -27 17 -57 18 -67 1 -9 8 -23 15 -32 7 -9 11 -24 8 -35
-3 -14 0 -17 12 -14 14 3 17 -3 18 -32 1 -23 9 -45 23 -60 15 -16 21 -32 18
-49 -3 -15 -1 -26 3 -26 5 0 9 -9 9 -20 0 -26 28 -70 45 -70 7 0 19 -8 26 -17
8 -9 9 -14 4 -11 -6 4 -16 4 -22 0 -7 -5 6 -33 39 -82 27 -41 54 -76 58 -78 5
-2 6 -10 3 -18 -3 -8 -1 -14 4 -14 5 0 17 -17 26 -37 9 -21 30 -47 46 -58 17
-11 29 -21 27 -22 -1 -2 23 -29 54 -61 31 -31 59 -64 62 -73 4 -9 20 -23 37
-30 16 -7 28 -16 26 -20 -3 -3 9 -19 25 -34 17 -16 30 -26 30 -23 0 4 16 -9
36 -29 25 -24 42 -33 56 -30 11 3 18 3 15 0 -13 -12 90 -93 119 -93 9 0 12 -5
8 -11 -4 -7 0 -9 12 -5 14 4 22 -1 29 -17 10 -21 144 -97 172 -97 7 0 13 -6
13 -14 0 -8 12 -17 26 -20 14 -4 43 -18 65 -31 21 -14 45 -25 52 -25 7 0 22
-7 33 -15 10 -8 28 -15 39 -15 12 0 25 -4 30 -9 6 -5 56 -23 112 -41 56 -17
103 -36 105 -42 2 -6 20 -11 39 -10 40 1 118 -23 133 -42 10 -12 82 -28 126
-28 44 0 145 -41 154 -63 3 -8 9 -14 13 -14 4 1 17 -2 28 -6 18 -8 27 -16 63
-60 5 -6 6 -17 4 -24 -3 -8 1 -12 9 -9 14 5 42 -58 33 -74 -3 -4 1 -8 9 -8 17
0 36 -64 40 -132 1 -27 5 -48 8 -48 3 0 7 -12 7 -27 0 -16 6 -55 12 -88 6 -33
13 -80 15 -105 13 -160 14 -180 5 -180 -6 0 -10 -5 -10 -11 0 -5 4 -8 8 -5 5
3 8 -19 8 -47 0 -29 4 -62 8 -74 6 -18 3 -23 -10 -23 -12 0 -14 -4 -7 -12 17
-22 28 -91 25 -160 -2 -58 -5 -66 -20 -62 -10 4 -13 3 -6 -3 19 -15 26 -47 29
-130 2 -45 6 -87 9 -92 4 -5 2 -12 -3 -16 -6 -3 -8 -12 -4 -20 3 -9 -1 -15
-11 -15 -9 0 -16 -5 -16 -11 0 -6 7 -8 16 -5 13 5 14 2 9 -11 -4 -10 -9 -116
-11 -235 -1 -120 -5 -264 -9 -320 -4 -57 -7 -111 -7 -120 0 -10 -2 -18 -6 -18
-4 0 -8 -57 -8 -128 -1 -70 -5 -158 -10 -197 -4 -38 -8 -109 -8 -158 0 -48 -3
-87 -7 -87 -4 0 -7 -15 -7 -32 0 -66 -10 -217 -16 -226 -3 -6 -8 -48 -11 -94
-3 -45 -8 -108 -10 -140 -4 -54 -3 -56 23 -63 34 -9 55 -12 173 -19 52 -4 108
-9 123 -12 16 -2 35 1 44 8 12 10 14 10 8 1 -5 -9 0 -13 16 -14 13 -1 38 -3
57 -5 28 -3 32 -1 27 14 -5 15 -5 15 8 -1 20 -25 82 -32 134 -14 35 12 42 12
42 1 0 -12 8 -16 30 -16 3 0 16 3 29 7 15 5 21 3 17 -3 -4 -7 4 -6 23 1 16 6
32 20 35 30 3 14 11 18 23 14 10 -3 27 -9 39 -12 13 -4 27 -1 37 9 18 18 43
21 52 6 4 -6 14 -10 23 -8 10 1 28 -4 41 -11 21 -12 26 -11 36 2 10 14 12 14
22 -1 11 -16 12 -16 12 1 1 10 6 15 11 12 6 -4 8 -10 6 -14 -8 -12 27 -10 42
2 15 12 181 16 230 6 28 -6 32 -5 28 8 -5 12 -1 14 19 11 14 -3 25 -1 25 4 0
11 44 -1 48 -14 2 -5 11 -3 19 4 12 10 17 9 28 -5 15 -21 35 -22 35 -2 0 8 5
15 10 15 6 0 10 -7 10 -15 0 -11 6 -12 22 -6 13 4 35 5 50 0 23 -6 31 -3 43
14 11 15 18 18 23 10 4 -6 20 -14 36 -17 21 -4 26 -2 22 10 -8 21 7 17 29 -8
l20 -23 3 23 c4 26 32 30 32 5 0 -15 2 -16 10 -3 5 8 10 12 10 8 0 -4 11 -3
25 2 19 7 23 6 19 -4 -9 -24 13 -27 78 -12 34 8 67 12 72 8 23 -14 63 -10 88
8 18 13 28 16 30 8 6 -17 71 -13 99 5 32 20 107 27 95 9 -2 -4 14 -8 37 -9 23
0 36 1 30 4 -7 2 -13 9 -13 14 0 5 25 6 58 3 31 -3 74 -7 95 -7 23 -1 37 -6
37 -14 0 -8 12 -13 33 -12 17 1 24 3 15 6 -10 2 -18 9 -18 14 0 13 13 11 38
-7 18 -12 22 -12 22 -2 0 8 -5 19 -10 24 -7 7 0 10 24 10 24 -1 36 -6 40 -18
3 -15 -1 -17 -22 -13 -16 3 -10 -1 13 -10 40 -16 88 -13 112 7 7 6 20 8 28 4
8 -3 25 -2 38 3 14 5 30 5 40 0 13 -8 17 -6 17 6 0 9 9 15 25 15 14 0 25 6 25
13 0 6 5 4 11 -6 6 -11 20 -17 32 -16 12 2 32 -3 45 -9 20 -12 22 -11 23 10
l0 23 11 -23 c13 -27 24 -28 36 -4 7 12 16 335 12 427 0 6 -2 46 -5 90 -3 44
-7 105 -9 135 -2 30 1 61 7 68 6 8 6 12 -2 12 -7 0 -10 4 -7 8 3 4 1 24 -3 43
-4 19 -4 45 0 57 5 14 4 22 -2 22 -6 0 -10 25 -8 63 1 34 -2 77 -6 95 -5 23
-4 32 5 32 9 0 10 4 2 13 -7 8 -11 63 -10 143 1 79 -3 137 -10 150 -6 12 -9
24 -5 27 10 11 13 90 4 124 -7 26 -6 33 5 33 18 0 18 5 0 33 -9 14 -16 67 -21
147 -3 69 -8 139 -9 155 -2 17 -6 71 -10 120 -4 50 -11 122 -17 160 -5 39 -9
81 -9 95 1 14 -2 79 -7 145 -4 66 -7 164 -8 218 0 53 -2 97 -5 97 -9 0 -5 124
4 139 5 8 4 16 -5 22 -12 8 -12 10 0 18 11 7 12 15 3 38 -12 29 -15 61 -13
126 1 35 3 38 24 31 43 -13 68 -49 67 -96 -1 -23 6 -101 15 -173 18 -145 23
-199 28 -296 3 -37 7 -71 11 -77 3 -6 1 -12 -6 -14 -9 -3 -8 -11 4 -29 17 -27
26 -132 18 -229 -1 -14 1 -41 4 -60 5 -35 14 -148 22 -286 2 -40 8 -84 14 -99
8 -20 7 -31 -2 -42 -9 -11 -9 -16 1 -23 10 -5 12 -26 9 -74 -2 -36 0 -67 5
-69 12 -4 20 -137 9 -137 -12 0 -11 -34 1 -42 13 -8 21 -71 20 -165 -1 -40 3
-73 8 -73 5 0 9 -21 8 -47 -1 -27 2 -104 6 -173 4 -69 9 -204 11 -300 5 -196
12 -392 18 -460 3 -25 6 -66 7 -92 2 -31 6 -45 13 -40 6 3 25 7 41 7 17 0 40
4 53 8 14 5 22 4 22 -2 0 -6 -8 -11 -17 -11 -15 0 -16 -2 -3 -10 19 -13 60
-13 60 0 0 5 6 7 13 4 8 -3 20 2 27 10 7 9 16 14 20 11 5 -3 12 -1 15 5 5 8
11 7 21 -1 11 -9 17 -9 28 0 12 10 20 9 41 -5 24 -15 27 -16 44 0 15 13 24 14
46 6 23 -9 34 -6 70 14 23 14 52 24 63 21 12 -2 23 3 27 13 7 18 26 164 25
197 0 11 -3 117 -5 235 -6 283 -12 430 -19 460 -7 30 -16 130 -22 227 -2 40
-9 153 -14 250 -6 98 -12 192 -14 208 -6 42 -34 327 -35 345 -1 52 -14 170
-21 195 -5 17 -12 50 -14 75 -6 50 -20 132 -34 198 -5 23 -6 42 -1 42 4 0 2
18 -6 40 -8 22 -12 47 -8 55 3 9 1 21 -5 28 -5 6 -12 36 -16 66 -4 30 -14 70
-23 90 -9 20 -15 40 -14 45 1 4 -2 13 -7 20 -5 6 -8 27 -7 46 1 19 -5 49 -13
65 -9 17 -17 35 -19 40 -2 10 -29 117 -40 165 -3 14 -13 35 -20 47 -8 12 -12
27 -9 32 4 6 0 25 -7 43 -8 18 -12 39 -10 45 5 13 -16 78 -48 150 -11 24 -19
47 -19 53 0 10 -3 18 -32 76 -14 28 -14 32 1 42 15 10 15 12 0 24 -15 12 -32
61 -34 98 -1 17 -20 66 -35 92 -6 10 -10 22 -10 28 0 25 -44 100 -59 101 -10
0 -11 2 -3 6 16 6 15 40 -1 46 -18 7 -41 89 -32 116 5 16 2 21 -12 21 -23 1
-57 72 -49 103 6 27 -1 38 -36 56 -16 8 -28 22 -28 31 0 10 -7 23 -16 30 -8 7
-14 23 -13 34 2 12 -12 43 -29 70 -18 28 -32 58 -32 69 0 10 -4 16 -8 13 -4
-2 -20 22 -35 54 -15 32 -39 70 -52 84 -14 15 -25 34 -25 42 0 7 -7 14 -15 14
-8 0 -15 8 -15 18 0 23 -56 112 -70 112 -6 0 -10 6 -9 13 4 32 -3 46 -31 57
-16 7 -30 16 -30 21 0 5 -8 5 -17 2 -12 -5 -15 -2 -10 9 3 10 -9 32 -34 60
-21 23 -39 46 -39 50 0 16 -51 57 -64 52 -10 -4 -16 5 -21 25 -4 17 -12 31
-19 31 -7 0 -35 25 -64 56 -32 34 -56 52 -64 48 -8 -5 -9 -2 -5 9 3 10 2 17
-3 17 -6 0 -10 -4 -10 -10 0 -5 -7 -10 -15 -10 -9 0 -15 9 -15 23 0 22 -52 57
-86 57 -8 0 -19 11 -24 24 -5 15 -20 27 -39 31 -22 5 -31 13 -31 26 0 13 -7
19 -22 19 -13 0 -36 9 -53 21 -31 21 -73 41 -90 43 -39 5 -125 31 -125 37 0 5
-6 6 -12 4 -10 -4 -319 -14 -433 -15 -66 0 -217 -31 -270 -55 -16 -8 -55 -25
-85 -38 -30 -13 -61 -31 -69 -40 -7 -9 -17 -15 -21 -12 -4 2 -22 -11 -40 -30
-18 -18 -38 -31 -44 -29 -7 3 -29 -10 -49 -28 -19 -18 -60 -55 -91 -83 -31
-27 -56 -55 -56 -62 0 -6 -9 -15 -21 -18 -11 -4 -18 -9 -16 -11 4 -5 -59 -67
-145 -144 -21 -18 -35 -37 -31 -43 3 -6 1 -7 -5 -3 -7 4 -12 3 -12 -1 0 -5
-15 -17 -32 -28 -18 -10 -61 -47 -96 -82 -34 -35 -64 -63 -66 -63 -3 0 -19
-14 -38 -30 -57 -52 -79 -70 -83 -70 -2 0 -24 -13 -48 -30 -25 -16 -49 -30
-55 -30 -5 0 -13 -7 -16 -16 -3 -8 -10 -13 -14 -10 -5 3 -21 -4 -38 -15 -16
-10 -35 -19 -42 -19 -7 0 -30 -11 -52 -25 -22 -14 -47 -25 -55 -25 -9 0 -34
-9 -55 -19 -22 -11 -40 -15 -40 -11 0 5 -13 2 -30 -6 -16 -8 -52 -15 -80 -16
-27 0 -53 -4 -56 -9 -8 -13 -52 -11 -57 4 -4 9 -7 9 -14 0 -5 -7 -25 -13 -43
-14 -89 -2 -178 2 -205 11 -16 5 -43 11 -60 13 -41 7 -65 17 -65 29 0 7 -5 6
-14 -1 -19 -16 -58 1 -79 33 -10 14 -24 26 -31 26 -24 0 -117 53 -127 72 -6
11 -20 23 -32 27 -12 5 -29 21 -37 37 -18 34 -57 74 -64 66 -3 -3 -6 6 -6 20
0 14 -9 33 -20 43 -11 10 -18 20 -16 23 3 2 -1 11 -9 19 -8 8 -15 20 -15 26 0
7 4 6 10 -3 5 -8 10 -10 10 -5 0 6 -7 21 -16 33 -8 12 -13 26 -9 31 3 5 -3 12
-14 16 -11 3 -19 15 -19 28 -1 24 -8 72 -12 72 -1 0 -4 13 -6 30 -3 16 -9 34
-13 40 -5 5 -8 41 -7 78 1 38 -2 71 -6 73 -3 2 -4 20 -1 39 4 22 2 35 -5 35
-7 0 -8 8 -3 22 10 27 3 64 -15 79 -19 15 -18 33 1 25 9 -3 15 0 15 9 0 8 -4
15 -9 15 -6 0 -6 12 1 30 5 17 7 43 4 58 -3 15 -9 38 -11 52 -3 14 -8 31 -10
38 -2 6 -1 12 3 12 11 0 31 57 23 65 -3 4 -6 23 -7 43 -2 72 -17 138 -45 199
-16 34 -29 67 -29 73 0 19 -68 76 -122 103 -74 36 -132 60 -140 59 -5 -1 -8 3
-8 9 0 5 -3 8 -8 5 -4 -2 -34 2 -67 10 -84 19 -141 17 -205 -10z m620 -846 c0
-5 -4 -10 -10 -10 -5 0 -10 5 -10 10 0 6 5 10 10 10 6 0 10 -4 10 -10z m3830
-240 c0 -11 -7 -20 -15 -20 -15 0 -21 21 -8 33 12 13 23 7 23 -13z m1010
-5164 c0 -3 -4 -8 -10 -11 -5 -3 -10 -1 -10 4 0 6 5 11 10 11 6 0 10 -2 10 -4z
m293 -13 c-7 -2 -19 -2 -25 0 -7 3 -2 5 12 5 14 0 19 -2 13 -5z m-2008 -43 c3
-5 2 -10 -4 -10 -5 0 -13 5 -16 10 -3 6 -2 10 4 10 5 0 13 -4 16 -10z"/>
<path d="M18040 7126 c-30 -8 -58 -12 -62 -10 -5 3 -8 0 -8 -5 0 -6 -3 -10 -7
-9 -9 1 -67 -23 -141 -59 -54 -27 -122 -84 -122 -103 0 -6 -13 -39 -29 -73
-30 -65 -45 -136 -43 -199 1 -20 -3 -40 -7 -43 -10 -6 9 -65 21 -65 4 0 5 -6
3 -12 -2 -7 -7 -24 -10 -38 -2 -14 -8 -37 -11 -52 -3 -15 -1 -41 4 -58 7 -18
7 -30 1 -30 -5 0 -9 -7 -9 -15 0 -9 6 -12 15 -9 19 8 20 -10 1 -25 -18 -15
-25 -52 -15 -79 5 -14 4 -22 -3 -22 -7 0 -9 -13 -5 -35 3 -19 2 -37 -1 -39 -4
-2 -7 -35 -6 -73 1 -37 -2 -73 -7 -78 -4 -6 -10 -24 -13 -40 -2 -17 -5 -30 -6
-30 -4 0 -11 -48 -12 -72 0 -13 -8 -25 -19 -28 -11 -4 -17 -11 -13 -16 3 -6
-1 -21 -10 -34 -9 -13 -16 -28 -16 -32 0 -4 5 -1 10 7 6 9 10 10 10 3 0 -6 -7
-18 -15 -26 -8 -8 -12 -17 -9 -19 2 -3 -5 -13 -16 -23 -11 -10 -20 -29 -20
-43 0 -14 -3 -23 -6 -20 -7 8 -46 -32 -64 -66 -8 -16 -25 -32 -37 -37 -12 -4
-26 -16 -32 -27 -10 -19 -103 -72 -127 -72 -7 0 -21 -12 -31 -26 -21 -32 -60
-49 -79 -33 -9 7 -14 8 -14 1 0 -12 -24 -22 -65 -29 -16 -2 -43 -8 -60 -13
-27 -9 -116 -13 -205 -11 -18 1 -38 7 -43 14 -7 9 -10 9 -14 0 -5 -15 -49 -17
-57 -4 -3 5 -29 9 -56 9 -28 1 -64 8 -80 16 -17 8 -30 11 -30 6 0 -4 -18 0
-40 11 -21 10 -46 19 -55 19 -8 0 -33 11 -55 25 -22 14 -44 25 -50 25 -14 0
-94 43 -98 53 -2 4 -8 7 -14 7 -6 0 -30 14 -55 30 -24 17 -46 30 -48 30 -4 0
-26 18 -83 70 -19 16 -35 30 -37 30 -2 0 -37 33 -79 74 -42 41 -85 77 -96 81
-11 3 -20 11 -20 16 0 6 -5 7 -12 3 -6 -4 -8 -3 -5 3 4 6 -36 49 -89 97 -52
47 -92 86 -90 86 7 0 -131 135 -177 175 -20 17 -43 30 -51 30 -8 0 -31 16 -51
35 -19 18 -35 30 -35 26 0 -4 -14 4 -31 18 -17 14 -43 29 -57 32 -15 4 -47 17
-72 29 -25 12 -63 27 -85 33 -38 10 -172 31 -205 32 -8 0 -85 2 -170 4 l-155
5 -22 -27 c-17 -21 -22 -23 -23 -10 0 9 -3 19 -8 22 -9 6 -100 -11 -127 -23
-11 -5 -47 -17 -80 -27 -33 -9 -65 -21 -71 -26 -7 -5 -16 -8 -20 -7 -12 3 -44
-11 -75 -32 -14 -10 -29 -16 -33 -12 -3 3 -6 1 -6 -5 0 -7 -11 -12 -25 -12
-14 0 -25 -6 -25 -13 0 -7 -14 -18 -31 -24 -17 -7 -33 -21 -36 -32 -3 -12 -12
-21 -20 -21 -26 0 -93 -45 -93 -62 0 -10 -8 -19 -17 -20 -10 0 -23 -2 -30 -2
-6 -1 -35 -25 -63 -54 -28 -28 -58 -52 -66 -52 -10 0 -14 -6 -10 -15 3 -8 1
-15 -4 -15 -6 0 -10 -7 -10 -15 0 -8 -6 -12 -14 -9 -8 3 -29 -14 -52 -43 -21
-26 -45 -56 -54 -65 -35 -39 -40 -48 -30 -48 5 0 10 -5 10 -11 0 -6 -9 -8 -20
-4 -11 3 -20 3 -20 -2 0 -4 -13 -14 -30 -21 -23 -11 -30 -20 -30 -43 0 -16 -5
-29 -10 -29 -18 0 -71 -93 -64 -112 4 -13 0 -18 -15 -18 -12 0 -21 -5 -21 -11
0 -5 -12 -26 -27 -45 -16 -18 -28 -37 -28 -41 -1 -9 -68 -133 -101 -185 -13
-21 -24 -46 -24 -57 0 -10 -7 -24 -15 -31 -9 -7 -14 -19 -11 -26 5 -13 -18
-37 -46 -47 -12 -4 -17 -16 -16 -41 1 -40 -30 -106 -50 -106 -7 0 -12 -6 -10
-12 2 -13 -8 -77 -18 -110 -3 -10 -12 -18 -20 -18 -17 0 -19 -36 -1 -43 7 -4
6 -6 -4 -6 -17 -1 -49 -66 -49 -97 0 -8 -6 -21 -13 -28 -12 -12 -20 -36 -50
-141 -6 -22 -16 -43 -22 -47 -7 -5 -6 -13 1 -25 9 -14 9 -24 -1 -43 -28 -56
-71 -189 -81 -250 -2 -14 -9 -47 -15 -74 -7 -27 -13 -67 -15 -90 -1 -23 -8
-63 -14 -91 -6 -27 -15 -80 -19 -116 -4 -36 -11 -71 -15 -78 -4 -6 -9 -37 -11
-69 -2 -31 -8 -79 -14 -105 -6 -27 -14 -81 -17 -120 -3 -40 -9 -73 -13 -75 -3
-1 -5 -22 -3 -47 2 -25 1 -53 -3 -63 -8 -18 -12 -49 -20 -146 -3 -36 -11 -66
-22 -79 -10 -11 -12 -17 -4 -12 12 7 13 -4 6 -66 -5 -41 -8 -85 -8 -99 0 -26
-15 -176 -22 -220 -2 -14 -7 -52 -10 -85 -10 -99 -16 -126 -26 -120 -5 4 -9 1
-9 -4 0 -6 5 -11 10 -11 6 0 8 -24 5 -62 -2 -35 -6 -84 -7 -110 -2 -27 -6 -48
-9 -48 -4 0 -7 -10 -7 -22 1 -71 -14 -303 -20 -312 -5 -8 -11 -351 -12 -736 0
-32 18 -176 25 -192 4 -10 15 -15 27 -13 11 3 41 -7 65 -22 38 -22 48 -24 70
-14 21 10 29 9 44 -5 17 -16 20 -16 44 0 21 14 29 15 41 5 11 -9 17 -9 28 0
10 8 16 9 21 1 3 -6 10 -8 15 -5 4 3 13 -2 20 -11 7 -8 19 -13 27 -10 7 3 13
1 13 -4 0 -13 41 -13 60 0 13 8 12 10 -2 10 -10 0 -18 5 -18 11 0 6 8 7 23 2
12 -4 36 -8 52 -8 17 0 35 -4 41 -7 7 -5 11 9 13 40 1 26 4 67 7 92 6 72 14
270 18 460 3 96 8 231 12 300 3 69 6 146 5 173 -1 27 3 47 9 47 5 0 10 12 10
26 0 14 -4 23 -8 20 -5 -3 -4 23 1 57 5 34 10 77 11 95 1 18 6 36 12 40 13 8
14 42 2 42 -11 0 -3 133 9 137 5 2 7 33 5 69 -3 48 -1 69 9 74 10 7 10 12 1
23 -9 11 -10 22 -2 43 6 16 13 60 15 99 2 38 6 95 10 125 8 72 15 188 14 220
-5 116 2 202 19 229 12 18 13 26 4 29 -7 2 -9 8 -6 14 4 6 9 40 11 77 5 89 9
133 28 291 10 74 16 155 16 179 -1 47 23 82 67 95 20 7 22 4 23 -26 3 -57 -2
-102 -13 -131 -9 -23 -8 -31 3 -38 12 -8 12 -10 0 -18 -11 -7 -12 -13 -4 -23
11 -13 13 -138 3 -138 -3 0 -5 -44 -5 -97 -1 -162 -22 -475 -50 -733 -2 -19
-7 -91 -10 -160 -4 -83 -11 -132 -21 -147 -18 -28 -18 -33 0 -33 11 0 12 -8 6
-38 -9 -39 -7 -108 3 -119 4 -3 1 -15 -5 -27 -7 -13 -11 -71 -10 -150 1 -80
-3 -135 -10 -143 -8 -9 -7 -13 2 -13 9 0 10 -10 6 -33 -4 -17 -6 -60 -6 -94 1
-38 -3 -63 -9 -63 -7 0 -7 -8 -1 -24 5 -13 6 -26 3 -29 -3 -3 -7 -57 -9 -119
-3 -62 -7 -144 -9 -183 -3 -38 -5 -74 -5 -80 -4 -81 5 -415 12 -427 12 -24 23
-23 36 5 l11 22 0 -23 c1 -21 3 -22 24 -10 12 6 32 11 44 9 12 -1 26 5 32 16
6 10 11 12 11 6 0 -7 11 -13 25 -13 16 0 25 -6 25 -15 0 -12 4 -14 17 -6 10 5
26 5 41 0 13 -5 28 -7 33 -3 5 3 29 -2 54 -11 40 -16 47 -16 87 -1 24 9 31 14
16 11 -21 -4 -25 -2 -22 13 4 12 16 17 40 18 24 0 31 -3 24 -10 -5 -5 -10 -16
-10 -24 0 -10 4 -10 22 2 25 18 38 20 38 7 0 -5 -8 -12 -17 -14 -10 -3 -3 -5
15 -6 22 -1 32 3 32 14 0 11 7 14 25 9 14 -3 33 -3 42 2 26 11 123 15 123 4 0
-4 -6 -11 -12 -13 -7 -3 6 -4 29 -4 23 1 39 5 37 9 -12 18 63 11 95 -9 28 -18
93 -22 99 -5 2 8 12 5 30 -8 25 -18 65 -22 88 -8 5 4 38 0 73 -8 57 -13 65
-13 81 1 18 17 40 17 52 0 4 -6 8 -2 8 8 0 25 28 21 32 -5 l3 -23 20 23 c22
25 37 29 29 8 -4 -12 1 -14 22 -10 16 3 32 11 36 17 5 8 12 5 23 -10 12 -18
20 -20 44 -13 16 4 32 5 36 2 12 -12 35 -10 35 4 0 8 5 14 10 14 6 0 10 -7 10
-15 0 -20 20 -19 35 2 11 14 16 15 28 5 8 -7 17 -9 19 -4 4 13 48 25 48 14 0
-5 11 -7 25 -4 20 3 24 1 19 -11 -4 -13 0 -14 28 -8 49 10 215 6 230 -6 15
-12 50 -14 42 -2 -2 4 0 10 6 14 5 3 10 -2 10 -12 1 -17 1 -17 14 0 12 16 14
16 20 2 4 -12 12 -14 28 -9 13 3 24 10 26 14 2 4 11 6 21 3 10 -3 22 0 25 6
10 16 37 13 57 -5 16 -14 23 -15 48 -4 31 12 51 7 51 -13 0 -7 14 -18 30 -24
19 -7 28 -8 24 -1 -4 6 2 8 17 3 13 -4 26 -7 29 -7 22 0 30 4 30 16 0 11 7 11
43 -1 51 -18 113 -11 133 14 13 17 14 17 8 0 -6 -16 -2 -17 36 -13 24 3 48 10
53 15 6 6 17 7 27 1 10 -5 27 -7 40 -5 12 2 65 7 118 11 119 7 140 10 174 19
26 7 27 9 23 63 -2 32 -7 95 -10 140 -3 46 -8 88 -11 94 -6 9 -16 160 -16 225
0 18 -3 33 -6 33 -4 0 -8 44 -8 98 0 53 -4 124 -8 157 -5 33 -9 117 -10 187 0
71 -4 128 -8 128 -4 0 -6 8 -6 18 0 9 -3 63 -7 120 -4 56 -8 200 -9 320 -2
119 -7 225 -11 235 -5 13 -4 16 9 11 9 -3 16 -1 16 5 0 6 -6 11 -14 11 -12 0
-14 20 -12 113 3 111 10 144 30 160 7 6 4 7 -6 3 -15 -4 -18 4 -20 62 -3 69 8
138 25 160 7 8 5 12 -7 12 -13 0 -16 5 -10 23 4 12 8 45 8 74 0 28 3 50 8 47
4 -3 8 0 8 5 0 6 -4 11 -10 11 -6 0 -7 27 -4 68 3 37 7 87 9 112 2 25 9 72 15
105 6 33 12 72 12 88 0 15 4 27 7 27 3 0 7 21 8 48 4 68 23 132 40 132 8 0 12
4 9 8 -9 16 19 79 33 74 8 -3 12 1 9 9 -2 7 -1 18 4 24 36 44 45 52 63 60 11
4 24 7 28 6 4 0 10 6 13 14 9 22 108 63 154 63 58 2 130 17 130 27 0 16 85 44
130 43 18 -1 36 4 38 10 2 6 49 25 105 42 56 18 106 36 112 41 5 5 19 9 31 9
13 0 25 4 28 9 3 5 17 12 32 15 14 4 43 18 64 31 21 13 50 27 64 31 14 3 26
12 26 20 0 8 6 14 13 14 28 0 162 76 172 97 7 16 15 21 29 17 12 -4 16 -2 12
5 -4 6 -1 11 8 11 29 0 132 81 119 93 -3 3 4 3 15 0 14 -3 31 6 56 30 20 20
36 33 36 29 0 -3 13 7 30 23 16 15 28 31 25 34 -2 4 10 13 26 20 17 7 33 21
37 30 3 9 31 42 62 73 31 32 55 59 54 61 -2 1 10 11 26 22 16 11 37 36 47 55
10 19 22 38 27 41 5 4 6 11 2 17 -3 6 -2 12 3 14 20 7 109 153 98 160 -6 4
-16 4 -22 0 -5 -3 -4 2 4 11 7 9 19 17 26 17 17 0 45 44 45 70 0 11 4 20 9 20
4 0 6 11 3 26 -3 17 3 33 18 49 14 15 22 37 23 60 1 29 4 35 18 32 13 -4 16 1
13 18 -2 12 3 28 11 35 8 7 13 15 11 19 -3 4 4 34 15 66 22 67 49 196 49 237
0 14 5 28 12 30 7 3 8 9 3 19 -5 8 -10 66 -11 129 -2 152 -14 402 -20 411 -2
4 -6 51 -8 105 -2 55 -6 106 -9 114 -3 8 -11 38 -18 65 -6 28 -24 68 -38 90
-14 22 -37 63 -51 90 -14 28 -31 54 -38 58 -7 5 -17 19 -22 32 -22 57 -168 89
-280 61z m-390 -856 c0 -5 -4 -10 -10 -10 -5 0 -10 5 -10 10 0 6 5 10 10 10 6
0 10 -4 10 -10z m-3926 -311 c-8 -14 -21 -10 -28 7 -10 25 5 40 20 19 7 -10
11 -22 8 -26z m-659 -849 c3 -5 1 -10 -4 -10 -6 0 -11 5 -11 10 0 6 2 10 4 10
3 0 8 -4 11 -10z m-542 -4257 c-7 -2 -19 -2 -25 0 -7 3 -2 5 12 5 14 0 19 -2
13 -5z m2002 -43 c-3 -5 -11 -10 -16 -10 -6 0 -7 5 -4 10 3 6 11 10 16 10 6 0
7 -4 4 -10z"/>
<path d="M7050 3868 c0 -11 12 -10 30 2 12 7 10 9 -8 7 -12 0 -22 -5 -22 -9z"/>
<path d="M13206 3869 c2 -4 -2 -9 -8 -12 -7 -2 -10 -8 -6 -12 4 -4 14 0 23 8
19 19 19 24 0 24 -8 0 -12 -4 -9 -8z"/>
<path d="M7070 3850 c0 -5 5 -10 10 -10 6 0 10 5 10 10 0 6 -4 10 -10 10 -5 0
-10 -4 -10 -10z"/>
<path d="M7095 3770 c3 -5 8 -10 11 -10 2 0 4 5 4 10 0 6 -5 10 -11 10 -5 0
-7 -4 -4 -10z"/>
<path d="M13170 3769 c0 -5 5 -7 10 -4 6 3 10 8 10 11 0 2 -4 4 -10 4 -5 0
-10 -5 -10 -11z"/>
<path d="M12375 2590 c-3 -5 -2 -10 4 -10 5 0 13 5 16 10 3 6 2 10 -4 10 -5 0
-13 -4 -16 -10z"/>
<path d="M3947 1343 c-4 -3 -7 -11 -7 -17 0 -6 5 -5 12 2 6 6 9 14 7 17 -3 3
-9 2 -12 -2z"/>
<path d="M16320 1341 c0 -5 5 -13 10 -16 6 -3 10 -2 10 4 0 5 -4 13 -10 16 -5
3 -10 2 -10 -4z"/>
<path d="M7300 1120 c0 -5 5 -10 10 -10 6 0 10 5 10 10 0 6 -4 10 -10 10 -5 0
-10 -4 -10 -10z"/>
<path d="M12960 1120 c0 -5 5 -10 10 -10 6 0 10 5 10 10 0 6 -4 10 -10 10 -5
0 -10 -4 -10 -10z"/>
</g>
</svg>
