<svg width="283" height="293" viewBox="0 0 283 293" fill="none" xmlns="http://www.w3.org/2000/svg">
<path d="M90.9902 209.9C70.5902 209.9 53.9902 193.3 53.9902 172.9C53.9902 152.5 70.5902 135.9 90.9902 135.9C111.39 135.9 127.99 152.5 127.99 172.9C127.99 193.3 111.39 209.9 90.9902 209.9ZM90.9902 143.91C75.0002 143.91 61.9902 156.92 61.9902 172.91C61.9902 188.9 75.0002 201.91 90.9902 201.91C106.98 201.91 119.99 188.9 119.99 172.91C119.99 156.92 106.98 143.91 90.9902 143.91Z" fill="black"/>
<path d="M214.14 125.09H134.65L174.39 52.4199L214.13 125.09H214.14ZM148.15 117.09H200.65L174.4 69.0899L148.15 117.09Z" fill="black"/>
<path d="M207.02 165.53H141.84C140.32 165.53 138.92 164.66 138.25 163.3C137.58 161.93 137.74 160.3 138.67 159.09C151.13 142.91 164.15 135.15 177.35 136.05C197.56 137.42 209.97 158.64 210.49 159.54C211.2 160.78 211.2 162.3 210.49 163.54C209.78 164.78 208.46 165.54 207.03 165.54L207.02 165.53ZM150.44 157.53H199.22C194.64 152.05 186.72 144.69 176.78 144.03C168.18 143.47 159.33 148 150.44 157.53Z" fill="black"/>
<path d="M206.8 188.14C206.37 188.14 205.92 188.07 205.49 187.92L140.75 165.46C138.66 164.74 137.56 162.46 138.28 160.37C139.01 158.28 141.28 157.18 143.37 157.9L208.11 180.36C210.2 181.08 211.3 183.36 210.58 185.45C210.01 187.1 208.46 188.14 206.8 188.14Z" fill="black"/>
<path d="M173.51 209.9C172.83 209.9 172.15 209.88 171.46 209.83C151.25 208.46 138.84 187.24 138.32 186.34C137.61 185.1 137.61 183.58 138.32 182.34C139.03 181.1 140.35 180.34 141.78 180.34H206.96C208.48 180.34 209.88 181.21 210.55 182.57C211.22 183.94 211.06 185.57 210.13 186.78C198.31 202.12 186 209.89 173.49 209.89L173.51 209.9ZM149.6 188.35C154.18 193.83 162.1 201.19 172.04 201.85C180.66 202.41 189.49 197.88 198.38 188.35H149.6Z" fill="black"/>
<path d="M71.25 249.48L68.33 245.31C68.03 244.87 67.72 244.65 67.41 244.65C67.03 244.65 66.84 245.03 66.84 245.78V248.61C66.84 248.97 66.71 249.26 66.44 249.47C66.17 249.68 65.86 249.82 65.49 249.86C64.44 249.94 63.26 249.98 61.94 249.98C60.62 249.98 59.37 249.94 58.19 249.86C57.69 249.82 57.29 249.62 56.99 249.25C56.69 248.88 56.53 248.47 56.49 248.01C56.36 246.26 56.29 243.55 56.29 239.87C56.29 236.19 56.33 233.69 56.4 232.38C56.47 231.07 56.62 230.2 56.85 229.77C57.07 229.34 57.54 229.13 58.23 229.13H64.91C65.46 229.13 65.91 229.39 66.28 229.9C66.65 230.42 66.83 231.05 66.83 231.81L66.85 235.15C66.85 235.57 66.94 235.77 67.12 235.77C67.24 235.77 67.47 235.6 67.82 235.26L72.7 229.81C73.1 229.35 73.58 229.12 74.13 229.11C74.69 229.11 75.28 229.1 75.91 229.1L77.83 229.13C78.09 229.13 78.28 229.28 78.38 229.58C78.48 229.88 78.43 230.15 78.23 230.38C76.32 232.66 74.41 234.78 72.5 236.72C72.33 236.9 72.25 237.08 72.25 237.27C72.25 237.46 72.34 237.66 72.52 237.88L73.87 239.49C74.55 240.3 75.11 240.97 75.55 241.49C75.99 242.01 76.51 242.63 77.11 243.37C78.31 244.84 79.22 246.03 79.85 246.94C80.18 247.42 80.35 247.9 80.35 248.4C80.35 248.58 80.32 248.77 80.27 248.97C80.09 249.65 79.69 249.98 79.07 249.98H72.37C71.86 249.98 71.47 249.81 71.22 249.47L71.25 249.48Z" fill="black"/>
<path d="M92.8601 236.32L92.8301 242.28C92.8301 243.15 92.9401 243.8 93.1701 244.23C93.3901 244.66 93.8601 244.87 94.5801 244.87H100.88C101.64 244.89 102.03 245.58 102.03 246.95C102.03 248 101.92 248.77 101.71 249.24C101.5 249.71 101.05 249.96 100.39 249.98C98.0501 250.06 95.7301 250.1 93.4401 250.1C91.1501 250.1 88.2201 250.08 84.6701 250.04C84.0701 250.04 83.5901 249.87 83.2101 249.52C82.8401 249.17 82.6201 248.69 82.5701 248.08C82.4401 246.35 82.3701 243.63 82.3701 239.91C82.3701 236.19 82.4101 233.68 82.4801 232.37C82.5501 231.07 82.7101 230.21 82.9401 229.78C83.1701 229.35 83.6301 229.14 84.3101 229.14H90.9901C91.6901 229.14 92.1501 229.36 92.3701 229.8C92.5901 230.24 92.7301 230.94 92.7801 231.91C92.8301 232.88 92.8601 234.35 92.8601 236.32Z" fill="black"/>
<path d="M113.52 232.27L113.47 234.98V240.73C113.47 241.56 113.69 242.21 114.12 242.67C114.55 243.13 115.06 243.35 115.64 243.35C116.22 243.35 116.72 243.12 117.15 242.67C117.57 242.21 117.79 241.57 117.79 240.73V231.85C117.79 230.92 117.89 230.23 118.1 229.8C118.31 229.37 118.76 229.14 119.46 229.14H121.75C122.28 229.14 122.65 229.33 122.85 229.71C123.23 230.38 123.42 233 123.42 237.54C123.42 239.03 123.4 240.17 123.37 240.96C123.32 242.57 123.01 244 122.44 245.26C121.87 246.52 121.13 247.53 120.23 248.28C118.42 249.81 116.37 250.57 114.07 250.57C111.05 250.57 108.55 249.73 106.57 248.04C105.57 247.19 104.79 246.05 104.22 244.63C103.65 243.21 103.35 241.56 103.34 239.67C103.32 238.74 103.31 237.36 103.31 235.55C103.31 233.74 103.33 232.42 103.37 231.62C103.41 230.82 103.54 230.2 103.77 229.77C103.99 229.34 104.45 229.13 105.13 229.13H111.78C112.45 229.13 112.89 229.34 113.1 229.75C113.38 230.29 113.52 231.12 113.52 232.25V232.27Z" fill="black"/>
<path d="M127.8 229.17C129.86 229.09 132.43 229.05 135.53 229.05C138.63 229.05 140.76 229.09 141.95 229.15C143.14 229.22 144.19 229.77 145.1 230.8C146.01 231.83 146.47 233.02 146.47 234.37C146.47 236.02 145.87 237.23 144.68 238C144.56 238.08 144.51 238.17 144.51 238.28C144.51 238.39 144.57 238.46 144.68 238.5C145.54 238.78 146.27 239.37 146.86 240.29C147.45 241.21 147.74 242.29 147.74 243.54C147.74 245.11 147.23 246.53 146.22 247.8C145.21 249.07 143.65 249.76 141.56 249.87C139.47 249.98 137.95 250.03 137.02 250.03C136.09 250.03 132.98 250 127.7 249.94C127.22 249.94 126.83 249.76 126.53 249.39C126.23 249.02 126.06 248.6 126.01 248.12C125.88 246.37 125.81 243.83 125.81 240.48C125.81 237.13 125.87 234.28 125.98 231.92C126.03 230.95 126.17 230.25 126.4 229.82C126.63 229.39 127.1 229.17 127.8 229.15V229.17ZM135.95 233.16L135.98 235.6C135.98 235.98 136.17 236.17 136.55 236.17C138.23 236.17 139.07 235.6 139.07 234.47C139.07 233.16 138.32 232.51 136.83 232.51H136.56C136.16 232.51 135.96 232.73 135.96 233.17L135.95 233.16ZM135.98 241.35L135.95 245.22C135.95 245.4 136 245.55 136.1 245.68C136.2 245.81 136.33 245.87 136.5 245.87C137.51 245.87 138.35 245.63 139 245.16C139.65 244.69 139.98 243.93 139.98 242.91C139.98 241.89 139.64 241.18 138.96 240.78C138.41 240.46 137.81 240.3 137.17 240.3C137 240.3 136.84 240.3 136.67 240.33C136.21 240.37 135.97 240.71 135.97 241.34L135.98 241.35Z" fill="black"/>
<path d="M152.07 229.17C154.13 229.09 156.7 229.05 159.8 229.05C162.9 229.05 165.03 229.09 166.22 229.15C167.41 229.22 168.46 229.77 169.37 230.8C170.28 231.83 170.74 233.02 170.74 234.37C170.74 236.02 170.14 237.23 168.95 238C168.83 238.08 168.78 238.17 168.78 238.28C168.78 238.39 168.84 238.46 168.95 238.5C169.81 238.78 170.54 239.37 171.13 240.29C171.72 241.21 172.01 242.29 172.01 243.54C172.01 245.11 171.5 246.53 170.49 247.8C169.48 249.07 167.92 249.76 165.83 249.87C163.74 249.98 162.22 250.03 161.29 250.03C160.36 250.03 157.25 250 151.97 249.94C151.49 249.94 151.1 249.76 150.8 249.39C150.5 249.02 150.33 248.6 150.28 248.12C150.15 246.37 150.08 243.83 150.08 240.48C150.08 237.13 150.14 234.28 150.25 231.92C150.3 230.95 150.44 230.25 150.67 229.82C150.9 229.39 151.37 229.17 152.07 229.15V229.17ZM160.22 233.16L160.25 235.6C160.25 235.98 160.44 236.17 160.82 236.17C162.5 236.17 163.34 235.6 163.34 234.47C163.34 233.16 162.59 232.51 161.1 232.51H160.83C160.43 232.51 160.23 232.73 160.23 233.17L160.22 233.16ZM160.25 241.35L160.22 245.22C160.22 245.4 160.27 245.55 160.37 245.68C160.47 245.81 160.6 245.87 160.77 245.87C161.78 245.87 162.62 245.63 163.27 245.16C163.92 244.69 164.25 243.93 164.25 242.91C164.25 241.89 163.91 241.18 163.23 240.78C162.68 240.46 162.08 240.3 161.44 240.3C161.27 240.3 161.11 240.3 160.94 240.33C160.48 240.37 160.24 240.71 160.24 241.34L160.25 241.35Z" fill="black"/>
<path d="M175.11 249.44C174.79 249.07 174.58 248.47 174.49 247.62C174.4 246.78 174.35 244.24 174.35 240.03C174.35 235.82 174.41 233.06 174.52 231.77C174.65 230.1 175.24 229.25 176.29 229.21C177.49 229.17 182.44 229.15 191.17 229.15C192.15 229.15 192.64 229.89 192.64 231.38C192.64 232.55 192.21 233.14 191.34 233.14H185.86C185.51 233.14 185.23 233.28 185.03 233.56C184.82 233.84 184.72 234.2 184.72 234.63V236.77C184.72 237.37 184.94 237.66 185.39 237.66H189.93C190.2 237.66 190.4 237.69 190.54 237.75C190.68 237.81 190.81 237.98 190.93 238.27C191.05 238.56 191.1 239.03 191.1 239.68C191.1 240.33 191 240.77 190.81 240.99C190.62 241.21 190.31 241.32 189.88 241.32H185.82C185.4 241.32 185.12 241.44 184.96 241.69C184.8 241.94 184.72 242.32 184.72 242.84V244.3C184.72 245.15 185.06 245.58 185.74 245.58H191.95C192.25 245.58 192.51 245.68 192.75 245.89C192.98 246.1 193.1 246.56 193.1 247.26C193.1 247.96 192.96 248.59 192.68 249.15C192.4 249.71 192.06 249.98 191.68 249.98H176.3C175.83 249.98 175.44 249.8 175.12 249.43L175.11 249.44Z" fill="black"/>
<path d="M212.37 229.14H215.04C215.6 229.14 216 229.25 216.22 229.47C216.44 229.69 216.56 230.14 216.58 230.81C216.68 233.83 216.73 237.07 216.73 240.55C216.73 244.03 216.67 246.57 216.56 248.17C216.53 248.63 216.38 249.04 216.12 249.42C215.86 249.8 215.53 249.99 215.11 249.99H210.95C210.37 249.99 209.73 249.74 209.03 249.25C205.18 246.53 202.75 244.87 201.75 244.28C201.55 244.18 201.39 244.22 201.26 244.38C201.14 244.55 201.07 244.86 201.07 245.32V248.63C201.07 249.01 200.95 249.31 200.72 249.52C200.37 249.86 199.47 250.03 198.03 250.03C197.63 250.03 197.24 250.02 196.86 249.99C196.48 249.96 196.17 249.76 195.93 249.38C195.69 249 195.56 248.6 195.54 248.16C195.49 245.78 195.47 242.78 195.47 239.18C195.47 235.58 195.47 233.23 195.49 232.14C195.51 231.05 195.61 230.28 195.81 229.83C196.01 229.38 196.39 229.16 196.96 229.16H199.7C200.26 229.16 200.85 229.35 201.44 229.73C206.59 232.93 209.6 234.78 210.46 235.3C210.74 235.46 210.97 235.48 211.13 235.36C211.29 235.24 211.38 235.02 211.38 234.7V230.53C211.38 230.13 211.47 229.81 211.64 229.55C211.81 229.29 212.05 229.16 212.35 229.16L212.37 229.14Z" fill="black"/>
<path d="M53.9902 126.39V52.3301H128.05L127.98 56.9201L127.82 60.3301L122.46 63.1901L70.2202 89.3301L127.95 118.22L127.99 125.2L123.87 125.22L54.0002 126.39H53.9902ZM61.9902 94.1601V118.26L108.59 117.48L61.9902 94.1601ZM61.9902 60.3301V84.5001L110.28 60.3301H61.9902Z" fill="black"/>
</svg>
